<!-- Mitra Darat Logo old -->
<!-- <svg width="3170" height="801" viewBox="0 0 3170 801" fill="none" xmlns="http://www.w3.org/2000/svg">
<rect width="3170" height="801" fill="#F9FAFB"/>
<rect x="100" y="100.5" width="600" height="600" rx="300" fill="#EBEBFF"/>
<path fill-rule="evenodd" clip-rule="evenodd" d="M530.4 254H436.533L542.133 400.667L487.221 476.934H393.413L342.667 547.334H509.867L530.4 547.333L636 400.667L530.4 254Z" fill="#FFB020"/>
<path d="M313.333 254H407.2L467.04 342H373.173L313.333 254Z" fill="#7576B2"/>
<path d="M436.533 254H530.4L319.2 547.333H225.333L436.533 254Z" fill="#30318B"/>
<path d="M313.333 254H407.2L196 547.333L196 412.4L313.333 254Z" fill="#30318B"/>
<path d="M810.8 569V252.2H858.54L968.1 476.6L1077.66 252.2H1125.4V569H1075.9V365.94L978.66 569H957.54L860.52 365.94V569H810.8ZM1191.61 295.32V246.7H1244.63V295.32H1191.61ZM1191.61 569V331.4H1244.63V569H1191.61ZM1449.79 569C1434.09 571.933 1418.69 573.18 1403.59 572.74C1388.63 572.447 1375.21 569.733 1363.33 564.6C1351.45 559.32 1342.43 551.033 1336.27 539.74C1330.84 529.473 1327.98 518.987 1327.69 508.28C1327.39 497.573 1327.25 485.473 1327.25 471.98V265.4H1380.05V468.9C1380.05 478.433 1380.12 486.793 1380.27 493.98C1380.56 501.167 1382.1 507.033 1384.89 511.58C1390.17 520.38 1398.6 525.293 1410.19 526.32C1421.77 527.347 1434.97 526.76 1449.79 524.56V569ZM1284.13 372.98V331.4H1449.79V372.98H1284.13ZM1500.88 569V331.4H1547.74V389.26L1542.02 381.78C1544.95 373.86 1548.84 366.673 1553.68 360.22C1558.66 353.62 1564.6 348.193 1571.5 343.94C1577.36 339.98 1583.82 336.9 1590.86 334.7C1598.04 332.353 1605.38 330.96 1612.86 330.52C1620.34 329.933 1627.6 330.227 1634.64 331.4V380.9C1627.6 378.847 1619.46 378.187 1610.22 378.92C1601.12 379.653 1592.91 382.22 1585.58 386.62C1578.24 390.58 1572.23 395.64 1567.54 401.8C1562.99 407.96 1559.62 415 1557.42 422.92C1555.22 430.693 1554.12 439.127 1554.12 448.22V569H1500.88ZM1737.47 575.6C1720.31 575.6 1705.79 572.373 1693.91 565.92C1682.03 559.32 1673.01 550.593 1666.85 539.74C1660.84 528.887 1657.83 516.933 1657.83 503.88C1657.83 492.44 1659.74 482.173 1663.55 473.08C1667.37 463.84 1673.23 455.92 1681.15 449.32C1689.07 442.573 1699.34 437.073 1711.95 432.82C1721.49 429.74 1732.63 426.953 1745.39 424.46C1758.3 421.967 1772.23 419.693 1787.19 417.64C1802.3 415.44 1818.07 413.093 1834.49 410.6L1815.57 421.38C1815.72 404.953 1812.05 392.853 1804.57 385.08C1797.09 377.307 1784.48 373.42 1766.73 373.42C1756.03 373.42 1745.69 375.913 1735.71 380.9C1725.74 385.887 1718.77 394.467 1714.81 406.64L1666.41 391.46C1672.28 371.367 1683.43 355.233 1699.85 343.06C1716.43 330.887 1738.72 324.8 1766.73 324.8C1787.85 324.8 1806.41 328.247 1822.39 335.14C1838.53 342.033 1850.48 353.327 1858.25 369.02C1862.51 377.38 1865.07 385.96 1865.95 394.76C1866.83 403.413 1867.27 412.873 1867.27 423.14V569H1820.85V517.52L1828.55 525.88C1817.85 543.04 1805.31 555.653 1790.93 563.72C1776.71 571.64 1758.89 575.6 1737.47 575.6ZM1748.03 533.36C1760.06 533.36 1770.33 531.233 1778.83 526.98C1787.34 522.727 1794.09 517.52 1799.07 511.36C1804.21 505.2 1807.65 499.407 1809.41 493.98C1812.2 487.233 1813.74 479.533 1814.03 470.88C1814.47 462.08 1814.69 454.967 1814.69 449.54L1830.97 454.38C1814.99 456.873 1801.27 459.073 1789.83 460.98C1778.39 462.887 1768.57 464.72 1760.35 466.48C1752.14 468.093 1744.88 469.927 1738.57 471.98C1732.41 474.18 1727.21 476.747 1722.95 479.68C1718.7 482.613 1715.4 485.987 1713.05 489.8C1710.85 493.613 1709.75 498.087 1709.75 503.22C1709.75 509.087 1711.22 514.293 1714.15 518.84C1717.09 523.24 1721.34 526.76 1726.91 529.4C1732.63 532.04 1739.67 533.36 1748.03 533.36Z" fill="#30318B"/>
<path d="M1924.8 569V252.2H2025.78C2028.42 252.2 2033.63 252.273 2041.4 252.42C2049.32 252.567 2056.95 253.08 2064.28 253.96C2089.36 257.187 2110.55 266.133 2127.86 280.8C2145.31 295.32 2158.51 313.873 2167.46 336.46C2176.41 359.047 2180.88 383.76 2180.88 410.6C2180.88 437.44 2176.41 462.153 2167.46 484.74C2158.51 507.327 2145.31 525.953 2127.86 540.62C2110.55 555.14 2089.36 564.013 2064.28 567.24C2057.09 568.12 2049.54 568.633 2041.62 568.78C2033.7 568.927 2028.42 569 2025.78 569H1924.8ZM1978.7 519.06H2025.78C2030.18 519.06 2035.75 518.913 2042.5 518.62C2049.39 518.327 2055.48 517.667 2060.76 516.64C2075.72 513.853 2087.89 507.18 2097.28 496.62C2106.67 486.06 2113.56 473.227 2117.96 458.12C2122.51 443.013 2124.78 427.173 2124.78 410.6C2124.78 393.44 2122.51 377.307 2117.96 362.2C2113.41 347.093 2106.37 334.407 2096.84 324.14C2087.45 313.873 2075.43 307.347 2060.76 304.56C2055.48 303.387 2049.39 302.727 2042.5 302.58C2035.75 302.287 2030.18 302.14 2025.78 302.14H1978.7V519.06ZM2299.33 575.6C2282.17 575.6 2267.65 572.373 2255.77 565.92C2243.89 559.32 2234.87 550.593 2228.71 539.74C2222.69 528.887 2219.69 516.933 2219.69 503.88C2219.69 492.44 2221.59 482.173 2225.41 473.08C2229.22 463.84 2235.09 455.92 2243.01 449.32C2250.93 442.573 2261.19 437.073 2273.81 432.82C2283.34 429.74 2294.49 426.953 2307.25 424.46C2320.15 421.967 2334.09 419.693 2349.05 417.64C2364.15 415.44 2379.92 413.093 2396.35 410.6L2377.43 421.38C2377.57 404.953 2373.91 392.853 2366.43 385.08C2358.95 377.307 2346.33 373.42 2328.59 373.42C2317.88 373.42 2307.54 375.913 2297.57 380.9C2287.59 385.887 2280.63 394.467 2276.67 406.64L2228.27 391.46C2234.13 371.367 2245.28 355.233 2261.71 343.06C2278.28 330.887 2300.57 324.8 2328.59 324.8C2349.71 324.8 2368.26 328.247 2384.25 335.14C2400.38 342.033 2412.33 353.327 2420.11 369.02C2424.36 377.38 2426.93 385.96 2427.81 394.76C2428.69 403.413 2429.13 412.873 2429.13 423.14V569H2382.71V517.52L2390.41 525.88C2379.7 543.04 2367.16 555.653 2352.79 563.72C2338.56 571.64 2320.74 575.6 2299.33 575.6ZM2309.89 533.36C2321.91 533.36 2332.18 531.233 2340.69 526.98C2349.19 522.727 2355.94 517.52 2360.93 511.36C2366.06 505.2 2369.51 499.407 2371.27 493.98C2374.05 487.233 2375.59 479.533 2375.89 470.88C2376.33 462.08 2376.55 454.967 2376.55 449.54L2392.83 454.38C2376.84 456.873 2363.13 459.073 2351.69 460.98C2340.25 462.887 2330.42 464.72 2322.21 466.48C2313.99 468.093 2306.73 469.927 2300.43 471.98C2294.27 474.18 2289.06 476.747 2284.81 479.68C2280.55 482.613 2277.25 485.987 2274.91 489.8C2272.71 493.613 2271.61 498.087 2271.61 503.22C2271.61 509.087 2273.07 514.293 2276.01 518.84C2278.94 523.24 2283.19 526.76 2288.77 529.4C2294.49 532.04 2301.53 533.36 2309.89 533.36ZM2486.4 569V331.4H2533.26V389.26L2527.54 381.78C2530.47 373.86 2534.36 366.673 2539.2 360.22C2544.19 353.62 2550.13 348.193 2557.02 343.94C2562.89 339.98 2569.34 336.9 2576.38 334.7C2583.57 332.353 2590.9 330.96 2598.38 330.52C2605.86 329.933 2613.12 330.227 2620.16 331.4V380.9C2613.12 378.847 2604.98 378.187 2595.74 378.92C2586.65 379.653 2578.43 382.22 2571.1 386.62C2563.77 390.58 2557.75 395.64 2553.06 401.8C2548.51 407.96 2545.14 415 2542.94 422.92C2540.74 430.693 2539.64 439.127 2539.64 448.22V569H2486.4ZM2723 575.6C2705.84 575.6 2691.32 572.373 2679.44 565.92C2667.56 559.32 2658.54 550.593 2652.38 539.74C2646.36 528.887 2643.36 516.933 2643.36 503.88C2643.36 492.44 2645.26 482.173 2649.08 473.08C2652.89 463.84 2658.76 455.92 2666.68 449.32C2674.6 442.573 2684.86 437.073 2697.48 432.82C2707.01 429.74 2718.16 426.953 2730.92 424.46C2743.82 421.967 2757.76 419.693 2772.72 417.64C2787.82 415.44 2803.59 413.093 2820.02 410.6L2801.1 421.38C2801.24 404.953 2797.58 392.853 2790.1 385.08C2782.62 377.307 2770 373.42 2752.26 373.42C2741.55 373.42 2731.21 375.913 2721.24 380.9C2711.26 385.887 2704.3 394.467 2700.34 406.64L2651.94 391.46C2657.8 371.367 2668.95 355.233 2685.38 343.06C2701.95 330.887 2724.24 324.8 2752.26 324.8C2773.38 324.8 2791.93 328.247 2807.92 335.14C2824.05 342.033 2836 353.327 2843.78 369.02C2848.03 377.38 2850.6 385.96 2851.48 394.76C2852.36 403.413 2852.8 412.873 2852.8 423.14V569H2806.38V517.52L2814.08 525.88C2803.37 543.04 2790.83 555.653 2776.46 563.72C2762.23 571.64 2744.41 575.6 2723 575.6ZM2733.56 533.36C2745.58 533.36 2755.85 531.233 2764.36 526.98C2772.86 522.727 2779.61 517.52 2784.6 511.36C2789.73 505.2 2793.18 499.407 2794.94 493.98C2797.72 487.233 2799.26 479.533 2799.56 470.88C2800 462.08 2800.22 454.967 2800.22 449.54L2816.5 454.38C2800.51 456.873 2786.8 459.073 2775.36 460.98C2763.92 462.887 2754.09 464.72 2745.88 466.48C2737.66 468.093 2730.4 469.927 2724.1 471.98C2717.94 474.18 2712.73 476.747 2708.48 479.68C2704.22 482.613 2700.92 485.987 2698.58 489.8C2696.38 493.613 2695.28 498.087 2695.28 503.22C2695.28 509.087 2696.74 514.293 2699.68 518.84C2702.61 523.24 2706.86 526.76 2712.44 529.4C2718.16 532.04 2725.2 533.36 2733.56 533.36ZM3049.33 569C3033.64 571.933 3018.24 573.18 3003.13 572.74C2988.17 572.447 2974.75 569.733 2962.87 564.6C2950.99 559.32 2941.97 551.033 2935.81 539.74C2930.39 529.473 2927.53 518.987 2927.23 508.28C2926.94 497.573 2926.79 485.473 2926.79 471.98V265.4H2979.59V468.9C2979.59 478.433 2979.67 486.793 2979.81 493.98C2980.11 501.167 2981.65 507.033 2984.43 511.58C2989.71 520.38 2998.15 525.293 3009.73 526.32C3021.32 527.347 3034.52 526.76 3049.33 524.56V569ZM2883.67 372.98V331.4H3049.33V372.98H2883.67Z" fill="#FFB020"/>
</svg> -->

<!-- Mitra Darat Logo New 10-03-2023 -->
<svg width="160" height="20" viewBox="0 0 160 20" fill="none" xmlns="http://www.w3.org/2000/svg">
<path fill-rule="evenodd" clip-rule="evenodd" d="M21.28 0.666626H15.3067L22.0267 9.99997L18.5323 14.8533H12.5627L9.33333 19.3333L15.3067 19.3333H21.28L28 9.99997L21.28 0.666626Z" fill="#FFB020"/>
<path d="M7.46661 0.666626H13.44L17.248 6.26663H11.2746L7.46661 0.666626Z" fill="#173699"/>
<path d="M15.3067 0.666626H21.28L7.84004 19.3333H1.8667L15.3067 0.666626Z" fill="#224DDD"/>
<path d="M7.46667 0.666626H13.44L0 19.3333L0 10.7466L7.46667 0.666626Z" fill="#224DDD"/>
<path d="M36 19.6V0.399999H39.2533L45.6 13.1467L51.9466 0.399999H55.2V19.6H51.8133V8.13332L46.24 19.6H44.96L39.3867 8.13332V19.6H36Z" fill="#224DDD"/>
<path d="M57.5427 3.2V0H61.1693V3.2H57.5427ZM57.5427 19.6V5.19999H61.1693V19.6H57.5427Z" fill="#224DDD"/>
<path d="M72.14 19.6C71.1444 19.7866 70.1666 19.8666 69.2066 19.84C68.2555 19.8222 67.4022 19.6578 66.6466 19.3466C65.9 19.0266 65.3311 18.5155 64.94 17.8133C64.5844 17.1555 64.3977 16.4889 64.38 15.8133C64.3622 15.1289 64.3533 14.3555 64.3533 13.4933V1.2H67.98V13.28C67.98 13.84 67.9844 14.3467 67.9933 14.8C68.0111 15.2444 68.1044 15.6 68.2733 15.8666C68.5933 16.3733 69.1044 16.6489 69.8066 16.6933C70.5088 16.7378 71.2866 16.7022 72.14 16.5866V19.6ZM61.9 7.99999V5.19999H72.14V7.99999H61.9Z" fill="#224DDD"/>
<path d="M73.6822 19.6V5.19999H76.8822V8.71999L76.5356 8.26666C76.7222 7.76888 76.9711 7.31555 77.2822 6.90666C77.5933 6.49777 77.9756 6.15999 78.4289 5.89333C78.7756 5.67999 79.1533 5.51555 79.5622 5.39999C79.9711 5.27555 80.3933 5.19999 80.8289 5.17333C81.2645 5.13777 81.7 5.14666 82.1356 5.19999V8.58666C81.7356 8.46221 81.2689 8.42221 80.7356 8.46666C80.2111 8.50221 79.7356 8.62221 79.3089 8.82666C78.8822 9.02221 78.5222 9.28443 78.2289 9.61332C77.9356 9.93332 77.7133 10.3155 77.5622 10.76C77.4111 11.1955 77.3356 11.6889 77.3356 12.24V19.6H73.6822Z" fill="#224DDD"/>
<path d="M86.7447 20C85.7136 20 84.8381 19.8044 84.1181 19.4133C83.4069 19.0133 82.8647 18.4844 82.4914 17.8266C82.1269 17.16 81.9447 16.4266 81.9447 15.6266C81.9447 14.96 82.047 14.3511 82.2514 13.8C82.4558 13.2489 82.7847 12.7644 83.2381 12.3467C83.7003 11.92 84.3181 11.5644 85.0914 11.28C85.6247 11.0844 86.2603 10.9111 86.9981 10.76C87.7358 10.6089 88.5714 10.4667 89.5047 10.3333C90.438 10.1911 91.4647 10.0355 92.5847 9.86666L91.278 10.5867C91.278 9.73332 91.0736 9.10666 90.6647 8.70666C90.2558 8.30666 89.5714 8.10666 88.6114 8.10666C88.0781 8.10666 87.5225 8.23555 86.9447 8.49332C86.3669 8.7511 85.9625 9.20888 85.7314 9.86666L82.4514 8.82666C82.8158 7.63555 83.5003 6.66666 84.5047 5.91999C85.5092 5.17333 86.8781 4.79999 88.6114 4.79999C89.8825 4.79999 91.0114 4.99555 91.9981 5.38666C92.9847 5.77777 93.7314 6.45333 94.238 7.41332C94.5225 7.94666 94.6914 8.47999 94.7447 9.01332C94.798 9.54666 94.8247 10.1422 94.8247 10.8V19.6H91.6514V16.64L92.1047 17.2533C91.4025 18.2222 90.6425 18.9244 89.8247 19.36C89.0158 19.7866 87.9892 20 86.7447 20ZM87.5181 17.1466C88.1847 17.1466 88.7447 17.0311 89.1981 16.8C89.6603 16.56 90.0247 16.2889 90.2914 15.9866C90.5669 15.6844 90.7536 15.4311 90.8514 15.2266C91.038 14.8355 91.1447 14.3822 91.1714 13.8666C91.2069 13.3422 91.2247 12.9067 91.2247 12.56L92.2914 12.8267C91.2158 13.0044 90.3447 13.1555 89.6781 13.28C89.0114 13.3955 88.4736 13.5022 88.0647 13.6C87.6558 13.6978 87.2958 13.8044 86.9847 13.92C86.6292 14.0622 86.3403 14.2178 86.1181 14.3866C85.9047 14.5466 85.7447 14.7244 85.6381 14.92C85.5403 15.1155 85.4914 15.3333 85.4914 15.5733C85.4914 15.9022 85.5714 16.1866 85.7314 16.4266C85.9003 16.6578 86.1358 16.8355 86.4381 16.96C86.7403 17.0844 87.1003 17.1466 87.5181 17.1466Z" fill="#224DDD"/>
<path d="M96.6047 19.6V0.40004H102.818C102.969 0.40004 103.28 0.404485 103.751 0.413374C104.222 0.422262 104.676 0.453373 105.111 0.506707C106.658 0.693374 107.969 1.23115 109.045 2.12004C110.12 3.00893 110.938 4.13781 111.498 5.5067C112.058 6.87559 112.338 8.37336 112.338 10C112.338 11.6267 112.058 13.1245 111.498 14.4934C110.938 15.8622 110.12 16.9911 109.045 17.88C107.969 18.7689 106.658 19.3067 105.111 19.4934C104.676 19.5467 104.222 19.5778 103.751 19.5867C103.28 19.5956 102.969 19.6 102.818 19.6H96.6047ZM100.285 16.1867H102.818C103.058 16.1867 103.382 16.1822 103.791 16.1734C104.2 16.1556 104.569 16.1156 104.898 16.0534C105.734 15.8845 106.414 15.4934 106.938 14.88C107.471 14.2667 107.862 13.5289 108.111 12.6667C108.369 11.8045 108.498 10.9156 108.498 10C108.498 9.04003 108.365 8.12892 108.098 7.2667C107.84 6.40448 107.445 5.67559 106.911 5.08003C106.378 4.48448 105.707 4.1067 104.898 3.9467C104.569 3.87559 104.2 3.83559 103.791 3.8267C103.382 3.81781 103.058 3.81337 102.818 3.81337H100.285V16.1867Z" fill="#FFAA00"/>
<path d="M117.87 20C116.839 20 115.964 19.8045 115.244 19.4134C114.533 19.0134 113.99 18.4845 113.617 17.8267C113.253 17.16 113.07 16.4267 113.07 15.6267C113.07 14.96 113.173 14.3511 113.377 13.8C113.581 13.2489 113.91 12.7645 114.364 12.3467C114.826 11.92 115.444 11.5645 116.217 11.28C116.75 11.0845 117.386 10.9111 118.124 10.76C118.861 10.6089 119.697 10.4667 120.63 10.3334C121.564 10.1911 122.59 10.0356 123.71 9.8667L122.404 10.5867C122.404 9.73336 122.199 9.1067 121.79 8.7067C121.381 8.3067 120.697 8.1067 119.737 8.1067C119.204 8.1067 118.648 8.23559 118.07 8.49336C117.493 8.75114 117.088 9.20892 116.857 9.8667L113.577 8.8267C113.941 7.63559 114.626 6.6667 115.63 5.92003C116.635 5.17337 118.004 4.80004 119.737 4.80004C121.008 4.80004 122.137 4.99559 123.124 5.3867C124.11 5.77781 124.857 6.45337 125.364 7.41337C125.648 7.9467 125.817 8.48003 125.87 9.01336C125.924 9.5467 125.95 10.1423 125.95 10.8V19.6H122.777V16.64L123.23 17.2534C122.528 18.2222 121.768 18.9245 120.95 19.36C120.141 19.7867 119.115 20 117.87 20ZM118.644 17.1467C119.31 17.1467 119.87 17.0311 120.324 16.8C120.786 16.56 121.15 16.2889 121.417 15.9867C121.693 15.6845 121.879 15.4311 121.977 15.2267C122.164 14.8356 122.27 14.3822 122.297 13.8667C122.332 13.3422 122.35 12.9067 122.35 12.56L123.417 12.8267C122.341 13.0045 121.47 13.1556 120.804 13.28C120.137 13.3956 119.599 13.5022 119.19 13.6C118.781 13.6978 118.421 13.8045 118.11 13.92C117.755 14.0622 117.466 14.2178 117.244 14.3867C117.03 14.5467 116.87 14.7245 116.764 14.92C116.666 15.1156 116.617 15.3334 116.617 15.5734C116.617 15.9022 116.697 16.1867 116.857 16.4267C117.026 16.6578 117.261 16.8356 117.564 16.96C117.866 17.0845 118.226 17.1467 118.644 17.1467Z" fill="#FFAA00"/>
<path d="M127.75 19.6V5.20003H130.95V8.72003L130.604 8.2667C130.79 7.76892 131.039 7.31559 131.35 6.9067C131.662 6.49781 132.044 6.16003 132.497 5.89337C132.844 5.68003 133.222 5.51559 133.63 5.40003C134.039 5.27559 134.462 5.20004 134.897 5.17337C135.333 5.13781 135.768 5.1467 136.204 5.20003V8.5867C135.804 8.46225 135.337 8.42225 134.804 8.4667C134.279 8.50225 133.804 8.62225 133.377 8.8267C132.95 9.02225 132.59 9.28447 132.297 9.61336C132.004 9.93336 131.782 10.3156 131.63 10.76C131.479 11.1956 131.404 11.6889 131.404 12.24V19.6H127.75Z" fill="#FFAA00"/>
<path d="M140.813 20C139.782 20 138.906 19.8045 138.186 19.4134C137.475 19.0134 136.933 18.4845 136.56 17.8267C136.195 17.16 136.013 16.4267 136.013 15.6267C136.013 14.96 136.115 14.3511 136.32 13.8C136.524 13.2489 136.853 12.7645 137.306 12.3467C137.769 11.92 138.386 11.5645 139.16 11.28C139.693 11.0845 140.329 10.9111 141.066 10.76C141.804 10.6089 142.64 10.4667 143.573 10.3334C144.506 10.1911 145.533 10.0356 146.653 9.8667L145.346 10.5867C145.346 9.73336 145.142 9.1067 144.733 8.7067C144.324 8.3067 143.64 8.1067 142.68 8.1067C142.146 8.1067 141.591 8.23559 141.013 8.49336C140.435 8.75114 140.031 9.20892 139.8 9.8667L136.52 8.8267C136.884 7.63559 137.569 6.6667 138.573 5.92003C139.577 5.17337 140.946 4.80004 142.68 4.80004C143.951 4.80004 145.08 4.99559 146.066 5.3867C147.053 5.77781 147.8 6.45337 148.306 7.41337C148.591 7.9467 148.76 8.48003 148.813 9.01336C148.866 9.5467 148.893 10.1423 148.893 10.8V19.6H145.72V16.64L146.173 17.2534C145.471 18.2222 144.711 18.9245 143.893 19.36C143.084 19.7867 142.057 20 140.813 20ZM141.586 17.1467C142.253 17.1467 142.813 17.0311 143.266 16.8C143.729 16.56 144.093 16.2889 144.36 15.9867C144.635 15.6845 144.822 15.4311 144.92 15.2267C145.106 14.8356 145.213 14.3822 145.24 13.8667C145.275 13.3422 145.293 12.9067 145.293 12.56L146.36 12.8267C145.284 13.0045 144.413 13.1556 143.746 13.28C143.08 13.3956 142.542 13.5022 142.133 13.6C141.724 13.6978 141.364 13.8045 141.053 13.92C140.697 14.0622 140.409 14.2178 140.186 14.3867C139.973 14.5467 139.813 14.7245 139.706 14.92C139.609 15.1156 139.56 15.3334 139.56 15.5734C139.56 15.9022 139.64 16.1867 139.8 16.4267C139.969 16.6578 140.204 16.8356 140.506 16.96C140.809 17.0845 141.169 17.1467 141.586 17.1467Z" fill="#FFAA00"/>
<path d="M159.333 19.6C158.338 19.7867 157.36 19.8667 156.4 19.84C155.449 19.8222 154.595 19.6578 153.84 19.3467C153.093 19.0267 152.524 18.5156 152.133 17.8134C151.778 17.1556 151.591 16.4889 151.573 15.8134C151.555 15.1289 151.546 14.3556 151.546 13.4934V1.20004H155.173V13.28C155.173 13.84 155.178 14.3467 155.186 14.8C155.204 15.2445 155.298 15.6 155.466 15.8667C155.786 16.3734 156.298 16.6489 157 16.6934C157.702 16.7378 158.48 16.7022 159.333 16.5867V19.6ZM149.093 8.00003V5.20003H159.333V8.00003H149.093Z" fill="#FFAA00"/>
</svg>
