<svg width="100" height="101" viewBox="0 0 100 101" fill="none" xmlns="http://www.w3.org/2000/svg">
<path fill-rule="evenodd" clip-rule="evenodd" d="M46.2747 39.6209C46.691 42.6928 46.1526 47.2965 46.2747 50.7552C46.3614 53.7644 46.8846 57.3333 47.7256 60.2246C47.7426 60.2832 47.9187 60.9179 47.9693 60.9431C47.9885 61.2695 48.9116 63.495 49.1617 63.9938L50.2313 65.9587C50.5289 66.4607 50.9771 67.1153 51.3347 67.5934L52.1443 68.5847C52.2162 68.6567 52.2299 68.6796 52.2938 68.756C52.5202 69.0268 53.391 69.8395 53.7033 70.0848C54.0917 70.3897 54.5281 70.7109 54.9584 70.9513C55.346 71.1678 55.7576 71.3844 56.1805 71.5547C56.8828 71.8375 58.5829 73.3165 58.97 72.169C60.4103 67.8342 57.6874 66.9414 56.5784 65.275C50.2049 55.688 58.652 38.0333 46.861 35.4973C45.8919 35.3915 44.7927 35.1013 43.776 36.1112C44.5621 36.1922 46.2642 38.444 46.2747 39.6209Z" fill="black"/>
<path fill-rule="evenodd" clip-rule="evenodd" d="M44.9826 40.334C45.4016 49.2556 42.3029 63.3607 51.7714 70.7979C52.9012 71.6853 58.7935 74.2444 59.0917 71.7769C44.1679 60.3066 56.9749 40.3806 46.8599 35.4971C45.9138 35.6083 45.1418 35.5714 43.4299 36.8054C44.216 36.8864 44.6351 37.8746 44.9826 40.334Z" fill="black"/>
<path fill-rule="evenodd" clip-rule="evenodd" d="M35.0863 61.6316L35.2943 60.8773C35.3709 60.6095 35.4316 60.3665 35.5085 60.1047L36.7116 55.8805C36.7508 55.7455 36.7883 55.6401 36.8231 55.4987L37.0445 54.7332C37.2453 54.1166 37.5223 53.0895 37.7098 52.4382C38.1495 50.9105 38.611 49.3704 39.0283 47.836L39.8939 44.7544C40.3045 43.3467 41.3053 39.789 41.8128 38.7791C42.555 37.0712 44.6901 35.6134 46.861 35.4974C43.6378 34.5629 40.5516 34.9906 38.9068 35.5029C38.8272 35.5277 38.7552 35.5551 38.6828 35.5751C38.3957 35.6543 38.1312 35.7585 37.8633 35.8658C37.3392 36.0754 36.8483 36.3292 36.3676 36.615C36.1294 36.7566 35.9156 36.9073 35.6924 37.0745C35.472 37.2397 35.2835 37.3932 35.0929 37.5849C34.9898 37.6886 34.8956 37.7397 34.7976 37.8572L34.5291 38.1561C34.1904 38.5899 33.8804 39.0053 33.6307 39.5027C33.3739 40.014 33.1826 40.5729 32.9984 41.1152C32.806 41.6814 32.6093 42.2112 32.4124 42.7742C32.3623 42.9179 32.3209 43.0499 32.2771 43.1817C31.7615 44.7288 31.2001 46.2602 30.7229 47.8195C30.5497 48.3854 30.3234 48.9333 30.1627 49.5043C29.9827 50.1446 29.6956 50.9511 29.477 51.6062C29.3386 52.0208 28.7968 53.6429 28.6992 53.9352C28.8426 62.6508 32.8322 64.2197 34.3851 64.3759L35.0863 61.6316Z" fill="black"/>
<path fill-rule="evenodd" clip-rule="evenodd" d="M32.4659 61.2671L32.674 60.5127C32.7504 60.2449 32.8112 60.002 32.8882 59.7402L34.0911 55.5159C34.1305 55.381 34.1678 55.2755 34.2027 55.1342L34.4241 54.3687C34.6249 53.7521 34.902 52.725 35.0894 52.0737C35.5292 50.5459 35.9907 49.0058 36.4079 47.4715L37.2736 44.3899C37.6842 42.9821 38.6849 39.4245 39.1925 38.4145C41.5683 34.6347 46.8885 35.5022 46.861 35.4974C43.6378 34.5629 40.5516 34.9906 38.9068 35.5029C38.8272 35.5277 38.7552 35.5551 38.6828 35.5751C38.3957 35.6543 38.1312 35.7585 37.8633 35.8658C37.3392 36.0754 36.8483 36.3292 36.3676 36.615C36.1294 36.7566 35.9156 36.9073 35.6924 37.0745C35.472 37.2397 35.2835 37.3932 35.0929 37.5849C34.9898 37.6886 34.8956 37.7397 34.7976 37.8572L34.5291 38.1561C34.1904 38.5899 33.8804 39.0053 33.6307 39.5027C33.3739 40.014 33.1826 40.5729 32.9984 41.1152C32.8059 41.6814 32.6093 42.2112 32.4124 42.7742C32.3623 42.9179 32.3209 43.0499 32.2771 43.1817C31.7615 44.7288 31.2001 46.2602 30.7229 47.8195C30.5497 48.3854 30.3234 48.9333 30.1627 49.5043C29.9827 50.1446 29.6956 50.9511 29.477 51.6062C29.3386 52.0208 28.7968 53.6429 28.6992 53.9352C28.8426 62.6508 30.2118 63.8552 31.7648 64.0114L32.4659 61.2671Z" fill="black"/>
<path fill-rule="evenodd" clip-rule="evenodd" d="M28.925 37.5785C28.394 35.454 27.4982 33.7594 25.8973 32.2184L25.5777 31.9462C25.191 31.6213 24.7913 31.3342 24.3534 31.0733L23.7773 30.7614C23.5088 30.6272 23.2242 30.5004 22.9334 30.3964C21.6544 29.9393 19.0617 29.5746 17.6957 29.8125C17.0744 29.9208 17.622 30.2389 17.2948 30.6601C16.8922 31.1787 16.7503 31.7104 16.7383 32.3901V32.5448C16.7432 32.6998 16.7685 32.9155 16.7831 33.0437C16.9198 34.2475 17.1838 35.4055 17.4351 36.5855C17.5015 36.8965 17.5759 37.2277 17.6557 37.549C17.7342 37.8647 17.8048 38.1937 17.8879 38.5259C18.0516 39.1804 18.1931 39.796 18.3565 40.45C18.8388 42.3793 19.2498 44.356 19.7038 46.2817L21.7154 55.0261C21.7867 55.362 21.8748 55.687 21.9414 56.0087C22.0087 56.3329 22.0861 56.6534 22.1655 56.9689C22.2467 57.2915 22.3196 57.61 22.4024 57.9409C22.6157 58.794 23.1503 60.9122 23.473 61.6806C23.4862 61.773 23.5435 61.8866 23.5747 61.9736C23.6124 62.0784 23.6438 62.1696 23.6881 62.2798C23.7322 62.3893 23.7579 62.4735 23.8041 62.5831C23.8507 62.6936 23.8977 62.7941 23.9382 62.8931C24.1382 63.382 24.6821 64.3405 24.9825 64.809L25.4294 65.4478C25.4701 65.4981 25.4874 65.5174 25.5277 65.5715C25.5888 65.654 25.6462 65.7303 25.7125 65.8061L26.008 66.1519C26.7357 66.9783 27.5552 68.0493 28.5991 68.3948C29.2542 68.5827 33.361 68.5443 34.3959 67.2812C34.6968 66.8607 34.6516 66.4589 34.5188 65.8992C34.2827 64.8676 34.3636 64.7245 34.3851 64.3759C30.9712 63.4418 30.1547 56.8896 30.0372 53.9325C29.8402 48.9788 30.3235 43.0146 28.925 37.5785Z" fill="black"/>
<path fill-rule="evenodd" clip-rule="evenodd" d="M20.342 29.8432C19.0351 29.6987 18.3658 29.6797 17.5283 29.8389C16.907 29.9471 16.2838 30.239 15.9566 30.6601C15.5539 31.1787 15.4121 31.7104 15.4 32.3901V32.5448C15.405 32.6999 15.4303 32.9155 15.4449 33.0438C15.5815 34.2475 15.8456 35.4055 16.0969 36.5855C16.1632 36.8965 16.2377 37.2278 16.3175 37.549C16.396 37.8647 16.4666 38.1938 16.5496 38.5259C16.7134 39.1805 16.8549 39.7961 17.0183 40.4501C17.5006 42.3793 17.9116 44.3561 18.3655 46.2817L20.3771 55.0262C20.4485 55.3621 20.5366 55.6871 20.6032 56.0088C20.6705 56.3329 20.7478 56.6534 20.8273 56.969C20.9084 57.2916 20.9814 57.61 21.0642 57.9409C21.2775 58.7941 21.8121 60.9123 22.1348 61.6807C22.1479 61.773 22.2053 61.8867 22.2366 61.9737C22.2743 62.0784 22.3057 62.1697 22.3499 62.2798C22.3939 62.3893 22.4197 62.4735 22.4659 62.5832C22.5125 62.6937 22.5594 62.7942 22.5999 62.8932C22.7999 63.3821 23.3438 64.3405 23.6443 64.809L24.0912 65.4479C24.1319 65.4982 24.1492 65.5174 24.1894 65.5715C24.2506 65.654 24.3081 65.7304 24.3742 65.8062L24.6698 66.152C25.4805 67.0726 26.7657 68.0458 28.1872 68.3027C31.0985 68.829 34.3143 68.5437 34.5427 67.0153C20.0036 66.3789 30.9152 39.45 20.342 29.8432Z" fill="black"/>
<path fill-rule="evenodd" clip-rule="evenodd" d="M75.8023 46.5935C79.727 48.0349 75.7142 56.8261 74.7236 59.0974C72.5053 64.1843 67.2436 69.5 64.506 70.538C63.9483 70.7585 63.4914 71.0575 63.3275 71.649C62.9333 73.0692 64.2007 73.3303 65.3149 73.3334C72.3121 73.3334 79.8951 66.1883 83.1982 60.1794C85.1682 56.5956 85.9253 52.5091 84.0717 48.8079C82.3856 45.4407 77.4494 43.3476 73.9776 43.3476C72.3786 43.3476 71.5195 43.8361 71.4363 44.5601C71.2637 46.063 71.8387 47.4954 72.8929 47.9336C74.1239 48.4452 75.7336 47.7017 75.8023 46.5935Z" fill="black"/>
<path fill-rule="evenodd" clip-rule="evenodd" d="M72.7532 47.8684C74.2147 48.5115 75.8734 47.7347 75.8568 46.1778C75.8387 44.4936 79.9996 43.969 81.7624 48.1032C85.6671 57.2606 74.2644 70.319 65.0223 70.8746C63.7746 70.9495 63.2752 72.0709 63.254 72.1568C63.1768 73.5585 65.4308 73.5016 66.8648 73.4684C73.862 73.4684 81.2489 67.2052 84.5519 61.1966C86.5218 57.6127 87.4752 52.6441 85.6216 48.9429C84.6346 46.9719 82.7877 45.2474 80.5056 44.2513C78.5704 43.4066 76.4426 42.9888 74.7333 43.0102C72.85 43.034 71.4743 43.5909 71.4225 44.6973C71.3375 46.5167 71.9374 47.4884 72.7532 47.8684Z" fill="black"/>
<path fill-rule="evenodd" clip-rule="evenodd" d="M68.5588 58.5584C68.8712 57.8561 69.2909 54.7063 69.4473 53.9341C69.5216 53.5665 69.6094 53.1776 69.7228 52.8375C69.95 52.1565 70.2516 51.5519 70.4368 50.7833C70.5236 50.4227 70.6073 50.0009 70.6044 49.5548C70.6031 49.3425 70.6479 49.1503 70.6278 48.9067C70.5956 48.5186 70.5809 47.2711 70.5809 46.8593C70.5809 46.06 70.4947 45.3305 69.6597 45.0121C69.2598 44.8596 68.9273 44.88 68.4385 44.9093C67.1327 44.9881 65.0778 46.0126 63.9472 46.6768C63.5164 46.93 63.1044 47.2122 62.695 47.4948C62.1841 47.8474 61.2648 48.622 60.8594 49.1255C60.8064 49.1914 60.763 49.2335 60.7039 49.307C60.646 49.379 60.5947 49.4392 60.5426 49.5068C59.4545 50.9231 59.4108 52.2062 59.6935 53.9434C59.8321 54.795 60.3244 55.6623 60.8738 56.2053L61.921 57.2523C62.0425 57.3737 62.1461 57.4829 62.2696 57.6019L63.2729 58.4989C63.3412 58.552 63.3239 58.5281 63.3834 58.6063C63.4708 58.6526 63.5863 58.7602 63.6691 58.8262C63.7758 58.9112 63.8666 58.9874 63.9783 59.0707C64.3727 59.3649 64.8462 59.6993 65.2932 59.9223C65.419 59.9852 65.5273 60.0461 65.6492 60.0958C65.7826 60.1502 65.9236 60.1974 66.0582 60.2405C67.5587 60.7212 68.2421 59.5958 68.5588 58.5584Z" fill="black"/>
<path fill-rule="evenodd" clip-rule="evenodd" d="M68.5588 58.5584C68.8712 57.8561 69.291 54.7063 69.4473 53.9341C69.5216 53.5665 69.6094 53.1776 69.7228 52.8375C69.95 52.1565 70.2516 51.5519 70.4368 50.7833C70.5236 50.4227 70.6073 50.0009 70.6044 49.5548C70.6031 49.3425 70.6479 49.1503 70.6278 48.9067C70.5956 48.5186 70.5809 47.2711 70.5809 46.8593C70.5809 46.06 70.4947 45.3305 69.6597 45.0121C69.2598 44.8596 68.9273 44.88 68.4385 44.9093C60.2026 47.7369 62.0249 58.4812 66.0582 60.2405C67.5587 60.7212 68.2421 59.5958 68.5588 58.5584Z" fill="black"/>
<path fill-rule="evenodd" clip-rule="evenodd" d="M71.9236 32.1067C72.6079 32.1067 72.6881 33.713 72.7576 34.1933C72.9421 35.4677 73.3178 36.6294 74.0714 37.6104C75.5381 39.5188 78.4782 40.1981 80.5787 38.9518C81.6915 38.2914 82.494 37.3405 82.8665 36.0983C83.5453 33.8345 82.4466 31.6388 80.8489 30.1088C78.8104 28.3296 74.9977 28.1577 72.4356 28.8776C71.3525 29.1819 70.5198 29.5911 69.6584 30.2277C69.2485 30.5306 68.396 31.16 68.3674 31.6818C68.307 32.7849 71.1573 32.1067 71.9236 32.1067Z" fill="black"/>
<path fill-rule="evenodd" clip-rule="evenodd" d="M71.9236 32.1068C72.6079 32.1068 72.6882 33.713 72.7576 34.1933C72.9421 35.4677 73.3178 36.6294 74.0714 37.6104C75.5381 39.5189 79.12 40.7345 81.8148 37.9583C75.5209 36.6974 78.0347 31.4381 74.2915 29.7775C73.22 29.3021 70.782 29.3974 69.6584 30.2277C69.2485 30.5306 68.396 31.16 68.3674 31.6818C68.307 32.785 71.1573 32.1068 71.9236 32.1068Z" fill="black"/>
<circle cx="50" cy="50.9802" r="48" stroke="black" stroke-width="4"/>
</svg>
