<svg width="750" height="829" viewBox="0 0 750 829" fill="none" xmlns="http://www.w3.org/2000/svg">
<path fill-rule="evenodd" clip-rule="evenodd" d="M375 545C521.355 545 640 426.355 640 280C640 133.645 521.355 15 375 15C228.645 15 110 133.645 110 280C110 426.355 228.645 545 375 545ZM375 560C529.64 560 655 434.64 655 280C655 125.36 529.64 0 375 0C220.36 0 95 125.36 95 280C95 434.64 220.36 560 375 560Z" fill="#2A6834"/>
<path d="M625 280C625 418.071 513.071 530 375 530C236.929 530 125 418.071 125 280C125 141.929 236.929 30 375 30C513.071 30 625 141.929 625 280Z" fill="#97C63D"/>
<path fill-rule="evenodd" clip-rule="evenodd" d="M375 515C504.787 515 610 409.787 610 280C610 150.213 504.787 45 375 45C245.213 45 140 150.213 140 280C140 409.787 245.213 515 375 515ZM375 530C513.071 530 625 418.071 625 280C625 141.929 513.071 30 375 30C236.929 30 125 141.929 125 280C125 418.071 236.929 530 375 530Z" fill="#2A6834"/>
<path d="M616.5 215C617.031 216.928 560.158 231 541.158 183.5C528.606 208.604 486.158 232 443.658 206.5C429.158 247 383.078 263.515 363.658 263.5C322.454 263.468 293.658 240.5 281.656 221.5C243.657 278 128.301 257.307 134.152 215.5C141.5 163 218.154 30 374.152 30C546.5 30 601.5 160.5 616.5 215Z" fill="#2A6834"/>
<path d="M296 359C296 372.807 284.807 384 271 384C257.193 384 246 372.807 246 359C246 345.193 257.193 334 271 334C284.807 334 296 345.193 296 359Z" fill="#2A6834"/>
<path d="M504 359C504 372.807 492.807 384 479 384C465.193 384 454 372.807 454 359C454 345.193 465.193 334 479 334C492.807 334 504 345.193 504 359Z" fill="#2A6834"/>
<path d="M296 354H454V364H296V354Z" fill="#2A6834"/>
<path d="M79 237C79 231.477 83.4772 227 89 227H109C114.523 227 119 231.477 119 237V317C119 322.523 114.523 327 109 327H89C83.4772 327 79 322.523 79 317V237Z" fill="#2A6834"/>
<path d="M630 237C630 231.477 634.477 227 640 227H660C665.523 227 670 231.477 670 237V317C670 322.523 665.523 327 660 327H640C634.477 327 630 322.523 630 317V237Z" fill="#2A6834"/>
<path d="M365 671V580.262C365 580.262 309.621 581.771 233.348 547.183C174.139 520.332 141.972 476 141.972 476C141.972 476 0.0013493 510.126 2.56999e-08 578.262C-0.00160864 659.5 75.5173 671 75.5173 671H365Z" fill="#2A6834"/>
<path d="M385 671V580.262C385 580.262 440.379 581.771 516.652 547.183C575.861 520.332 608.028 476 608.028 476C608.028 476 749.999 510.126 750 578.262C750.002 659.5 674.483 671 674.483 671H385Z" fill="#97C63D"/>
<path d="M151.4 800.2C145.4 800.2 139.88 798.96 134.84 796.48C129.88 794 125.84 790.48 122.72 785.92L131.72 777.28C134.28 780.4 137.4 782.96 141.08 784.96C144.84 786.96 148.44 787.96 151.88 787.96C155.96 787.96 159.2 787 161.6 785.08C164.08 783.16 165.32 780.64 165.32 777.52C165.32 775.28 164.92 773.44 164.12 772C163.32 770.48 161.84 769 159.68 767.56C157.52 766.04 154.2 764.16 149.72 761.92C143.8 759.04 139.12 756.32 135.68 753.76C132.24 751.2 129.72 748.48 128.12 745.6C126.52 742.72 125.72 739.4 125.72 735.64C125.72 731.32 126.84 727.52 129.08 724.24C131.4 720.88 134.6 718.32 138.68 716.56C142.76 714.72 147.48 713.8 152.84 713.8C158.68 713.8 163.88 714.96 168.44 717.28C173.08 719.6 176.48 722.76 178.64 726.76L168.92 733.96C167 731.48 164.68 729.56 161.96 728.2C159.32 726.76 156.48 726.04 153.44 726.04C149.52 726.04 146.44 726.88 144.2 728.56C142.04 730.16 140.96 732.44 140.96 735.4C140.96 737.24 141.44 738.84 142.4 740.2C143.44 741.48 145.24 742.92 147.8 744.52C150.44 746.12 154.44 748.2 159.8 750.76C167.4 754.36 172.72 758.12 175.76 762.04C178.88 765.88 180.44 770.72 180.44 776.56C180.44 781.28 179.24 785.44 176.84 789.04C174.44 792.56 171.04 795.32 166.64 797.32C162.24 799.24 157.16 800.2 151.4 800.2ZM198.113 730.84C195.393 730.84 193.193 730.12 191.513 728.68C189.913 727.16 189.113 725.16 189.113 722.68C189.113 720.12 189.913 718.12 191.513 716.68C193.193 715.16 195.393 714.4 198.113 714.4C200.833 714.4 202.993 715.16 204.593 716.68C206.273 718.12 207.113 720.12 207.113 722.68C207.113 725.16 206.273 727.16 204.593 728.68C202.993 730.12 200.833 730.84 198.113 730.84ZM191.273 739H204.953V799H191.273V739ZM218.274 754.6C218.274 747.4 218.074 742.2 217.674 739H229.674C230.074 742.44 230.274 745.96 230.274 749.56H230.514C231.874 745.88 234.234 743 237.594 740.92C240.954 738.84 244.874 737.8 249.354 737.8C253.674 737.8 257.354 738.8 260.394 740.8C263.434 742.72 265.474 745.4 266.514 748.84C268.114 745.4 270.554 742.72 273.834 740.8C277.194 738.8 280.954 737.8 285.114 737.8C291.754 737.8 296.954 739.92 300.714 744.16C304.474 748.4 306.354 754.32 306.354 761.92V799H292.914V763.36C292.914 758.72 291.914 755.12 289.914 752.56C287.914 750 285.114 748.72 281.514 748.72C277.754 748.72 274.714 750.08 272.394 752.8C270.154 755.44 269.034 759 269.034 763.48V799H255.594V763.84C255.594 758.96 254.634 755.24 252.714 752.68C250.874 750.04 248.194 748.72 244.674 748.72C240.994 748.72 237.914 750.16 235.434 753.04C232.954 755.92 231.714 759.52 231.714 763.84V799H218.274V754.6ZM318.004 754.6C318.004 749.8 317.804 744.6 317.404 739H330.244C330.484 741.64 330.604 744.44 330.604 747.4H330.844C332.684 744.36 335.244 742 338.524 740.32C341.884 738.64 345.524 737.8 349.444 737.8C357.124 737.8 363.164 740.6 367.564 746.2C371.964 751.72 374.164 759.32 374.164 769C374.164 778.68 371.924 786.32 367.444 791.92C362.964 797.44 356.844 800.2 349.084 800.2C345.164 800.2 341.684 799.52 338.644 798.16C335.604 796.72 333.364 794.76 331.924 792.28H331.564V828.04H318.004V754.6ZM346.324 790C350.804 790 354.284 788.12 356.764 784.36C359.324 780.6 360.604 775.36 360.604 768.64C360.604 762 359.404 756.96 357.004 753.52C354.604 750.08 351.084 748.36 346.444 748.36C342.044 748.36 338.444 749.72 335.644 752.44C332.924 755.16 331.564 758.64 331.564 762.88V774.76C331.564 779.16 332.964 782.8 335.764 785.68C338.564 788.56 342.084 790 346.324 790ZM436.198 774.04H393.958C395.318 783.8 400.638 788.68 409.918 788.68C413.438 788.68 416.558 788.04 419.278 786.76C421.998 785.48 424.518 783.48 426.838 780.76L434.278 787.84C431.958 791.6 428.518 794.6 423.958 796.84C419.478 799.08 414.558 800.2 409.198 800.2C399.998 800.2 392.838 797.48 387.718 792.04C382.598 786.52 380.038 778.88 380.038 769.12C380.038 759.36 382.598 751.72 387.718 746.2C392.918 740.6 399.998 737.8 408.958 737.8C417.518 737.8 424.198 740.56 428.998 746.08C433.798 751.6 436.198 759.24 436.198 769V774.04ZM423.118 763.84C423.118 759.12 421.838 755.44 419.278 752.8C416.718 750.16 413.158 748.84 408.598 748.84C404.438 748.84 401.078 750.24 398.518 753.04C396.038 755.76 394.478 759.6 393.838 764.56H423.118V763.84ZM460.38 800.2C455.5 800.2 451.78 798.88 449.22 796.24C446.74 793.52 445.5 789.56 445.5 784.36V709.96H459.18V784.48C459.18 786.64 459.62 788.2 460.5 789.16C461.38 790.04 462.82 790.48 464.82 790.48C466.82 790.48 469.02 789.96 471.42 788.92L473.46 796.48C470.02 798.96 465.66 800.2 460.38 800.2ZM507.158 715H534.038C543.718 715 551.038 717.24 555.998 721.72C561.038 726.12 563.558 732.64 563.558 741.28C563.558 750.48 560.958 757.48 555.758 762.28C550.638 767 543.198 769.36 533.438 769.36H522.278V799H507.158V715ZM534.758 757.12C539.318 757.12 542.798 755.84 545.198 753.28C547.598 750.64 548.798 746.84 548.798 741.88C548.798 737.08 547.518 733.44 544.958 730.96C542.478 728.48 538.798 727.24 533.918 727.24H522.278V757.12H534.758ZM597.281 800.2C587.841 800.2 580.401 797.44 574.961 791.92C569.601 786.32 566.921 778.68 566.921 769C566.921 759.32 569.601 751.72 574.961 746.2C580.401 740.6 587.841 737.8 597.281 737.8C606.721 737.8 614.121 740.6 619.481 746.2C624.921 751.72 627.641 759.32 627.641 769C627.641 778.68 624.921 786.32 619.481 791.92C614.121 797.44 606.721 800.2 597.281 800.2ZM597.281 790C602.481 790 606.561 788.16 609.521 784.48C612.481 780.72 613.961 775.56 613.961 769C613.961 762.44 612.481 757.32 609.521 753.64C606.561 749.88 602.481 748 597.281 748C592.081 748 588.001 749.88 585.041 753.64C582.081 757.32 580.601 762.44 580.601 769C580.601 775.56 582.081 780.72 585.041 784.48C588.001 788.16 592.081 790 597.281 790ZM651.833 800.2C646.953 800.2 643.233 798.88 640.673 796.24C638.193 793.52 636.953 789.56 636.953 784.36V709.96H650.633V784.48C650.633 786.64 651.073 788.2 651.953 789.16C652.833 790.04 654.273 790.48 656.273 790.48C658.273 790.48 660.473 789.96 662.873 788.92L664.913 796.48C661.473 798.96 657.113 800.2 651.833 800.2Z" fill="#2A6834"/>
</svg>
