<svg width="512" height="512" viewBox="0 0 512 512" fill="none" xmlns="http://www.w3.org/2000/svg">
<path d="M0 0V512H512V0H0ZM353.2 347.368C357.334 359.163 359.402 365.06 358.035 370.778C356.669 376.495 352.158 380.821 343.137 389.471L283.685 446.481C270.588 459.04 264.04 465.319 256 465.319C247.96 465.319 241.412 459.04 228.315 446.481L168.863 389.471C159.842 380.821 155.331 376.495 153.965 370.778C152.598 365.06 154.666 359.163 158.8 347.368L216.965 181.441C220.41 171.614 222.132 166.701 221.379 161.772C220.627 156.842 217.517 152.667 211.297 144.315L197.874 126.293C177.098 98.3989 166.71 84.4518 172.246 73.4259C177.782 62.4 195.172 62.4 229.953 62.4H282.006C316.759 62.4 334.136 62.4 339.673 73.4193C345.211 84.4386 334.842 98.3822 314.104 126.269L300.679 144.321C294.471 152.67 291.367 156.844 290.616 161.77C289.866 166.695 291.587 171.605 295.029 181.423L353.2 347.368Z" fill="#AF2330"/>
</svg>
