<?xml version="1.0" encoding="iso-8859-1"?>
<!-- Uploaded to: SVG Repo, www.svgrepo.com, Generator: SVG Repo Mixer Tools -->
<svg fill="#000000" height="800px" width="800px" version="1.1" id="Layer_1" xmlns="http://www.w3.org/2000/svg" xmlns:xlink="http://www.w3.org/1999/xlink" 
	 viewBox="0 0 512 512" xml:space="preserve">
<g transform="translate(0 -1)">
	<g>
		<g>
			<path d="M415.411,1H96.589C76.234,1,59.733,17.501,59.733,37.855v438.289c0,20.354,16.501,36.855,36.855,36.855h318.822
				c20.354,0,36.855-16.501,36.855-36.855V37.855C452.267,17.501,435.766,1,415.411,1z M435.2,476.145
				c0,10.929-8.86,19.789-19.789,19.789H96.589c-10.929,0-19.789-8.86-19.789-19.789V37.855c0-10.929,8.86-19.789,19.789-19.789
				h318.822c10.929,0,19.789,8.86,19.789,19.789V476.145z"/>
			<path d="M401.065,35.132H110.932c-4.713,0-8.533,3.82-8.533,8.533v332.8c0,4.713,3.821,8.533,8.533,8.533h290.133
				c4.713,0,8.533-3.82,8.533-8.533v-332.8C409.598,38.952,405.778,35.132,401.065,35.132z M392.532,367.932H119.465V52.198h273.067
				V367.932z"/>
			<path d="M145.065,342.333h221.867c4.713,0,8.533-3.82,8.533-8.533V104.945c0-14.987-12.158-27.145-27.145-27.145H163.676
				c-14.987,0-27.145,12.158-27.145,27.145V333.8C136.532,338.513,140.352,342.333,145.065,342.333z M230.398,325.265v-17.067h51.2
				v17.067H230.398z M153.598,104.945c0-5.561,4.517-10.078,10.078-10.078H348.32c5.561,0,10.078,4.517,10.078,10.078v220.322
				h-59.733v-25.602c0-4.713-3.821-8.533-8.533-8.533h-68.267c-4.713,0-8.533,3.821-8.533,8.533v25.602h-59.733V104.945z"/>
			<path d="M221.865,257c0-14.142-11.458-25.6-25.6-25.6s-25.6,11.458-25.6,25.6c0,14.142,11.458,25.6,25.6,25.6
				S221.865,271.142,221.865,257z M187.732,257c0-4.716,3.817-8.533,8.533-8.533s8.533,3.817,8.533,8.533
				c0,4.717-3.817,8.533-8.533,8.533S187.732,261.717,187.732,257z"/>
			<path d="M315.732,231.4c-14.142,0-25.6,11.458-25.6,25.6c0,14.142,11.458,25.6,25.6,25.6s25.6-11.458,25.6-25.6
				C341.332,242.858,329.874,231.4,315.732,231.4z M315.732,265.533c-4.716,0-8.533-3.817-8.533-8.533
				c0-4.716,3.817-8.533,8.533-8.533s8.533,3.817,8.533,8.533C324.265,261.717,320.448,265.533,315.732,265.533z"/>
			<path d="M179.198,197.265h153.6c4.713,0,8.533-3.82,8.533-8.533v-68.267c0-4.713-3.82-8.533-8.533-8.533h-153.6
				c-4.713,0-8.533,3.82-8.533,8.533v68.267C170.665,193.445,174.485,197.265,179.198,197.265z M187.732,128.998h136.533v51.2
				H187.732V128.998z"/>
			<path d="M298.665,427.667c4.713,0,8.533-3.82,8.533-8.533s-3.82-8.533-8.533-8.533h-85.333c-4.713,0-8.533,3.82-8.533,8.533
				s3.82,8.533,8.533,8.533H298.665z"/>
			<path d="M341.332,453.267H170.665c-4.713,0-8.533,3.82-8.533,8.533s3.821,8.533,8.533,8.533h170.667
				c4.713,0,8.533-3.82,8.533-8.533S346.044,453.267,341.332,453.267z"/>
		</g>
	</g>
</g>
</svg>