<?xml version="1.0" encoding="iso-8859-1"?>
<!-- Uploaded to: SVG Repo, www.svgrepo.com, Generator: SVG Repo Mixer Tools -->
<svg height="512px" width="512px" version="1.1" id="Layer_1" xmlns="http://www.w3.org/2000/svg" xmlns:xlink="http://www.w3.org/1999/xlink" 
	 viewBox="0 0 512 512" xml:space="preserve">
<g transform="translate(1)">
	<path style="fill:#FFE100;" d="M414.573,503.467H95.427c-15.36,0-28.16-12.8-28.16-28.16V36.693c0-15.36,12.8-28.16,28.16-28.16
		h319.147c15.36,0,28.16,12.8,28.16,28.16v438.613C442.733,490.667,429.933,503.467,414.573,503.467"/>
	<path style="fill:#FFA800;" d="M414.573,8.533h-25.6c15.36,0,28.16,12.8,28.16,28.16v438.613c0,15.36-12.8,28.16-28.16,28.16h25.6
		c15.36,0,28.16-12.8,28.16-28.16V36.693C442.733,21.333,429.933,8.533,414.573,8.533"/>
	<path style="fill:#FFFFFF;" d="M95.427,8.533h25.6c-15.36,0-28.16,12.8-28.16,28.16v438.613c0,15.36,12.8,28.16,28.16,28.16h-25.6
		c-15.36,0-28.16-12.8-28.16-28.16V36.693C67.267,21.333,80.067,8.533,95.427,8.533"/>
	<polygon style="fill:#63D3FD;" points="109.933,375.467 400.067,375.467 400.067,42.667 109.933,42.667 	"/>
	<path style="fill:#FDCC00;" d="M365.933,332.8H144.067V104.107c0-10.24,8.533-18.773,18.773-18.773h184.32
		c10.24,0,18.773,8.533,18.773,18.773V332.8z"/>
	<g>
		<path style="fill:#63D3FD;" d="M212.333,256c0,9.387-7.68,17.067-17.067,17.067S178.2,265.387,178.2,256
			c0-9.387,7.68-17.067,17.067-17.067S212.333,246.613,212.333,256"/>
		<path style="fill:#63D3FD;" d="M331.8,256c0,9.387-7.68,17.067-17.067,17.067c-9.387,0-17.067-7.68-17.067-17.067
			c0-9.387,7.68-17.067,17.067-17.067C324.12,238.933,331.8,246.613,331.8,256"/>
		<polygon style="fill:#63D3FD;" points="178.2,187.733 331.8,187.733 331.8,119.467 178.2,119.467 		"/>
		<polygon style="fill:#63D3FD;" points="220.867,332.8 289.133,332.8 289.133,298.667 220.867,298.667 		"/>
	</g>
	<path d="M414.573,512H95.427c-20.48,0-36.693-16.213-36.693-36.693V36.693C58.733,16.213,74.947,0,95.427,0h319.147
		c20.48,0,36.693,16.213,36.693,36.693v438.613C451.267,495.787,435.053,512,414.573,512z M95.427,17.067
		C84.333,17.067,75.8,25.6,75.8,36.693v438.613c0,11.093,8.533,19.627,19.627,19.627h319.147c11.093,0,19.627-8.533,19.627-19.627
		V36.693c0-11.093-8.533-19.627-19.627-19.627H95.427z"/>
	<path d="M400.067,384H109.933c-5.12,0-8.533-3.413-8.533-8.533v-332.8c0-5.12,3.413-8.533,8.533-8.533h290.133
		c5.12,0,8.533,3.413,8.533,8.533v332.8C408.6,380.587,405.187,384,400.067,384z M118.467,366.933h273.067V51.2H118.467V366.933z"/>
	<path d="M365.933,341.333H144.067c-5.12,0-8.533-3.413-8.533-8.533V104.107c0-15.36,11.947-27.307,27.307-27.307h184.32
		c15.36,0,27.307,11.947,27.307,27.307V332.8C374.467,337.92,371.053,341.333,365.933,341.333z M152.6,324.267h204.8v-220.16
		c0-5.973-4.267-10.24-10.24-10.24H162.84c-5.973,0-10.24,4.267-10.24,10.24V324.267z"/>
	<path d="M195.267,281.6c-14.507,0-25.6-11.093-25.6-25.6c0-14.507,11.093-25.6,25.6-25.6s25.6,11.093,25.6,25.6
		C220.867,270.507,209.773,281.6,195.267,281.6z M195.267,247.467c-5.12,0-8.533,3.413-8.533,8.533c0,5.12,3.413,8.533,8.533,8.533
		c5.12,0,8.533-3.413,8.533-8.533C203.8,250.88,200.387,247.467,195.267,247.467z"/>
	<path d="M314.733,281.6c-14.507,0-25.6-11.093-25.6-25.6c0-14.507,11.093-25.6,25.6-25.6c14.507,0,25.6,11.093,25.6,25.6
		C340.333,270.507,329.24,281.6,314.733,281.6z M314.733,247.467c-5.12,0-8.533,3.413-8.533,8.533c0,5.12,3.413,8.533,8.533,8.533
		c5.12,0,8.533-3.413,8.533-8.533C323.267,250.88,319.853,247.467,314.733,247.467z"/>
	<path d="M331.8,196.267H178.2c-5.12,0-8.533-3.413-8.533-8.533v-68.267c0-5.12,3.413-8.533,8.533-8.533h153.6
		c5.12,0,8.533,3.413,8.533,8.533v68.267C340.333,192.853,336.92,196.267,331.8,196.267z M186.733,179.2h136.533V128H186.733V179.2z
		"/>
	<path d="M289.133,341.333h-68.267c-5.12,0-8.533-3.413-8.533-8.533v-34.133c0-5.12,3.413-8.533,8.533-8.533h68.267
		c5.12,0,8.533,3.413,8.533,8.533V332.8C297.667,337.92,294.253,341.333,289.133,341.333z M229.4,324.267h51.2V307.2h-51.2V324.267z
		"/>
	<path d="M297.667,426.667h-85.333c-5.12,0-8.533-3.413-8.533-8.533s3.413-8.533,8.533-8.533h85.333c5.12,0,8.533,3.413,8.533,8.533
		S302.787,426.667,297.667,426.667z"/>
	<path d="M340.333,469.333H169.667c-5.12,0-8.533-3.413-8.533-8.533s3.413-8.533,8.533-8.533h170.667
		c5.12,0,8.533,3.413,8.533,8.533S345.453,469.333,340.333,469.333z"/>
</g>
</svg>