<?xml version="1.0" encoding="iso-8859-1"?>
<!-- Generator: Adobe Illustrator 16.0.0, SVG Export Plug-In . SVG Version: 6.00 Build 0)  -->
<!DOCTYPE svg PUBLIC "-//W3C//DTD SVG 1.1//EN" "http://www.w3.org/Graphics/SVG/1.1/DTD/svg11.dtd">
<svg version="1.1" id="Capa_1" xmlns="http://www.w3.org/2000/svg" xmlns:xlink="http://www.w3.org/1999/xlink" x="0px" y="0px"
	 width="36.416px" height="36.416px" viewBox="0 0 36.416 36.416" style="enable-background:new 0 0 36.416 36.416;"
	 xml:space="preserve">
<g>
	<g>
		<path d="M34.141,3.413c-1.258,0-2.275,1.02-2.275,2.276c0,0.703,0.324,1.323,0.824,1.741l-5.377,6.452l-2.721-6.116
			c0.799-0.354,1.354-1.149,1.354-2.077c0-1.257-1.018-2.276-2.274-2.276c-1.258,0-2.276,1.02-2.276,2.276
			c0,0.79,0.403,1.484,1.016,1.893l-4.203,6.301l-4.2-6.301c0.61-0.408,1.015-1.103,1.015-1.893c0-1.257-1.02-2.276-2.277-2.276
			c-1.257,0-2.275,1.02-2.275,2.276c0,0.928,0.556,1.723,1.354,2.077l-2.72,6.116L3.726,7.431c0.501-0.418,0.825-1.038,0.825-1.741
			c0-1.257-1.019-2.276-2.275-2.276C1.02,3.413,0,4.433,0,5.689s1.02,2.275,2.276,2.275c0.19,0,0.373-0.029,0.55-0.073l3.781,15.123
			c0.121,0.486,0.631,0.883,1.132,0.883h1.365c0,5.021,4.085,9.105,9.104,9.105c5.019,0,9.104-4.084,9.104-9.105h1.365
			c0.5,0,1.01-0.396,1.131-0.883L33.59,7.892c0.178,0.044,0.359,0.073,0.551,0.073c1.256,0,2.275-1.019,2.275-2.275
			S35.396,3.413,34.141,3.413z M18.207,31.239c-4.054,0-7.341-3.287-7.341-7.342c0-4.053,3.287-7.339,7.341-7.339
			c4.055,0,7.341,3.286,7.341,7.339C25.548,27.952,22.262,31.239,18.207,31.239z"/>
		<path d="M22.439,23.491l-6.167-3.082c-0.448-0.225-0.814,0.002-0.814,0.502v5.975c0,0.5,0.366,0.729,0.814,0.504l6.167-3.084
			C22.889,24.081,22.889,23.716,22.439,23.491z"/>
	</g>
</g>
<g>
</g>
<g>
</g>
<g>
</g>
<g>
</g>
<g>
</g>
<g>
</g>
<g>
</g>
<g>
</g>
<g>
</g>
<g>
</g>
<g>
</g>
<g>
</g>
<g>
</g>
<g>
</g>
<g>
</g>
</svg>
