<?xml version="1.0" encoding="iso-8859-1"?>
<!-- Generator: Adobe Illustrator 17.1.0, SVG Export Plug-In . SVG Version: 6.00 Build 0)  -->
<!DOCTYPE svg PUBLIC "-//W3C//DTD SVG 1.1//EN" "http://www.w3.org/Graphics/SVG/1.1/DTD/svg11.dtd">
<svg version="1.1" id="Capa_1" xmlns="http://www.w3.org/2000/svg" xmlns:xlink="http://www.w3.org/1999/xlink" x="0px" y="0px"
	 viewBox="0 0 384 384" style="enable-background:new 0 0 384 384;" xml:space="preserve">
<g>
	<path d="M39.469,280.777h-9.101c-4.142,0-7.5,3.358-7.5,7.5c0,4.142,3.358,7.5,7.5,7.5h9.101c4.142,0,7.5-3.358,7.5-7.5
		C46.969,284.135,43.611,280.777,39.469,280.777z"/>
	<path d="M30.368,248.817h9.101c4.142,0,7.5-3.358,7.5-7.5s-3.358-7.5-7.5-7.5h-9.101c-4.142,0-7.5,3.358-7.5,7.5
		S26.226,248.817,30.368,248.817z"/>
	<path d="M30.368,201.858h9.101c4.142,0,7.5-3.358,7.5-7.5s-3.358-7.5-7.5-7.5h-9.101c-4.142,0-7.5,3.358-7.5,7.5
		S26.226,201.858,30.368,201.858z"/>
	<path d="M30.368,154.898h9.101c4.142,0,7.5-3.358,7.5-7.5c0-4.142-3.358-7.5-7.5-7.5h-9.101c-4.142,0-7.5,3.358-7.5,7.5
		C22.868,151.54,26.226,154.898,30.368,154.898z"/>
	<path d="M30.368,107.939h9.101c4.142,0,7.5-3.358,7.5-7.5c0-4.142-3.358-7.5-7.5-7.5h-9.101c-4.142,0-7.5,3.358-7.5,7.5
		C22.868,104.581,26.226,107.939,30.368,107.939z"/>
	<path d="M353.378,280.777h-9.101c-4.142,0-7.5,3.358-7.5,7.5c0,4.142,3.358,7.5,7.5,7.5h9.101c4.142,0,7.5-3.358,7.5-7.5
		C360.878,284.135,357.52,280.777,353.378,280.777z"/>
	<path d="M353.378,233.817h-9.101c-4.142,0-7.5,3.358-7.5,7.5s3.358,7.5,7.5,7.5h9.101c4.142,0,7.5-3.358,7.5-7.5
		S357.52,233.817,353.378,233.817z"/>
	<path d="M353.378,186.858h-9.101c-4.142,0-7.5,3.358-7.5,7.5s3.358,7.5,7.5,7.5h9.101c4.142,0,7.5-3.358,7.5-7.5
		S357.52,186.858,353.378,186.858z"/>
	<path d="M353.378,139.898h-9.101c-4.142,0-7.5,3.358-7.5,7.5c0,4.142,3.358,7.5,7.5,7.5h9.101c4.142,0,7.5-3.358,7.5-7.5
		C360.878,143.256,357.52,139.898,353.378,139.898z"/>
	<path d="M344.277,107.939h9.101c4.142,0,7.5-3.358,7.5-7.5c0-4.142-3.358-7.5-7.5-7.5h-9.101c-4.142,0-7.5,3.358-7.5,7.5
		C336.777,104.581,340.135,107.939,344.277,107.939z"/>
	<path d="M376.5,56.303H7.5c-4.142,0-7.5,3.358-7.5,7.5v256.395c0,4.142,3.358,7.5,7.5,7.5h369c4.142,0,7.5-3.358,7.5-7.5V63.803
		C384,59.661,380.642,56.303,376.5,56.303z M282.316,184.5c-1.596-19.477-9.349-37.235-21.304-51.324l51.268-51.268V184.5H282.316z
		 M191.582,237.901c-25.31,0-45.901-20.591-45.901-45.901c0-25.306,20.584-45.894,45.888-45.901c0.004,0,0.008,0.001,0.013,0.001
		c0.004,0,0.008-0.001,0.013-0.001c25.304,0.008,45.888,20.596,45.888,45.901C237.483,217.31,216.893,237.901,191.582,237.901z
		 M228.986,143.99c-8.469-6.612-18.719-11.032-29.903-12.413v-15.249c15.349,1.51,29.372,7.6,40.68,16.885L228.986,143.99z
		 M184.082,131.577c-27.593,3.406-49.516,25.33-52.922,52.923h-15.25c3.537-35.955,32.217-64.635,68.172-68.172V131.577z
		 M131.16,199.5c3.406,27.593,25.329,49.517,52.922,52.923v15.249c-35.955-3.537-64.635-32.217-68.172-68.172H131.16z
		 M199.082,252.423c27.593-3.406,49.516-25.33,52.922-52.923h15.249c-3.537,35.955-32.216,64.635-68.171,68.172V252.423z
		 M252.005,184.5c-1.38-11.185-5.801-21.435-12.413-29.903l10.777-10.777c9.285,11.308,15.375,25.331,16.885,40.68H252.005z
		 M250.406,122.57c-14.089-11.955-31.847-19.708-51.324-21.304V71.303h102.59L250.406,122.57z M184.082,101.266
		c-44.232,3.624-79.61,39.001-83.234,83.234H70.885V71.303h113.197V101.266z M55.885,312.697H15V71.303h40.885V312.697z
		 M70.885,199.5h29.963c3.624,44.232,39.002,79.61,83.234,83.234v29.963H70.885V199.5z M199.082,282.734
		c44.232-3.624,79.609-39.001,83.233-83.234h29.964v113.197H199.082V282.734z M327.28,71.303H369v241.395h-41.72V71.303z"/>
</g>
<g>
</g>
<g>
</g>
<g>
</g>
<g>
</g>
<g>
</g>
<g>
</g>
<g>
</g>
<g>
</g>
<g>
</g>
<g>
</g>
<g>
</g>
<g>
</g>
<g>
</g>
<g>
</g>
<g>
</g>
</svg>
