<?xml version="1.0" encoding="iso-8859-1"?>
<!-- Generator: Adobe Illustrator 19.0.0, SVG Export Plug-In . SVG Version: 6.00 Build 0)  -->
<svg version="1.1" id="Layer_1" xmlns="http://www.w3.org/2000/svg" xmlns:xlink="http://www.w3.org/1999/xlink" x="0px" y="0px"
	 viewBox="0 0 512 512" style="enable-background:new 0 0 512 512;" xml:space="preserve">
<path style="fill:#E87E04;" d="M209.002,254.915H93.721c-10.33,0-18.704-8.375-18.704-18.704v-67.56
	c0-10.33,8.375-18.704,18.704-18.704h90.342c24.065,0,43.643,19.578,43.643,43.643v42.621
	C227.707,246.541,219.332,254.915,209.002,254.915z"/>
<path style="fill:#F2C500;" d="M418.279,350.07H93.721c-10.33,0-18.704-8.375-18.704-18.704v-95.155
	c0-10.33,8.375-18.704,18.704-18.704h324.558c10.33,0,18.704,8.375,18.704,18.704v95.155
	C436.983,341.696,428.609,350.07,418.279,350.07z"/>
<path style="fill:#F59D00;" d="M418.279,217.506H256V350.07h162.279c10.33,0,18.704-8.375,18.704-18.704v-95.155
	C436.983,225.88,428.609,217.506,418.279,217.506z"/>
<path style="fill:#3797D3;" d="M418.279,405.024H93.721c-10.33,0-18.704-8.375-18.704-18.704v-54.953
	c0-10.33,8.375-18.704,18.704-18.704h324.558c10.33,0,18.704,8.375,18.704,18.704v54.953
	C436.983,396.649,428.609,405.024,418.279,405.024z"/>
<path style="fill:#4881C2;" d="M418.279,312.662H256v92.362h162.279c10.33,0,18.704-8.375,18.704-18.704v-54.953
	C436.983,321.036,428.609,312.662,418.279,312.662z"/>
<path style="fill:#48AEE2;" d="M112.426,405.024H18.704C8.375,405.024,0,396.649,0,386.319v-235.7
	c0-24.104,19.54-43.643,43.643-43.643h25.139c24.104,0,43.643,19.54,43.643,43.643V405.024z"/>
<path style="fill:#39A3DB;" d="M493.296,405.024h-93.721V217.506h68.782c24.104,0,43.643,19.54,43.643,43.643v125.169
	C512,396.649,503.625,405.024,493.296,405.024z"/>
<path style="fill:#E87E04;" d="M399.574,217.503c-28.331,0-114.74,0-143.188,0v29.398c0,28.441,30.259,46.404,54.643,32.138
	c23.952,42.349,88.545,25.301,88.545-24.187V217.503z"/>
<path style="fill:#4881C2;" d="M399.574,312.662v92.362h93.721c10.33,0,18.704-8.375,18.704-18.704v-73.658L399.574,312.662
	L399.574,312.662z"/>
<path style="fill:#3797D3;" d="M0,312.662v73.658c0,10.33,8.375,18.704,18.704,18.704h93.721v-92.362L0,312.662L0,312.662z"/>
<g>
</g>
<g>
</g>
<g>
</g>
<g>
</g>
<g>
</g>
<g>
</g>
<g>
</g>
<g>
</g>
<g>
</g>
<g>
</g>
<g>
</g>
<g>
</g>
<g>
</g>
<g>
</g>
<g>
</g>
</svg>
