<svg width="20" height="20" viewBox="0 0 20 20" fill="none" xmlns="http://www.w3.org/2000/svg">
<path d="M15.0113 7.86876C15.0701 7.61205 15.0996 7.34965 15.0996 7.08333C15.0996 5.25792 13.7513 3.74191 11.9982 3.47809C11.5542 2.17392 10.3137 1.25 8.90169 1.25C7.0923 1.25 5.62044 2.72186 5.62044 4.53125C5.62044 4.64981 5.62827 4.7698 5.64429 4.89298C4.71859 5.5748 4.16211 6.65039 4.16211 7.8125C4.16211 7.91183 4.16674 8.01117 4.17671 8.11228C2.8672 8.67981 1.97461 9.9911 1.97461 11.4583C1.97461 13.4685 3.61025 15.1042 5.62044 15.1042H9.26628V17.2917H6.34961C5.94693 17.2917 5.62044 17.6182 5.62044 18.0208C5.62044 18.4235 5.94693 18.75 6.34961 18.75H13.6413C14.044 18.75 14.3704 18.4235 14.3704 18.0208C14.3704 17.6182 14.044 17.2917 13.6413 17.2917H10.7246V15.1042H14.3704C16.3806 15.1042 18.0163 13.4685 18.0163 11.4583C18.0163 9.66639 16.7171 8.17245 15.0113 7.86876Z" fill="#224DDD"/>
</svg>
