<svg width="20" height="20" viewBox="0 0 20 20" fill="none" xmlns="http://www.w3.org/2000/svg">
<path d="M17.2917 18.75V18.0208V10.7292H18.0208C18.4583 10.7292 18.75 11.0208 18.75 11.4583V18.0208C18.75 18.4583 18.4583 18.75 18.0208 18.75H17.2917ZM2.70833 18.0208V18.75H1.97917C1.54167 18.75 1.25 18.4583 1.25 18.0208V11.4583C1.25 11.0208 1.54167 10.7292 1.97917 10.7292H2.70833V18.0208ZM15.1042 1.25C15.5417 1.25 15.8333 1.54167 15.8333 1.97917V18.0208C15.8333 18.4583 15.5417 18.75 15.1042 18.75H10.7292V15.8333H9.27083V18.75H4.89583C4.45833 18.75 4.16667 18.4583 4.16667 18.0208V1.97917C4.16667 1.54167 4.45833 1.25 4.89583 1.25H15.1042ZM8.54167 13.6458V12.1875H6.35417V13.6458H8.54167ZM8.54167 10.7292V9.27083H6.35417V10.7292H8.54167ZM8.54167 7.8125V6.35417H6.35417V7.8125H8.54167ZM8.54167 4.89583V3.4375H6.35417V4.89583H8.54167ZM13.6458 13.6458V12.1875H11.4583V13.6458H13.6458ZM13.6458 10.7292V9.27083H11.4583V10.7292H13.6458ZM13.6458 7.8125V6.35417H11.4583V7.8125H13.6458ZM13.6458 4.89583V3.4375H11.4583V4.89583H13.6458Z" fill="#224DDD"/>
</svg>
