<svg width="20" height="20" viewBox="0 0 20 20" fill="none" xmlns="http://www.w3.org/2000/svg">
<g clip-path="url(#clip0_4192_38394)">
<path d="M18.2497 4.16658H14.9997V1.66659C14.9997 1.20825 14.6247 0.833252 14.1663 0.833252C13.708 0.833252 13.333 1.20825 13.333 1.66659V4.16658H10.083C9.59134 4.16658 9.20801 4.59158 9.24967 5.08325L9.34967 6.09158C12.4163 6.79992 14.9997 8.97492 14.9997 12.4999L15.0163 19.1666H16.433C17.133 19.1666 17.708 18.6249 17.7913 17.9416L19.0747 5.08325C19.1247 4.59158 18.7413 4.16658 18.2497 4.16658V4.16658ZM12.4997 17.4999H1.66634C1.20801 17.4999 0.833008 17.8749 0.833008 18.3333C0.833008 18.7916 1.20801 19.1666 1.66634 19.1666H12.4997C12.958 19.1666 13.333 18.7916 13.333 18.3333C13.333 17.8749 12.958 17.4999 12.4997 17.4999ZM1.74967 12.4999H12.4163C12.933 12.4999 13.3413 12.0333 13.2413 11.5333C12.6997 8.84158 9.89134 7.49158 7.08301 7.49158C4.27467 7.49158 1.47467 8.84158 0.924674 11.5333C0.824674 12.0333 1.24134 12.4999 1.74967 12.4999V12.4999ZM12.4997 14.1666H1.66634C1.20801 14.1666 0.833008 14.5416 0.833008 14.9999C0.833008 15.4583 1.20801 15.8333 1.66634 15.8333H12.4997C12.958 15.8333 13.333 15.4583 13.333 14.9999C13.333 14.5416 12.958 14.1666 12.4997 14.1666Z" fill="#224DDD"/>
</g>
<defs>
<clipPath id="clip0_4192_38394">
<rect width="20" height="20" fill="white"/>
</clipPath>
</defs>
</svg>
