<svg width="20" height="20" viewBox="0 0 20 20" fill="none" xmlns="http://www.w3.org/2000/svg">
<g clip-path="url(#clip0_4192_38409)">
<path d="M16.4747 6.025L16.483 6.01667L13.8247 3.35833C13.583 3.11667 13.183 3.11667 12.9413 3.35833C12.6997 3.6 12.6997 4 12.9413 4.24167L14.258 5.55833C13.383 5.89167 12.7913 6.78333 12.9413 7.81667C13.0747 8.73333 13.858 9.475 14.7747 9.575C15.1663 9.61667 15.508 9.55 15.833 9.40833V15.4167C15.833 15.875 15.458 16.25 14.9997 16.25C14.5413 16.25 14.1663 15.875 14.1663 15.4167V11.6667C14.1663 10.75 13.4163 10 12.4997 10H11.6663V4.16667C11.6663 3.25 10.9163 2.5 9.99967 2.5H4.99967C4.08301 2.5 3.33301 3.25 3.33301 4.16667V16.6667C3.33301 17.125 3.70801 17.5 4.16634 17.5H10.833C11.2913 17.5 11.6663 17.125 11.6663 16.6667V11.25H12.9163V15.3C12.9163 16.3917 13.6997 17.3833 14.783 17.4917C16.033 17.6167 17.083 16.6417 17.083 15.4167V7.5C17.083 6.925 16.8497 6.4 16.4747 6.025ZM14.9997 8.33333C14.5413 8.33333 14.1663 7.95833 14.1663 7.5C14.1663 7.04167 14.5413 6.66667 14.9997 6.66667C15.458 6.66667 15.833 7.04167 15.833 7.5C15.833 7.95833 15.458 8.33333 14.9997 8.33333ZM6.66634 13.4333V11.25H5.69134C5.37467 11.25 5.17467 10.9167 5.32467 10.6333L7.54968 6.46667C7.74968 6.09167 8.33301 6.23333 8.33301 6.66667V9.16667H9.28301C9.59968 9.16667 9.79967 9.50833 9.64134 9.79167L7.44134 13.6417C7.23301 14.0083 6.66634 13.8583 6.66634 13.4333V13.4333Z" fill="#224DDD"/>
</g>
<defs>
<clipPath id="clip0_4192_38409">
<rect width="20" height="20" fill="white"/>
</clipPath>
</defs>
</svg>
