<svg width="20" height="20" viewBox="0 0 20 20" fill="none" xmlns="http://www.w3.org/2000/svg">
<path fill-rule="evenodd" clip-rule="evenodd" d="M1.66699 7.26631C1.66699 7.26631 8.9625 4.01443 10.0003 1.66675C11.0382 4.01473 18.3337 7.26631 18.3337 7.26631C18.3337 7.26631 15.9111 15.5764 17.1223 17.2928H17.1813C17.4174 17.2928 17.61 17.524 17.61 17.8087C17.61 18.1022 17.4175 18.3334 17.1813 18.3334H13.1716C13.0723 18.3334 12.9791 18.2978 12.8983 18.2178C12.2522 17.5952 11.6311 16.3412 11.1092 14.9805C10.6619 13.8066 10.2736 12.4813 10.0003 11.4584C9.727 12.4812 9.33882 13.8065 8.88531 14.9805C8.3697 16.3235 7.76093 17.5598 7.12108 18.1911C7.04658 18.2801 6.94096 18.3334 6.82917 18.3334H2.81945C2.57716 18.3334 2.38461 18.1021 2.38461 17.8087C2.38461 17.524 2.57717 17.2928 2.81945 17.2928H2.87848C4.08363 15.5763 1.66699 7.26631 1.66699 7.26631Z" fill="#224DDD"/>
</svg>
