<svg xmlns="http://www.w3.org/2000/svg" width="430" height="550" viewBox="0 0 430 550"><rect width="430" height="550" style="fill:none"/><path d="M322.98,8.367A20.216,20.216,0,0,0,311.806,5H118.194A20.216,20.216,0,0,0,107.02,8.367l-93,61.673A20.143,20.143,0,0,0,5,86.826V401.7a20.145,20.145,0,0,0,9.188,16.9L204,541.744a20.227,20.227,0,0,0,22.01,0L415.812,418.6A20.145,20.145,0,0,0,425,401.7V86.826a20.143,20.143,0,0,0-9.018-16.786Z" transform="translate(0)" style="fill:#39b54a;stroke:#298235;stroke-miterlimit:10;stroke-width:2px"/><path d="M83.433,278.84c-1.288-3.145-2.478-6.378-3.535-9.61l1.9-.622c1.043,3.186,2.216,6.373,3.486,9.474Z" transform="translate(0)" style="fill:#f4ea26;stroke:#c6c22e;stroke-miterlimit:10;stroke-width:0.75px"/><path d="M140.492,104.605a4.913,4.913,0,0,0,.355-.857,4.241,4.241,0,0,0,.153-.957,4.488,4.488,0,0,1,.221.986,5.456,5.456,0,0,1-.014,1.052Z" transform="translate(0)" style="fill:#c6c22e"/><path d="M138.954,110.146a11.2,11.2,0,0,0,1.9-5.429,11.2,11.2,0,0,0-5.75-.116,10.507,10.507,0,0,0-8.137,9.767,10.5,10.5,0,0,0,11.991-4.222Z" transform="translate(0)" style="fill:#f4ea26;stroke:#c6c22e;stroke-miterlimit:10;stroke-width:0.75px"/><path d="M129.323,112.777a10.41,10.41,0,0,0,5.665-1.678,10.624,10.624,0,0,0,3.9-4.584,10.811,10.811,0,0,1-3.681,4.892,10.964,10.964,0,0,1-5.857,2.119Z" transform="translate(0)" style="fill:#f8f2a2"/><path d="M142.183,121.2a4.911,4.911,0,0,0,.919-.121,4.243,4.243,0,0,0,.906-.346,4.422,4.422,0,0,1-.744.684,5.407,5.407,0,0,1-.918.515Z" transform="translate(0)" style="fill:#c6c22e"/><path d="M136.615,122.642a11.2,11.2,0,0,0,5.65-1.073,11.192,11.192,0,0,0-2.775-5.037,10.506,10.506,0,0,0-12.527-2.164,10.5,10.5,0,0,0,9.652,8.274Z" transform="translate(0)" style="fill:#f4ea26;stroke:#c6c22e;stroke-miterlimit:10;stroke-width:0.75px"/><path d="M129.521,115.616a10.409,10.409,0,0,0,4.286,4.067,10.617,10.617,0,0,0,5.917,1.081,10.8,10.8,0,0,1-6.077-.742,10.965,10.965,0,0,1-4.764-4.012Z" transform="translate(0)" style="fill:#f8f2a2"/><path d="M125.115,97.325a5.451,5.451,0,0,1,.8-.687,4.475,4.475,0,0,1,.9-.465,4.281,4.281,0,0,0-.634.733,4.933,4.933,0,0,0-.429.823Z" transform="translate(0)" style="fill:#c6c22e"/><path d="M122.49,102.469a11.206,11.206,0,0,1,2.94-4.942,11.185,11.185,0,0,1,3.785,4.33,10.506,10.506,0,0,1-2.252,12.511,10.5,10.5,0,0,1-4.473-11.9Z" transform="translate(0)" style="fill:#f4ea26;stroke:#c6c22e;stroke-miterlimit:10;stroke-width:0.75px"/><path d="M126.077,112a10.964,10.964,0,0,1-2.141-5.849,10.808,10.808,0,0,1,1.382-5.965,10.608,10.608,0,0,0-1.008,5.931,10.391,10.391,0,0,0,2.356,5.418Z" transform="translate(0)" style="fill:#f8f2a2"/><path d="M130.282,111.557a4.911,4.911,0,0,0,.279-.885,4.286,4.286,0,0,0,.07-.966,4.425,4.425,0,0,1,.305.962,5.41,5.41,0,0,1,.079,1.05Z" transform="translate(0)" style="fill:#c6c22e"/><path d="M129.233,117.211a11.192,11.192,0,0,0,1.415-5.574,11.2,11.2,0,0,0-5.737.386,10.506,10.506,0,0,0-7.255,10.439,10.5,10.5,0,0,0,11.577-5.251Z" transform="translate(0)" style="fill:#f4ea26;stroke:#c6c22e;stroke-miterlimit:10;stroke-width:0.75px"/><path d="M119.868,120.671a10.4,10.4,0,0,0,5.5-2.165,10.624,10.624,0,0,0,3.481-4.906,10.811,10.811,0,0,1-3.241,5.194,10.969,10.969,0,0,1-5.65,2.622Z" transform="translate(0)" style="fill:#f8f2a2"/><path d="M133.413,127.944a4.788,4.788,0,0,0,.906-.2,4.246,4.246,0,0,0,.872-.423,4.427,4.427,0,0,1-.681.746,5.392,5.392,0,0,1-.87.593Z" transform="translate(0)" style="fill:#c6c22e"/><path d="M127.992,129.863a11.2,11.2,0,0,0,5.535-1.561,11.191,11.191,0,0,0-3.2-4.776,10.5,10.5,0,0,0-12.668-1.064,10.5,10.5,0,0,0,10.336,7.4Z" transform="translate(0)" style="fill:#f4ea26;stroke:#c6c22e;stroke-miterlimit:10;stroke-width:0.75px"/><path d="M120.313,123.482a10.4,10.4,0,0,0,4.624,3.678,10.618,10.618,0,0,0,5.989.562,10.807,10.807,0,0,1-6.119-.21,10.955,10.955,0,0,1-5.095-3.582Z" transform="translate(0)" style="fill:#f8f2a2"/><path d="M114.329,105.645a5.417,5.417,0,0,1,.735-.754,4.438,4.438,0,0,1,.853-.541,4.238,4.238,0,0,0-.568.785,4.764,4.764,0,0,0-.355.857Z" transform="translate(0)" style="fill:#c6c22e"/><path d="M112.163,111a11.191,11.191,0,0,1,2.5-5.179,11.184,11.184,0,0,1,4.148,3.983,10.505,10.505,0,0,1-1.153,12.66A10.5,10.5,0,0,1,112.163,111Z" transform="translate(0)" style="fill:#f4ea26;stroke:#c6c22e;stroke-miterlimit:10;stroke-width:0.75px"/><path d="M116.567,120.183a10.975,10.975,0,0,1-2.643-5.64,10.812,10.812,0,0,1,.857-6.062,10.615,10.615,0,0,0-.487,6,10.4,10.4,0,0,0,2.819,5.192Z" transform="translate(0)" style="fill:#f8f2a2"/><path d="M120.717,119.372a4.883,4.883,0,0,0,.2-.905,4.265,4.265,0,0,0-.015-.97,4.43,4.43,0,0,1,.388.933,5.393,5.393,0,0,1,.17,1.039Z" transform="translate(0)" style="fill:#c6c22e"/><path d="M120.165,125.1a11.181,11.181,0,0,0,.924-5.676,11.2,11.2,0,0,0-5.682.885,10.5,10.5,0,0,0-6.317,11.032,10.506,10.506,0,0,0,11.075-6.241Z" transform="translate(0)" style="fill:#f4ea26;stroke:#c6c22e;stroke-miterlimit:10;stroke-width:0.75px"/><path d="M111.137,129.359a10.4,10.4,0,0,0,5.288-2.636,10.622,10.622,0,0,0,3.039-5.19,10.8,10.8,0,0,1-2.775,5.456,10.968,10.968,0,0,1-5.4,3.1Z" transform="translate(0)" style="fill:#f8f2a2"/><path d="M125.265,135.424a4.835,4.835,0,0,0,.884-.279,4.277,4.277,0,0,0,.832-.5,4.433,4.433,0,0,1-.613.8,5.4,5.4,0,0,1-.815.667Z" transform="translate(0)" style="fill:#c6c22e"/><path d="M120.032,137.808a11.183,11.183,0,0,0,5.377-2.038,11.2,11.2,0,0,0-3.607-4.478,10.5,10.5,0,0,0-12.712.045,10.5,10.5,0,0,0,10.942,6.471Z" transform="translate(0)" style="fill:#f4ea26;stroke:#c6c22e;stroke-miterlimit:10;stroke-width:0.75px"/><path d="M111.826,132.121a10.4,10.4,0,0,0,4.926,3.261,10.615,10.615,0,0,0,6.016.037,10.806,10.806,0,0,1-6.114.325,10.961,10.961,0,0,1-5.388-3.124Z" transform="translate(0)" style="fill:#f8f2a2"/><path d="M104.31,114.873a5.446,5.446,0,0,1,.666-.815,4.479,4.479,0,0,1,.8-.613,4.277,4.277,0,0,0-.5.832,4.884,4.884,0,0,0-.279.884Z" transform="translate(0)" style="fill:#c6c22e"/><path d="M102.618,120.394a11.193,11.193,0,0,1,2.038-5.377,11.189,11.189,0,0,1,4.478,3.607,10.5,10.5,0,0,1-.044,12.713,10.505,10.505,0,0,1-6.472-10.943Z" transform="translate(0)" style="fill:#f4ea26;stroke:#c6c22e;stroke-miterlimit:10;stroke-width:0.75px"/><path d="M107.806,129.161a10.976,10.976,0,0,1-3.124-5.389,10.811,10.811,0,0,1,.325-6.113,10.612,10.612,0,0,0,.037,6.015,10.4,10.4,0,0,0,3.261,4.926Z" transform="translate(0)" style="fill:#f8f2a2"/><path d="M111.87,127.991a4.9,4.9,0,0,0,.121-.919,4.3,4.3,0,0,0-.1-.964,4.443,4.443,0,0,1,.468.895,5.4,5.4,0,0,1,.259,1.02Z" transform="translate(0)" style="fill:#c6c22e"/><path d="M111.819,133.742a11.2,11.2,0,0,0,.426-5.735,11.192,11.192,0,0,0-5.584,1.376,10.507,10.507,0,0,0-5.332,11.541,10.506,10.506,0,0,0,10.49-7.182Z" transform="translate(0)" style="fill:#f4ea26;stroke:#c6c22e;stroke-miterlimit:10;stroke-width:0.75px"/><path d="M103.2,138.775a10.4,10.4,0,0,0,5.037-3.086,10.619,10.619,0,0,0,2.576-5.436,10.81,10.81,0,0,1-2.289,5.678,10.97,10.97,0,0,1-5.109,3.563Z" transform="translate(0)" style="fill:#f8f2a2"/><path d="M117.8,143.586a4.914,4.914,0,0,0,.857-.355,4.258,4.258,0,0,0,.786-.568,4.475,4.475,0,0,1-.542.853,5.466,5.466,0,0,1-.753.735Z" transform="translate(0)" style="fill:#c6c22e"/><path d="M112.794,146.417a11.186,11.186,0,0,0,5.179-2.5,11.2,11.2,0,0,0-3.983-4.147,10.506,10.506,0,0,0-12.661,1.153,10.506,10.506,0,0,0,11.465,5.493Z" transform="translate(0)" style="fill:#f4ea26;stroke:#c6c22e;stroke-miterlimit:10;stroke-width:0.75px"/><path d="M104.123,141.467a10.4,10.4,0,0,0,5.192,2.819,10.618,10.618,0,0,0,6-.487,10.8,10.8,0,0,1-6.062.856,10.955,10.955,0,0,1-5.64-2.643Z" transform="translate(0)" style="fill:#f8f2a2"/><path d="M95.133,124.939a5.378,5.378,0,0,1,.592-.869,4.462,4.462,0,0,1,.746-.681,4.325,4.325,0,0,0-.423.872,4.956,4.956,0,0,0-.2.905Z" transform="translate(0)" style="fill:#c6c22e"/><path d="M93.929,130.587a11.193,11.193,0,0,1,1.561-5.534,11.2,11.2,0,0,1,4.776,3.2,10.507,10.507,0,0,1,1.063,12.669,10.507,10.507,0,0,1-7.4-10.337Z" transform="translate(0)" style="fill:#f4ea26;stroke:#c6c22e;stroke-miterlimit:10;stroke-width:0.75px"/><path d="M99.861,138.868a10.97,10.97,0,0,1-3.582-5.1,10.812,10.812,0,0,1-.209-6.118,10.627,10.627,0,0,0,.561,5.989,10.409,10.409,0,0,0,3.678,4.623Z" transform="translate(0)" style="fill:#f8f2a2"/><path d="M103.808,137.349a4.9,4.9,0,0,0,.04-.927,4.267,4.267,0,0,0-.183-.952,4.486,4.486,0,0,1,.544.851,5.479,5.479,0,0,1,.348.994Z" transform="translate(0)" style="fill:#c6c22e"/><path d="M104.258,143.082a11.2,11.2,0,0,0-.076-5.75,11.2,11.2,0,0,0-5.442,1.857,10.506,10.506,0,0,0-4.306,11.962,10.505,10.505,0,0,0,9.824-8.069Z" transform="translate(0)" style="fill:#f4ea26;stroke:#c6c22e;stroke-miterlimit:10;stroke-width:0.75px"/><path d="M96.107,148.848a10.4,10.4,0,0,0,4.75-3.514,10.627,10.627,0,0,0,2.092-5.64,10.81,10.81,0,0,1-1.786,5.856,10.965,10.965,0,0,1-4.779,3.995Z" transform="translate(0)" style="fill:#f8f2a2"/><path d="M111.074,152.367a4.844,4.844,0,0,0,.822-.428,4.243,4.243,0,0,0,.733-.634,4.39,4.39,0,0,1-.465.9,5.39,5.39,0,0,1-.686.8Z" transform="translate(0)" style="fill:#c6c22e"/><path d="M106.334,155.624a11.2,11.2,0,0,0,4.942-2.941,11.209,11.209,0,0,0-4.33-3.784,10.5,10.5,0,0,0-12.512,2.252,10.506,10.506,0,0,0,11.9,4.473Z" transform="translate(0)" style="fill:#f4ea26;stroke:#c6c22e;stroke-miterlimit:10;stroke-width:0.75px"/><path d="M97.265,151.448a10.407,10.407,0,0,0,5.418,2.356,10.614,10.614,0,0,0,5.93-1.008,10.8,10.8,0,0,1-5.964,1.382,10.975,10.975,0,0,1-5.849-2.141Z" transform="translate(0)" style="fill:#f8f2a2"/><path d="M86.868,135.767a5.446,5.446,0,0,1,.515-.918,4.448,4.448,0,0,1,.683-.743,4.306,4.306,0,0,0-.345.905,4.921,4.921,0,0,0-.121.92Z" transform="translate(0)" style="fill:#c6c22e"/><path d="M86.161,141.5a11.189,11.189,0,0,1,1.073-5.649,11.208,11.208,0,0,1,5.037,2.774,10.505,10.505,0,0,1,2.163,12.528,10.5,10.5,0,0,1-8.273-9.653Z" transform="translate(0)" style="fill:#f4ea26;stroke:#c6c22e;stroke-miterlimit:10;stroke-width:0.75px"/><path d="M92.793,149.231a10.967,10.967,0,0,1-4.013-4.764,10.815,10.815,0,0,1-.742-6.077,10.626,10.626,0,0,0,1.081,5.917,10.406,10.406,0,0,0,4.067,4.285Z" transform="translate(0)" style="fill:#f8f2a2"/><path d="M96.591,147.373a4.836,4.836,0,0,0-.04-.926,4.3,4.3,0,0,0-.265-.932,4.451,4.451,0,0,1,.616.8,5.421,5.421,0,0,1,.433.959Z" transform="translate(0)" style="fill:#c6c22e"/><path d="M97.54,153.045a11.192,11.192,0,0,0-.577-5.721,11.186,11.186,0,0,0-5.259,2.325,10.5,10.5,0,0,0-3.247,12.291,10.506,10.506,0,0,0,9.083-8.9Z" transform="translate(0)" style="fill:#f4ea26;stroke:#c6c22e;stroke-miterlimit:10;stroke-width:0.75px"/><path d="M89.922,159.5a10.412,10.412,0,0,0,4.426-3.915,10.619,10.619,0,0,0,1.592-5.8,10.807,10.807,0,0,1-1.268,5.989,10.972,10.972,0,0,1-4.413,4.4Z" transform="translate(0)" style="fill:#f8f2a2"/><path d="M105.139,161.7a4.907,4.907,0,0,0,.782-.5,4.287,4.287,0,0,0,.675-.7,4.5,4.5,0,0,1-.385.934,5.435,5.435,0,0,1-.615.855Z" transform="translate(0)" style="fill:#c6c22e"/><path d="M100.7,165.359a11.2,11.2,0,0,0,4.666-3.36,11.186,11.186,0,0,0-4.643-3.393,10.5,10.5,0,0,0-12.267,3.334,10.5,10.5,0,0,0,12.244,3.419Z" transform="translate(0)" style="fill:#f4ea26;stroke:#c6c22e;stroke-miterlimit:10;stroke-width:0.75px"/><path d="M91.3,161.989a10.4,10.4,0,0,0,5.6,1.875,10.616,10.616,0,0,0,5.82-1.521,10.806,10.806,0,0,1-5.821,1.9,10.963,10.963,0,0,1-6.013-1.623Z" transform="translate(0)" style="fill:#f8f2a2"/><path d="M79.578,147.274a5.494,5.494,0,0,1,.433-.959,4.451,4.451,0,0,1,.616-.8,4.3,4.3,0,0,0-.265.932,4.918,4.918,0,0,0-.04.926Z" transform="translate(0)" style="fill:#c6c22e"/><path d="M79.373,153.045a11.192,11.192,0,0,1,.577-5.721,11.192,11.192,0,0,1,5.26,2.325,10.508,10.508,0,0,1,3.247,12.291,10.508,10.508,0,0,1-9.084-8.9Z" transform="translate(0)" style="fill:#f4ea26;stroke:#c6c22e;stroke-miterlimit:10;stroke-width:0.75px"/><path d="M86.654,160.17a10.979,10.979,0,0,1-4.413-4.4,10.807,10.807,0,0,1-1.268-5.989,10.611,10.611,0,0,0,1.593,5.8,10.4,10.4,0,0,0,4.425,3.915Z" transform="translate(0)" style="fill:#f8f2a2"/><path d="M90.276,157.989a4.76,4.76,0,0,0-.121-.92,4.2,4.2,0,0,0-.345-.905,4.406,4.406,0,0,1,.683.743,5.377,5.377,0,0,1,.515.918Z" transform="translate(0)" style="fill:#c6c22e"/><path d="M91.716,163.556a11.187,11.187,0,0,0-1.074-5.649,11.208,11.208,0,0,0-5.037,2.774,10.505,10.505,0,0,0-2.163,12.528,10.507,10.507,0,0,0,8.274-9.653Z" transform="translate(0)" style="fill:#f4ea26;stroke:#c6c22e;stroke-miterlimit:10;stroke-width:0.75px"/><path d="M84.69,170.65a10.406,10.406,0,0,0,4.067-4.285,10.626,10.626,0,0,0,1.081-5.917,10.807,10.807,0,0,1-.742,6.077,10.965,10.965,0,0,1-4.012,4.764Z" transform="translate(0)" style="fill:#f8f2a2"/><path d="M100.04,171.518a4.922,4.922,0,0,0,.736-.565,4.244,4.244,0,0,0,.611-.752,4.425,4.425,0,0,1-.3.964,5.386,5.386,0,0,1-.537.905Z" transform="translate(0)" style="fill:#c6c22e"/><path d="M95.938,175.548a11.205,11.205,0,0,0,4.356-3.754,11.194,11.194,0,0,0-4.921-2.975,10.5,10.5,0,0,0-11.931,4.39,10.509,10.509,0,0,0,12.5,2.339Z" transform="translate(0)" style="fill:#f4ea26;stroke:#c6c22e;stroke-miterlimit:10;stroke-width:0.75px"/><path d="M86.281,173.01a10.4,10.4,0,0,0,5.745,1.379,10.608,10.608,0,0,0,5.665-2.022,10.808,10.808,0,0,1-5.633,2.4,10.963,10.963,0,0,1-6.132-1.093Z" transform="translate(0)" style="fill:#f8f2a2"/><path d="M73.319,159.373a5.479,5.479,0,0,1,.348-.994,4.486,4.486,0,0,1,.544-.851,4.267,4.267,0,0,0-.183.952,4.9,4.9,0,0,0,.041.927Z" transform="translate(0)" style="fill:#c6c22e"/><path d="M73.618,165.14a11.2,11.2,0,0,1,.076-5.75,11.2,11.2,0,0,1,5.442,1.857,10.506,10.506,0,0,1,4.306,11.962,10.505,10.505,0,0,1-9.824-8.069Z" transform="translate(0)" style="fill:#f4ea26;stroke:#c6c22e;stroke-miterlimit:10;stroke-width:0.75px"/><path d="M81.492,171.6a10.971,10.971,0,0,1-4.779-4,10.81,10.81,0,0,1-1.786-5.856,10.62,10.62,0,0,0,2.093,5.64,10.4,10.4,0,0,0,4.749,3.514Z" transform="translate(0)" style="fill:#f8f2a2"/><path d="M84.911,169.114a4.956,4.956,0,0,0-.2-.905,4.221,4.221,0,0,0-.423-.872,4.466,4.466,0,0,1,.746.681,5.457,5.457,0,0,1,.593.87Z" transform="translate(0)" style="fill:#c6c22e"/><path d="M86.829,174.535A11.193,11.193,0,0,0,85.268,169a11.2,11.2,0,0,0-4.776,3.2,10.506,10.506,0,0,0-1.063,12.668,10.507,10.507,0,0,0,7.4-10.337Z" transform="translate(0)" style="fill:#f4ea26;stroke:#c6c22e;stroke-miterlimit:10;stroke-width:0.75px"/><path d="M80.449,182.214a10.409,10.409,0,0,0,3.678-4.623,10.618,10.618,0,0,0,.561-5.989,10.811,10.811,0,0,1-.209,6.118,10.97,10.97,0,0,1-3.582,5.1Z" transform="translate(0)" style="fill:#f8f2a2"/><path d="M95.816,181.74a4.889,4.889,0,0,0,.684-.626,4.274,4.274,0,0,0,.544-.8,4.448,4.448,0,0,1-.218.987,5.417,5.417,0,0,1-.456.948Z" transform="translate(0)" style="fill:#c6c22e"/><path d="M92.081,186.113a11.2,11.2,0,0,0,4.012-4.12,11.2,11.2,0,0,0-5.162-2.534,10.5,10.5,0,0,0-11.5,5.413,10.506,10.506,0,0,0,12.652,1.241Z" transform="translate(0)" style="fill:#f4ea26;stroke:#c6c22e;stroke-miterlimit:10;stroke-width:0.75px"/><path d="M82.24,184.426a10.405,10.405,0,0,0,5.843.874,10.626,10.626,0,0,0,5.468-2.508,10.815,10.815,0,0,1-5.4,2.877,10.963,10.963,0,0,1-6.2-.554Z" transform="translate(0)" style="fill:#f8f2a2"/><path d="M68.139,171.971a5.4,5.4,0,0,1,.259-1.02,4.443,4.443,0,0,1,.468-.895,4.3,4.3,0,0,0-.1.964,4.9,4.9,0,0,0,.121.919Z" transform="translate(0)" style="fill:#c6c22e"/><path d="M68.939,177.69a11.2,11.2,0,0,1-.426-5.735,11.192,11.192,0,0,1,5.584,1.376,10.507,10.507,0,0,1,5.332,11.541,10.506,10.506,0,0,1-10.49-7.182Z" transform="translate(0)" style="fill:#f4ea26;stroke:#c6c22e;stroke-miterlimit:10;stroke-width:0.75px"/><path d="M77.346,183.442a10.975,10.975,0,0,1-5.109-3.563,10.807,10.807,0,0,1-2.289-5.678,10.627,10.627,0,0,0,2.576,5.436,10.408,10.408,0,0,0,5.037,3.087Z" transform="translate(0)" style="fill:#f8f2a2"/><path d="M80.535,180.665a4.869,4.869,0,0,0-.279-.885,4.255,4.255,0,0,0-.5-.831,4.4,4.4,0,0,1,.8.613,5.4,5.4,0,0,1,.666.815Z" transform="translate(0)" style="fill:#c6c22e"/><path d="M82.919,185.9a11.193,11.193,0,0,0-2.038-5.377,11.2,11.2,0,0,0-4.479,3.607,10.505,10.505,0,0,0,.045,12.712A10.506,10.506,0,0,0,82.919,185.9Z" transform="translate(0)" style="fill:#f4ea26;stroke:#c6c22e;stroke-miterlimit:10;stroke-width:0.75px"/><path d="M77.232,194.1a10.405,10.405,0,0,0,3.261-4.926,10.624,10.624,0,0,0,.037-6.016,10.815,10.815,0,0,1,.325,6.114,10.963,10.963,0,0,1-3.125,5.388Z" transform="translate(0)" style="fill:#f8f2a2"/><path d="M92.5,192.293a4.892,4.892,0,0,0,.627-.684,4.3,4.3,0,0,0,.472-.847,4.5,4.5,0,0,1-.131,1,5.34,5.34,0,0,1-.372.984Z" transform="translate(0)" style="fill:#c6c22e"/><path d="M89.159,196.974A11.193,11.193,0,0,0,92.8,192.52a11.2,11.2,0,0,0-5.363-2.075,10.507,10.507,0,0,0-10.987,6.4,10.506,10.506,0,0,0,12.712.134Z" transform="translate(0)" style="fill:#f4ea26;stroke:#c6c22e;stroke-miterlimit:10;stroke-width:0.75px"/><path d="M79.209,196.152a10.418,10.418,0,0,0,5.9.361,10.627,10.627,0,0,0,5.228-2.976,10.8,10.8,0,0,1-5.132,3.338,10.968,10.968,0,0,1-6.229-.011Z" transform="translate(0)" style="fill:#f8f2a2"/><path d="M64.076,184.973a5.38,5.38,0,0,1,.17-1.039,4.43,4.43,0,0,1,.388-.933,4.256,4.256,0,0,0-.015.969,4.814,4.814,0,0,0,.2.906Z" transform="translate(0)" style="fill:#c6c22e"/><path d="M65.371,190.6a11.189,11.189,0,0,1-.923-5.676,11.205,11.205,0,0,1,5.682.884,10.507,10.507,0,0,1,6.317,11.032,10.505,10.505,0,0,1-11.076-6.24Z" transform="translate(0)" style="fill:#f4ea26;stroke:#c6c22e;stroke-miterlimit:10;stroke-width:0.75px"/><path d="M74.248,195.6a10.958,10.958,0,0,1-5.4-3.1,10.8,10.8,0,0,1-2.775-5.457,10.613,10.613,0,0,0,3.039,5.191,10.4,10.4,0,0,0,5.288,2.636Z" transform="translate(0)" style="fill:#f8f2a2"/><path d="M77.183,192.553a4.914,4.914,0,0,0-.355-.857,4.257,4.257,0,0,0-.569-.785,4.438,4.438,0,0,1,.853.541,5.417,5.417,0,0,1,.735.754Z" transform="translate(0)" style="fill:#c6c22e"/><path d="M80.014,197.558a11.211,11.211,0,0,0-2.5-5.179,11.189,11.189,0,0,0-4.147,3.984,10.5,10.5,0,0,0,1.152,12.66,10.505,10.505,0,0,0,5.494-11.465Z" transform="translate(0)" style="fill:#f4ea26;stroke:#c6c22e;stroke-miterlimit:10;stroke-width:0.75px"/><path d="M75.063,206.229a10.406,10.406,0,0,0,2.82-5.192,10.628,10.628,0,0,0-.488-6,10.813,10.813,0,0,1,.857,6.062,10.966,10.966,0,0,1-2.643,5.641Z" transform="translate(0)" style="fill:#f8f2a2"/><path d="M90.115,203.094a4.9,4.9,0,0,0,.564-.736,4.294,4.294,0,0,0,.4-.885,4.458,4.458,0,0,1-.043,1.009,5.456,5.456,0,0,1-.285,1.014Z" transform="translate(0)" style="fill:#c6c22e"/><path d="M87.2,208.048a11.177,11.177,0,0,0,3.236-4.753,11.187,11.187,0,0,0-5.523-1.6,10.505,10.505,0,0,0-10.388,7.328,10.5,10.5,0,0,0,12.675-.975Z" transform="translate(0)" style="fill:#f4ea26;stroke:#c6c22e;stroke-miterlimit:10;stroke-width:0.75px"/><path d="M77.211,208.1a10.4,10.4,0,0,0,5.906-.154,10.612,10.612,0,0,0,4.949-3.42,10.812,10.812,0,0,1-4.821,3.773,10.972,10.972,0,0,1-6.206.531Z" transform="translate(0)" style="fill:#f8f2a2"/><path d="M61.161,198.279a5.41,5.41,0,0,1,.079-1.05,4.507,4.507,0,0,1,.3-.963,4.29,4.29,0,0,0,.07.967,4.911,4.911,0,0,0,.279.885Z" transform="translate(0)" style="fill:#c6c22e"/><path d="M62.943,203.772a11.192,11.192,0,0,1-1.415-5.574,11.2,11.2,0,0,1,5.737.386,10.5,10.5,0,0,1,7.255,10.439,10.5,10.5,0,0,1-11.577-5.251Z" transform="translate(0)" style="fill:#f4ea26;stroke:#c6c22e;stroke-miterlimit:10;stroke-width:0.75px"/><path d="M72.221,207.977a10.969,10.969,0,0,1-5.65-2.622,10.811,10.811,0,0,1-3.241-5.194,10.63,10.63,0,0,0,3.481,4.906,10.408,10.408,0,0,0,5.5,2.165Z" transform="translate(0)" style="fill:#f8f2a2"/><path d="M74.879,204.688a4.927,4.927,0,0,0-.428-.823,4.281,4.281,0,0,0-.635-.732,4.423,4.423,0,0,1,.9.465,5.442,5.442,0,0,1,.8.686Z" transform="translate(0)" style="fill:#c6c22e"/><path d="M78.136,209.428a11.2,11.2,0,0,0-2.941-4.942,11.185,11.185,0,0,0-3.784,4.33,10.5,10.5,0,0,0,2.251,12.511,10.5,10.5,0,0,0,4.474-11.9Z" transform="translate(0)" style="fill:#f4ea26;stroke:#c6c22e;stroke-miterlimit:10;stroke-width:0.75px"/><path d="M73.96,218.5a10.407,10.407,0,0,0,2.356-5.418,10.627,10.627,0,0,0-1.008-5.931,10.815,10.815,0,0,1,1.381,5.965,10.964,10.964,0,0,1-2.141,5.849Z" transform="translate(0)" style="fill:#f8f2a2"/><path d="M88.681,214.062a4.9,4.9,0,0,0,.5-.783,4.266,4.266,0,0,0,.318-.915,4.446,4.446,0,0,1,.045,1.009,5.373,5.373,0,0,1-.2,1.034Z" transform="translate(0)" style="fill:#c6c22e"/><path d="M86.2,219.252a11.2,11.2,0,0,0,2.81-5.018,11.191,11.191,0,0,0-5.642-1.112,10.5,10.5,0,0,0-9.71,8.2A10.5,10.5,0,0,0,86.2,219.252Z" transform="translate(0)" style="fill:#f4ea26;stroke:#c6c22e;stroke-miterlimit:10;stroke-width:0.75px"/><path d="M76.263,220.17a10.4,10.4,0,0,0,5.87-.669,10.615,10.615,0,0,0,4.631-3.838,10.806,10.806,0,0,1-4.474,4.179,10.964,10.964,0,0,1-6.136,1.07Z" transform="translate(0)" style="fill:#f8f2a2"/><path d="M59.418,211.788a5.375,5.375,0,0,1-.013-1.052,4.431,4.431,0,0,1,.22-.986,4.3,4.3,0,0,0,.154.957,4.837,4.837,0,0,0,.355.857Z" transform="translate(0)" style="fill:#c6c22e"/><path d="M61.671,217.105a11.186,11.186,0,0,1-1.895-5.429,11.2,11.2,0,0,1,5.749-.116,10.5,10.5,0,0,1,8.137,9.767,10.5,10.5,0,0,1-11.991-4.222Z" transform="translate(0)" style="fill:#f4ea26;stroke:#c6c22e;stroke-miterlimit:10;stroke-width:0.75px"/><path d="M71.281,220.485a10.961,10.961,0,0,1-5.857-2.119,10.8,10.8,0,0,1-3.681-4.892,10.618,10.618,0,0,0,3.9,4.584,10.41,10.41,0,0,0,5.665,1.678Z" transform="translate(0)" style="fill:#f8f2a2"/><path d="M73.642,216.978a4.863,4.863,0,0,0-.5-.782,4.238,4.238,0,0,0-.7-.675,4.416,4.416,0,0,1,.934.385,5.439,5.439,0,0,1,.854.614Z" transform="translate(0)" style="fill:#c6c22e"/><path d="M77.3,221.416a11.2,11.2,0,0,0-3.36-4.667,11.2,11.2,0,0,0-3.393,4.643A10.506,10.506,0,0,0,73.88,233.66,10.5,10.5,0,0,0,77.3,221.416Z" transform="translate(0)" style="fill:#f4ea26;stroke:#c6c22e;stroke-miterlimit:10;stroke-width:0.75px"/><path d="M73.93,230.814a10.412,10.412,0,0,0,1.875-5.6,10.624,10.624,0,0,0-1.521-5.82,10.812,10.812,0,0,1,1.9,5.822,10.966,10.966,0,0,1-1.624,6.013Z" transform="translate(0)" style="fill:#f8f2a2"/><path d="M88.208,225.113a4.885,4.885,0,0,0,.428-.823,4.26,4.26,0,0,0,.237-.94,4.456,4.456,0,0,1,.133,1A5.388,5.388,0,0,1,88.9,225.4Z" transform="translate(0)" style="fill:#c6c22e"/><path d="M86.193,230.5a11.2,11.2,0,0,0,2.362-5.243,11.187,11.187,0,0,0-5.717-.617,10.506,10.506,0,0,0-8.958,9.021A10.5,10.5,0,0,0,86.193,230.5Z" transform="translate(0)" style="fill:#f4ea26;stroke:#c6c22e;stroke-miterlimit:10;stroke-width:0.75px"/><path d="M76.369,232.28a10.4,10.4,0,0,0,5.79-1.178,10.616,10.616,0,0,0,4.28-4.227,10.81,10.81,0,0,1-4.094,4.553,10.964,10.964,0,0,1-6.019,1.6Z" transform="translate(0)" style="fill:#f8f2a2"/><path d="M58.859,225.4a5.388,5.388,0,0,1-.105-1.047,4.456,4.456,0,0,1,.133-1,4.26,4.26,0,0,0,.237.94,4.885,4.885,0,0,0,.428.823Z" transform="translate(0)" style="fill:#c6c22e"/><path d="M61.567,230.5a11.2,11.2,0,0,1-2.362-5.243,11.187,11.187,0,0,1,5.717-.617,10.506,10.506,0,0,1,8.958,9.021A10.5,10.5,0,0,1,61.567,230.5Z" transform="translate(0)" style="fill:#f4ea26;stroke:#c6c22e;stroke-miterlimit:10;stroke-width:0.75px"/><path d="M71.434,233.029a10.964,10.964,0,0,1-6.019-1.6,10.81,10.81,0,0,1-4.094-4.553A10.616,10.616,0,0,0,65.6,231.1a10.4,10.4,0,0,0,5.79,1.178Z" transform="translate(0)" style="fill:#f8f2a2"/><path d="M73.481,229.328a4.914,4.914,0,0,0-.565-.735,4.293,4.293,0,0,0-.752-.612,4.462,4.462,0,0,1,.964.3,5.461,5.461,0,0,1,.905.538Z" transform="translate(0)" style="fill:#c6c22e"/><path d="M77.511,233.431a11.19,11.19,0,0,0-3.754-4.356A11.181,11.181,0,0,0,70.782,234a10.5,10.5,0,0,0,4.39,11.93,10.5,10.5,0,0,0,2.339-12.495Z" transform="translate(0)" style="fill:#f4ea26;stroke:#c6c22e;stroke-miterlimit:10;stroke-width:0.75px"/><path d="M74.973,243.087a10.407,10.407,0,0,0,1.38-5.745,10.618,10.618,0,0,0-2.023-5.665,10.807,10.807,0,0,1,2.4,5.634,10.958,10.958,0,0,1-1.093,6.132Z" transform="translate(0)" style="fill:#f8f2a2"/><path d="M88.7,236.163a4.837,4.837,0,0,0,.355-.857,4.3,4.3,0,0,0,.154-.957,4.431,4.431,0,0,1,.22.986,5.376,5.376,0,0,1-.013,1.052Z" transform="translate(0)" style="fill:#c6c22e"/><path d="M87.163,241.7a11.19,11.19,0,0,0,1.9-5.429,11.2,11.2,0,0,0-5.749-.116,10.5,10.5,0,0,0-8.137,9.767A10.5,10.5,0,0,0,87.163,241.7Z" transform="translate(0)" style="fill:#f4ea26;stroke:#c6c22e;stroke-miterlimit:10;stroke-width:0.75px"/><path d="M77.531,244.335a10.41,10.41,0,0,0,5.665-1.678,10.624,10.624,0,0,0,3.895-4.584,10.8,10.8,0,0,1-3.681,4.892,10.961,10.961,0,0,1-5.856,2.119Z" transform="translate(0)" style="fill:#f8f2a2"/><path d="M59.487,239.006a5.368,5.368,0,0,1-.2-1.035,4.451,4.451,0,0,1,.045-1.009,4.256,4.256,0,0,0,.318.916,4.842,4.842,0,0,0,.5.782Z" transform="translate(0)" style="fill:#c6c22e"/><path d="M62.63,243.85a11.2,11.2,0,0,1-2.81-5.017,11.2,11.2,0,0,1,5.642-1.113,10.507,10.507,0,0,1,9.71,8.206A10.5,10.5,0,0,1,62.63,243.85Z" transform="translate(0)" style="fill:#f4ea26;stroke:#c6c22e;stroke-miterlimit:10;stroke-width:0.75px"/><path d="M72.68,245.511a10.965,10.965,0,0,1-6.136-1.071,10.8,10.8,0,0,1-4.474-4.178A10.615,10.615,0,0,0,66.7,244.1a10.41,10.41,0,0,0,5.871.669Z" transform="translate(0)" style="fill:#f8f2a2"/><path d="M74.4,241.646a4.889,4.889,0,0,0-.626-.684,4.222,4.222,0,0,0-.8-.543,4.445,4.445,0,0,1,.987.217,5.417,5.417,0,0,1,.948.456Z" transform="translate(0)" style="fill:#c6c22e"/><path d="M78.769,245.381a11.2,11.2,0,0,0-4.12-4.012,11.212,11.212,0,0,0-2.535,5.162,10.509,10.509,0,0,0,5.414,11.5,10.507,10.507,0,0,0,1.241-12.653Z" transform="translate(0)" style="fill:#f4ea26;stroke:#c6c22e;stroke-miterlimit:10;stroke-width:0.75px"/><path d="M77.082,255.222a10.4,10.4,0,0,0,.874-5.843,10.613,10.613,0,0,0-2.509-5.467,10.806,10.806,0,0,1,2.878,5.4,10.962,10.962,0,0,1-.554,6.2Z" transform="translate(0)" style="fill:#f8f2a2"/><path d="M90.154,247.128a4.911,4.911,0,0,0,.279-.885,4.229,4.229,0,0,0,.069-.966,4.419,4.419,0,0,1,.306.963,5.474,5.474,0,0,1,.078,1.049Z" transform="translate(0)" style="fill:#c6c22e"/><path d="M89.105,252.782a11.188,11.188,0,0,0,1.415-5.573,11.193,11.193,0,0,0-5.737.385,10.5,10.5,0,0,0-7.255,10.44,10.506,10.506,0,0,0,11.577-5.252Z" transform="translate(0)" style="fill:#f4ea26;stroke:#c6c22e;stroke-miterlimit:10;stroke-width:0.75px"/><path d="M79.74,256.242a10.408,10.408,0,0,0,5.5-2.165,10.615,10.615,0,0,0,3.48-4.906,10.8,10.8,0,0,1-3.24,5.194,10.957,10.957,0,0,1-5.65,2.622Z" transform="translate(0)" style="fill:#f8f2a2"/><path d="M61.3,252.506a5.468,5.468,0,0,1-.285-1.013,4.46,4.46,0,0,1-.043-1.009,4.234,4.234,0,0,0,.4.884,4.854,4.854,0,0,0,.564.736Z" transform="translate(0)" style="fill:#c6c22e"/><path d="M64.852,257.059a11.2,11.2,0,0,1-3.236-4.754,11.2,11.2,0,0,1,5.524-1.6,10.5,10.5,0,0,1,10.388,7.329,10.506,10.506,0,0,1-12.676-.975Z" transform="translate(0)" style="fill:#f4ea26;stroke:#c6c22e;stroke-miterlimit:10;stroke-width:0.75px"/><path d="M75.009,257.837a10.962,10.962,0,0,1-6.206-.532,10.8,10.8,0,0,1-4.821-3.772,10.619,10.619,0,0,0,4.948,3.419,10.4,10.4,0,0,0,5.906.155Z" transform="translate(0)" style="fill:#f8f2a2"/><path d="M76.382,253.837a4.891,4.891,0,0,0-.684-.626,4.239,4.239,0,0,0-.846-.472,4.434,4.434,0,0,1,1,.13,5.5,5.5,0,0,1,.985.372Z" transform="translate(0)" style="fill:#c6c22e"/><path d="M81.063,257.177a11.192,11.192,0,0,0-4.453-3.638,11.2,11.2,0,0,0-2.075,5.363,10.5,10.5,0,0,0,6.4,10.987,10.5,10.5,0,0,0,.133-12.712Z" transform="translate(0)" style="fill:#f4ea26;stroke:#c6c22e;stroke-miterlimit:10;stroke-width:0.75px"/><path d="M80.241,267.128a10.4,10.4,0,0,0,.361-5.9A10.618,10.618,0,0,0,77.627,256a10.8,10.8,0,0,1,3.338,5.132,10.965,10.965,0,0,1-.012,6.228Z" transform="translate(0)" style="fill:#f8f2a2"/><path d="M92.558,257.925a4.893,4.893,0,0,0,.2-.906,4.256,4.256,0,0,0-.015-.969,4.43,4.43,0,0,1,.388.933,5.317,5.317,0,0,1,.17,1.039Z" transform="translate(0)" style="fill:#c6c22e"/><path d="M92.006,263.649a11.189,11.189,0,0,0,.923-5.676,11.206,11.206,0,0,0-5.682.884,10.507,10.507,0,0,0-6.317,11.032,10.505,10.505,0,0,0,11.076-6.24Z" transform="translate(0)" style="fill:#f4ea26;stroke:#c6c22e;stroke-miterlimit:10;stroke-width:0.75px"/><path d="M82.977,267.912a10.4,10.4,0,0,0,5.288-2.636,10.622,10.622,0,0,0,3.04-5.191,10.806,10.806,0,0,1-2.776,5.457,10.958,10.958,0,0,1-5.4,3.1Z" transform="translate(0)" style="fill:#f8f2a2"/><path d="M64.282,265.8a5.34,5.34,0,0,1-.372-.984,4.443,4.443,0,0,1-.13-1,4.243,4.243,0,0,0,.471.847,4.892,4.892,0,0,0,.627.684Z" transform="translate(0)" style="fill:#c6c22e"/><path d="M68.218,270.023a11.193,11.193,0,0,1-3.638-4.454,11.2,11.2,0,0,1,5.363-2.075,10.507,10.507,0,0,1,10.987,6.395,10.506,10.506,0,0,1-12.712.134Z" transform="translate(0)" style="fill:#f4ea26;stroke:#c6c22e;stroke-miterlimit:10;stroke-width:0.75px"/><path d="M78.4,269.913a10.968,10.968,0,0,1-6.229.011,10.808,10.808,0,0,1-5.132-3.338,10.627,10.627,0,0,0,5.228,2.976,10.409,10.409,0,0,0,5.9-.361Z" transform="translate(0)" style="fill:#f8f2a2"/><path d="M302.664,97.627c4.127,2.89,4.829,9.036,4.643,8.167a28.131,28.131,0,0,0-1.842,4.615,32.463,32.463,0,0,0-.795,3.34l-.141.2a14.247,14.247,0,0,1-1.706-.429,16.555,16.555,0,0,1-2.325-.93,16.583,16.583,0,0,1,1.67,1.866,14.431,14.431,0,0,1,.986,1.456l-.141.2A32.4,32.4,0,0,0,300.147,118a28.023,28.023,0,0,0-3.706,3.31c.879-.123-5.136,1.32-9.264-1.57-4.927-3.45-6.04-7.223-3.9-10.277a4.18,4.18,0,0,1,.55-.627c-.943-2.15-.019-5.641,1.06-7.182s4.043-3.6,6.386-3.452a4.165,4.165,0,0,1,.4-.731C293.811,94.421,297.737,94.177,302.664,97.627Z" transform="translate(0)" style="fill:#fff;stroke:#cbcac9;stroke-miterlimit:10;stroke-width:0.75px"/><path d="M307.541,105.22a23.866,23.866,0,0,1,.478,3.069,21.3,21.3,0,0,1,.066,3.725A17.707,17.707,0,0,1,307,117.145a17.689,17.689,0,0,1-4.452,2.772,21.292,21.292,0,0,1-3.522,1.213,24.156,24.156,0,0,1-3.048.6,29.838,29.838,0,0,1,3.944-3.521,34.6,34.6,0,0,1,3.048-2.01c.073-.036.13-.084.2-.12a.4.4,0,0,1-.051-.094,15.419,15.419,0,0,0-1.05-1.55,17.6,17.6,0,0,0-1.776-1.985,17.7,17.7,0,0,0,2.473.99,15.441,15.441,0,0,0,1.815.456.351.351,0,0,1,.106.017c.009-.081.035-.151.044-.231a34.57,34.57,0,0,1,.846-3.553A29.858,29.858,0,0,1,307.541,105.22Z" transform="translate(0)" style="fill:#f4ea26;stroke:#c6c22e;stroke-miterlimit:10;stroke-width:0.75px"/><path d="M283.825,108.84a4.187,4.187,0,0,1,1.761-.882c2.185-.483,4.734.974,6.479,3.619" transform="translate(0)" style="fill:#fff;stroke:#cbcac9;stroke-miterlimit:10;stroke-width:0.75px"/><path d="M291.271,98.206a4.183,4.183,0,0,0-.226,1.956c.293,2.219,2.534,4.115,5.616,4.851" transform="translate(0)" style="fill:#fff;stroke:#cbcac9;stroke-miterlimit:10;stroke-width:0.75px"/><path d="M323.45,114.784c3.563,3.563,3.187,9.738,3.155,8.85a28.162,28.162,0,0,0-2.616,4.225,32.555,32.555,0,0,0-1.363,3.151l-.174.174a14.54,14.54,0,0,1-1.605-.719,16.515,16.515,0,0,1-2.128-1.32,16.626,16.626,0,0,1,1.32,2.128,14.624,14.624,0,0,1,.719,1.6l-.174.175a32.54,32.54,0,0,0-3.151,1.362,28.162,28.162,0,0,0-4.225,2.616c.888.032-5.287.408-8.85-3.155-4.253-4.253-4.694-8.162-2.058-10.8a4.249,4.249,0,0,1,.65-.522c-.555-2.281.961-5.559,2.291-6.889s4.608-2.846,6.889-2.291a4.19,4.19,0,0,1,.522-.65C315.288,110.09,319.2,110.532,323.45,114.784Z" transform="translate(0)" style="fill:#fff;stroke:#cbcac9;stroke-miterlimit:10;stroke-width:0.75px"/><path d="M326.935,123.109a24.036,24.036,0,0,1-.062,3.105,21.21,21.21,0,0,1-.583,3.68,17.637,17.637,0,0,1-1.957,4.865,17.666,17.666,0,0,1-4.865,1.958,21.3,21.3,0,0,1-3.68.582,23.858,23.858,0,0,1-3.105.062,29.88,29.88,0,0,1,4.5-2.783,34.541,34.541,0,0,1,3.351-1.45c.078-.023.142-.06.22-.083a.383.383,0,0,1-.035-.1,15.525,15.525,0,0,0-.764-1.708,17.856,17.856,0,0,0-1.4-2.264,17.743,17.743,0,0,0,2.264,1.405,15.744,15.744,0,0,0,1.708.765.35.35,0,0,1,.1.034c.023-.078.06-.142.083-.22a34.541,34.541,0,0,1,1.45-3.351A29.88,29.88,0,0,1,326.935,123.109Z" transform="translate(0)" style="fill:#f4ea26;stroke:#c6c22e;stroke-miterlimit:10;stroke-width:0.75px"/><path d="M302.95,122.556a4.176,4.176,0,0,1,1.887-.562c2.237-.1,4.493,1.78,5.753,4.688" transform="translate(0)" style="fill:#fff;stroke:#cbcac9;stroke-miterlimit:10;stroke-width:0.75px"/><path d="M312.13,113.376a4.193,4.193,0,0,0-.563,1.887c-.1,2.237,1.781,4.493,4.689,5.753" transform="translate(0)" style="fill:#fff;stroke:#cbcac9;stroke-miterlimit:10;stroke-width:0.75px"/><path d="M340.941,135.291c2.89,4.128,1.448,10.143,1.57,9.263a28.168,28.168,0,0,0-3.309,3.707,32.646,32.646,0,0,0-1.89,2.866l-.2.141a14.432,14.432,0,0,1-1.457-.986,16.672,16.672,0,0,1-1.866-1.67,16.67,16.67,0,0,1,.931,2.325,14.441,14.441,0,0,1,.429,1.706l-.2.141a32.447,32.447,0,0,0-3.339.8,28.131,28.131,0,0,0-4.615,1.842c.868.186-5.278-.516-8.168-4.644-3.45-4.926-3.206-8.853-.152-10.991a4.171,4.171,0,0,1,.731-.4c-.15-2.343,1.912-5.308,3.452-6.387s5.033-2,7.182-1.06a4.282,4.282,0,0,1,.627-.549C333.719,129.25,337.492,130.364,340.941,135.291Z" transform="translate(0)" style="fill:#fff;stroke:#cbcac9;stroke-miterlimit:10;stroke-width:0.75px"/><path d="M342.927,144.094a23.759,23.759,0,0,1-.6,3.047,21.263,21.263,0,0,1-1.212,3.523,17.652,17.652,0,0,1-2.773,4.451,17.633,17.633,0,0,1-5.131,1.083,21.208,21.208,0,0,1-3.725-.065,24.1,24.1,0,0,1-3.069-.478,29.907,29.907,0,0,1,4.91-1.96,34.553,34.553,0,0,1,3.552-.846c.081-.009.15-.035.231-.044a.357.357,0,0,1-.016-.106,15.221,15.221,0,0,0-.457-1.815,17.654,17.654,0,0,0-.99-2.473,17.8,17.8,0,0,0,1.986,1.776,15.418,15.418,0,0,0,1.549,1.05.325.325,0,0,1,.094.051c.037-.072.084-.129.121-.2a34.742,34.742,0,0,1,2.009-3.049A29.96,29.96,0,0,1,342.927,144.094Z" transform="translate(0)" style="fill:#f4ea26;stroke:#c6c22e;stroke-miterlimit:10;stroke-width:0.75px"/><path d="M319.4,139.385a4.171,4.171,0,0,1,1.956-.226c2.219.293,4.116,2.534,4.851,5.616" transform="translate(0)" style="fill:#fff;stroke:#cbcac9;stroke-miterlimit:10;stroke-width:0.75px"/><path d="M330.037,131.938a4.182,4.182,0,0,0-.881,1.761c-.483,2.186.973,4.734,3.619,6.48" transform="translate(0)" style="fill:#fff;stroke:#cbcac9;stroke-miterlimit:10;stroke-width:0.75px"/><path d="M354.606,158.523c2.129,4.567-.336,10.24-.063,9.4a28.134,28.134,0,0,0-3.9,3.075,32.414,32.414,0,0,0-2.358,2.5l-.223.1a14.656,14.656,0,0,1-1.263-1.225,16.775,16.775,0,0,1-1.548-1.968,16.594,16.594,0,0,1,.513,2.451,14.464,14.464,0,0,1,.126,1.754l-.223.1a32.776,32.776,0,0,0-3.426.2,28.143,28.143,0,0,0-4.865,1.013c.823.334-5.108-1.424-7.238-5.991-2.541-5.451-1.62-9.275,1.76-10.851a4.171,4.171,0,0,1,.789-.268c.259-2.333,2.8-4.9,4.509-5.69s5.3-1.1,7.257.2a4.169,4.169,0,0,1,.712-.432C348.542,151.32,352.064,153.072,354.606,158.523Z" transform="translate(0)" style="fill:#fff;stroke:#cbcac9;stroke-miterlimit:10;stroke-width:0.75px"/><path d="M355.033,167.538a24.043,24.043,0,0,1-1.12,2.9,21.2,21.2,0,0,1-1.806,3.259,17.658,17.658,0,0,1-3.5,3.9,17.667,17.667,0,0,1-5.242.176,21.251,21.251,0,0,1-3.657-.712,23.807,23.807,0,0,1-2.939-1,29.856,29.856,0,0,1,5.176-1.078,34.624,34.624,0,0,1,3.645-.216c.081,0,.154-.008.235,0a.352.352,0,0,1,0-.107,15.252,15.252,0,0,0-.134-1.866,17.61,17.61,0,0,0-.546-2.608,17.782,17.782,0,0,0,1.647,2.094,15.454,15.454,0,0,0,1.344,1.3.353.353,0,0,1,.083.067c.049-.065.106-.113.154-.178a34.608,34.608,0,0,1,2.509-2.653A29.781,29.781,0,0,1,355.033,167.538Z" transform="translate(0)" style="fill:#f4ea26;stroke:#c6c22e;stroke-miterlimit:10;stroke-width:0.75px"/><path d="M332.684,158.815a4.173,4.173,0,0,1,1.966.117c2.134.674,3.613,3.21,3.8,6.373" transform="translate(0)" style="fill:#fff;stroke:#cbcac9;stroke-miterlimit:10;stroke-width:0.75px"/><path d="M344.45,153.328a4.18,4.18,0,0,0-1.174,1.581c-.855,2.069.137,4.832,2.438,7.01" transform="translate(0)" style="fill:#fff;stroke:#cbcac9;stroke-miterlimit:10;stroke-width:0.75px"/><path d="M364.028,183.775c1.305,4.868-2.108,10.027-1.693,9.242a28.139,28.139,0,0,0-4.377,2.351,32.447,32.447,0,0,0-2.756,2.047l-.238.064a14.566,14.566,0,0,1-1.031-1.425,16.6,16.6,0,0,1-1.182-2.207,16.636,16.636,0,0,1,.079,2.5,14.356,14.356,0,0,1-.18,1.75l-.238.064a32.382,32.382,0,0,0-3.41-.4,28.136,28.136,0,0,0-4.967.153c.753.471-4.782-2.29-6.087-7.157-1.556-5.81.016-9.416,3.617-10.381a4.162,4.162,0,0,1,.824-.127c.66-2.253,3.611-4.334,5.428-4.821s5.414-.16,7.112,1.461a4.145,4.145,0,0,1,.777-.3C359.307,175.629,362.472,177.966,364.028,183.775Z" transform="translate(0)" style="fill:#fff;stroke:#cbcac9;stroke-miterlimit:10;stroke-width:0.75px"/><path d="M362.884,192.727a23.791,23.791,0,0,1-1.607,2.658,21.142,21.142,0,0,1-2.344,2.9,17.663,17.663,0,0,1-4.127,3.234,17.654,17.654,0,0,1-5.192-.737,21.2,21.2,0,0,1-3.478-1.335,24.024,24.024,0,0,1-2.721-1.5,29.837,29.837,0,0,1,5.284-.163,34.688,34.688,0,0,1,3.628.42c.079.019.153.019.232.038a.338.338,0,0,1,.021-.105,15.36,15.36,0,0,0,.192-1.862,17.767,17.767,0,0,0-.085-2.663,17.664,17.664,0,0,0,1.258,2.349,15.6,15.6,0,0,0,1.1,1.516.375.375,0,0,1,.071.08c.059-.055.123-.092.182-.148a34.705,34.705,0,0,1,2.931-2.178A29.952,29.952,0,0,1,362.884,192.727Z" transform="translate(0)" style="fill:#f4ea26;stroke:#c6c22e;stroke-miterlimit:10;stroke-width:0.75px"/><path d="M342.389,180.256a4.173,4.173,0,0,1,1.915.457c1.985,1.034,3,3.788,2.638,6.936" transform="translate(0)" style="fill:#fff;stroke:#cbcac9;stroke-miterlimit:10;stroke-width:0.75px"/><path d="M354.929,176.9a4.173,4.173,0,0,0-1.431,1.353c-1.2,1.889-.7,4.782,1.185,7.326" transform="translate(0)" style="fill:#fff;stroke:#cbcac9;stroke-miterlimit:10;stroke-width:0.75px"/><path d="M368.923,210.28c.439,5.02-3.818,9.508-3.272,8.808a28.045,28.045,0,0,0-4.72,1.555,32.751,32.751,0,0,0-3.069,1.537l-.245.022a14.52,14.52,0,0,1-.768-1.583,16.55,16.55,0,0,1-.781-2.379,16.616,16.616,0,0,1-.357,2.479,14.61,14.61,0,0,1-.481,1.692l-.246.021a32.33,32.33,0,0,0-3.289-.981,28.04,28.04,0,0,0-4.918-.712c.659.595-4.312-3.086-4.751-8.106-.525-5.991,1.65-9.269,5.364-9.594a4.207,4.207,0,0,1,.833.017c1.041-2.1,4.309-3.64,6.183-3.8s5.36.782,6.75,2.673a4.144,4.144,0,0,1,.818-.162C365.688,201.438,368.4,204.289,368.923,210.28Z" transform="translate(0)" style="fill:#fff;stroke:#cbcac9;stroke-miterlimit:10;stroke-width:0.75px"/><path d="M366.241,218.9a23.858,23.858,0,0,1-2.043,2.339,21.329,21.329,0,0,1-2.812,2.445,17.661,17.661,0,0,1-4.626,2.468,17.676,17.676,0,0,1-4.986-1.627,21.307,21.307,0,0,1-3.193-1.92,23.813,23.813,0,0,1-2.418-1.948,29.9,29.9,0,0,1,5.232.757,34.652,34.652,0,0,1,3.5,1.044c.074.032.147.045.222.077a.369.369,0,0,1,.039-.1,15.278,15.278,0,0,0,.512-1.8,17.676,17.676,0,0,0,.379-2.637,17.591,17.591,0,0,0,.832,2.531,15.314,15.314,0,0,0,.816,1.684.32.32,0,0,1,.056.092c.068-.045.138-.07.2-.115a34.494,34.494,0,0,1,3.265-1.635A29.9,29.9,0,0,1,366.241,218.9Z" transform="translate(0)" style="fill:#f4ea26;stroke:#c6c22e;stroke-miterlimit:10;stroke-width:0.75px"/><path d="M348.223,203.056a4.178,4.178,0,0,1,1.808.783c1.775,1.364,2.3,4.252,1.392,7.289" transform="translate(0)" style="fill:#fff;stroke:#cbcac9;stroke-miterlimit:10;stroke-width:0.75px"/><path d="M361.156,201.925a4.193,4.193,0,0,0-1.644,1.084c-1.511,1.652-1.524,4.587-.106,7.421" transform="translate(0)" style="fill:#fff;stroke:#cbcac9;stroke-miterlimit:10;stroke-width:0.75px"/><path d="M369.14,237.232c-.439,5.02-5.41,8.7-4.751,8.106a28.04,28.04,0,0,0-4.918.712,32.33,32.33,0,0,0-3.289.981l-.246-.022a14.531,14.531,0,0,1-.481-1.691,16.616,16.616,0,0,1-.357-2.479,16.55,16.55,0,0,1-.781,2.379,14.52,14.52,0,0,1-.768,1.583l-.245-.022a32.509,32.509,0,0,0-3.069-1.537,28.146,28.146,0,0,0-4.72-1.556c.546.7-3.711-3.787-3.272-8.807.524-5.991,3.235-8.842,6.949-8.518a4.219,4.219,0,0,1,.818.163c1.39-1.891,4.876-2.837,6.75-2.673s5.142,1.7,6.183,3.8a4.284,4.284,0,0,1,.833-.018C367.49,227.962,369.665,231.241,369.14,237.232Z" transform="translate(0)" style="fill:#fff;stroke:#cbcac9;stroke-miterlimit:10;stroke-width:0.75px"/><path d="M365,245.253a23.813,23.813,0,0,1-2.418,1.948,21.221,21.221,0,0,1-3.193,1.919,17.65,17.65,0,0,1-4.986,1.628,17.691,17.691,0,0,1-4.626-2.468,21.329,21.329,0,0,1-2.812-2.445,23.858,23.858,0,0,1-2.043-2.339,29.981,29.981,0,0,1,5.021,1.654,34.735,34.735,0,0,1,3.265,1.636c.067.045.137.07.2.114a.33.33,0,0,1,.056-.091,15.314,15.314,0,0,0,.816-1.684,17.716,17.716,0,0,0,.832-2.531,17.676,17.676,0,0,0,.379,2.637,15.278,15.278,0,0,0,.512,1.8.357.357,0,0,1,.039.1c.075-.032.148-.045.222-.077a34.652,34.652,0,0,1,3.5-1.044A29.809,29.809,0,0,1,365,245.253Z" transform="translate(0)" style="fill:#f4ea26;stroke:#c6c22e;stroke-miterlimit:10;stroke-width:0.75px"/><path d="M350.01,226.524a4.183,4.183,0,0,1,1.644,1.084c1.511,1.652,1.524,4.587.105,7.421" transform="translate(0)" style="fill:#fff;stroke:#cbcac9;stroke-miterlimit:10;stroke-width:0.75px"/><path d="M362.943,227.655a4.178,4.178,0,0,0-1.808.783c-1.775,1.364-2.3,4.252-1.392,7.289" transform="translate(0)" style="fill:#fff;stroke:#cbcac9;stroke-miterlimit:10;stroke-width:0.75px"/><path d="M364.675,263.813c-1.305,4.867-6.84,7.628-6.087,7.157a28.136,28.136,0,0,0-4.967-.153,32.649,32.649,0,0,0-3.41.395l-.238-.064a14.359,14.359,0,0,1-.18-1.749,16.644,16.644,0,0,1,.079-2.5,16.6,16.6,0,0,1-1.182,2.207,14.566,14.566,0,0,1-1.031,1.425l-.238-.064a32.447,32.447,0,0,0-2.756-2.047,28.1,28.1,0,0,0-4.378-2.351c.416.785-3-4.374-1.692-9.241,1.556-5.81,4.721-8.147,8.322-7.182a4.215,4.215,0,0,1,.777.3c1.7-1.621,5.294-1.947,7.112-1.46s4.768,2.567,5.428,4.82a4.237,4.237,0,0,1,.824.127C364.659,254.4,366.231,258,364.675,263.813Z" transform="translate(0)" style="fill:#fff;stroke:#cbcac9;stroke-miterlimit:10;stroke-width:0.75px"/><path d="M359.207,270.993a23.919,23.919,0,0,1-2.72,1.5,21.2,21.2,0,0,1-3.478,1.335,17.659,17.659,0,0,1-5.192.738,17.67,17.67,0,0,1-4.127-3.235,21.227,21.227,0,0,1-2.345-2.9,23.926,23.926,0,0,1-1.606-2.658,30.037,30.037,0,0,1,4.658,2.5,34.705,34.705,0,0,1,2.931,2.178c.059.056.123.093.182.148a.349.349,0,0,1,.071-.08,15.6,15.6,0,0,0,1.1-1.516,17.781,17.781,0,0,0,1.258-2.349,17.767,17.767,0,0,0-.085,2.663,15.36,15.36,0,0,0,.192,1.862.344.344,0,0,1,.021.105c.079-.019.153-.019.232-.038a34.688,34.688,0,0,1,3.628-.42A29.822,29.822,0,0,1,359.207,270.993Z" transform="translate(0)" style="fill:#f4ea26;stroke:#c6c22e;stroke-miterlimit:10;stroke-width:0.75px"/><path d="M347.694,249.945a4.183,4.183,0,0,1,1.431,1.353c1.2,1.889.7,4.782-1.185,7.326" transform="translate(0)" style="fill:#fff;stroke:#cbcac9;stroke-miterlimit:10;stroke-width:0.75px"/><path d="M360.234,253.305a4.178,4.178,0,0,0-1.916.457c-1.985,1.035-3,3.788-2.637,6.936" transform="translate(0)" style="fill:#fff;stroke:#cbcac9;stroke-miterlimit:10;stroke-width:0.75px"/><path d="M410,286.737A223.925,223.925,0,0,1,320.6,263.4c-48.666-24.4-76.075-60.678-88.526-80.111a2,2,0,0,0-3.515.29c-2.067,4.731-5.121,10.1-8.374,9.921-4.484-.242-7.409-10.907-8.931-18.533a2,2,0,0,0-3.82-.324,151.26,151.26,0,0,1-11.009,22.7C152.037,272.091,57.3,283.957,44.02,285.42A218.7,218.7,0,0,1,20,286.737V340H410Z" transform="translate(0)" style="fill:#3c458a;stroke:#262c57;stroke-miterlimit:10;stroke-width:0.25px"/><polygon points="215 535 215 415 195 415 195 520 215 535"/><polygon points="215 415 215 448.956 207 446.75 207 449.433 215 453.25 215 535 235 520 235 415 215 415" style="fill:#fff"/><polygon points="245.77 365.22 242.2 358.05 235 366.21 235 340 215 340 215 354.832 208.214 348.063 204.2 356.137 215 366.937 215 415 235 415 235 375.99 245.77 365.22"/><polygon points="219.665 380.25 215 385.29 215 366.937 204.2 356.137 208.214 348.063 215 354.832 215 340 195 340 195 379.65 186.383 370.2 182.085 379.56 195 391.8 195 415 215 415 215 395.31 224.33 388.83 219.665 380.25" style="fill:#fff"/><polygon points="410 325 366.599 325 366.599 307.5 285.515 307.5 285.515 325 253.03 325 253.03 275 176.97 275 176.97 325 144.485 325 144.485 307.5 63.401 307.5 63.401 325 20 325 20 340 410 340 410 325" style="fill:#fcf608;stroke:#fcfcea;stroke-miterlimit:10;stroke-width:2px"/><rect x="215.156" y="276" width="19.844" height="64" transform="translate(450.156 616) rotate(180)" style="fill:#fff"/><rect x="195.312" y="276" width="19.844" height="64"/><rect x="195" y="258" width="20" height="14" style="fill:#fff"/><path d="M20,335c24.374,0,24.374,10,48.748,10s24.374-10,48.749-10,24.374,10,48.747,10,24.374-10,48.748-10,24.375,10,48.75,10,24.374-10,48.748-10,24.377,10,48.755,10S385.622,335,410,335" transform="translate(0)" style="fill:none;stroke:#fff;stroke-miterlimit:10;stroke-width:3px"/><path d="M20,332c24.374,0,24.374,10,48.748,10s24.374-10,48.749-10,24.374,10,48.747,10,24.374-10,48.748-10,24.375,10,48.75,10,24.374-10,48.748-10,24.377,10,48.755,10S385.622,332,410,332" transform="translate(0)" style="fill:none;stroke:#0097dc;stroke-miterlimit:10;stroke-width:3px"/><path d="M20,329c24.374,0,24.374,10,48.748,10s24.374-10,48.749-10,24.374,10,48.747,10,24.374-10,48.748-10,24.375,10,48.75,10,24.374-10,48.748-10,24.377,10,48.755,10S385.622,329,410,329" transform="translate(0)" style="fill:none;stroke:#fff;stroke-miterlimit:10;stroke-width:3px"/><path d="M20,338c24.374,0,24.374,10,48.748,10s24.374-10,48.749-10,24.374,10,48.747,10,24.374-10,48.748-10,24.375,10,48.75,10,24.374-10,48.748-10,24.377,10,48.755,10S385.622,338,410,338" transform="translate(0)" style="fill:none;stroke:#0097dc;stroke-miterlimit:10;stroke-width:3px"/><path d="M20,341c24.374,0,24.374,10,48.748,10s24.374-10,48.749-10,24.374,10,48.747,10,24.374-10,48.748-10,24.375,10,48.75,10,24.374-10,48.748-10,24.377,10,48.755,10S385.622,341,410,341" transform="translate(0)" style="fill:none;stroke:#fff;stroke-miterlimit:10;stroke-width:3px"/><polyline points="88.963 400.241 59.398 382.5 63.472 400.215 32.5 392.226 94.443 433.386 101.541 422.165" style="fill:#3c458a;stroke:#525fbd;stroke-miterlimit:10;stroke-width:2px"/><polyline points="341.037 400.241 370.602 382.5 366.528 400.215 397.5 392.226 335.557 433.386 328.459 422.165" style="fill:#3c458a;stroke:#525fbd;stroke-miterlimit:10;stroke-width:2px"/><line x1="94.443" y1="433.386" x2="81.301" y2="414.108" style="fill:#3c458a;stroke:#525fbd;stroke-miterlimit:10;stroke-width:2px"/><line x1="335.557" y1="433.386" x2="348.699" y2="414.108" style="fill:#3c458a;stroke:#525fbd;stroke-miterlimit:10;stroke-width:2px"/><path d="M336.608,392.226A446.416,446.416,0,0,1,215,409.115,446.4,446.4,0,0,1,93.392,392.226L81.3,414.108a393.78,393.78,0,0,0,267.4,0Z" transform="translate(0)" style="fill:#3c458a;stroke:#525fbd;stroke-miterlimit:10;stroke-width:2px"/><path d="M96.442,408.471q1.154.221,2.308.435a2.7,2.7,0,0,0,.372,1.835,2.667,2.667,0,0,0,1.541.983,2.76,2.76,0,0,0,1.819.01,1.383,1.383,0,0,0,.859-.912,1.026,1.026,0,0,0-.057-.732,2.008,2.008,0,0,0-.7-.706q-.369-.248-1.716-.994a6.5,6.5,0,0,1-2.29-1.825,2.926,2.926,0,0,1-.408-2.515,2.89,2.89,0,0,1,.943-1.432,3.185,3.185,0,0,1,1.724-.713,6.006,6.006,0,0,1,2.322.238,5.06,5.06,0,0,1,2.946,1.787,3.316,3.316,0,0,1,.479,2.74q-1.159-.257-2.321-.52a1.95,1.95,0,0,0-.3-1.4,2.441,2.441,0,0,0-1.344-.772,2.77,2.77,0,0,0-1.669-.038.826.826,0,0,0-.556.582.868.868,0,0,0,.151.765,6.257,6.257,0,0,0,1.9,1.326,12.254,12.254,0,0,1,2.267,1.474,3.144,3.144,0,0,1,.95,3.349,3.274,3.274,0,0,1-1.025,1.635,3.37,3.37,0,0,1-1.894.813,6.98,6.98,0,0,1-2.629-.288,5.309,5.309,0,0,1-3.091-1.915A4.259,4.259,0,0,1,96.442,408.471Z" transform="translate(0)" style="fill:#fff;stroke:#525fbd;stroke-miterlimit:10;stroke-width:0.25px"/><path d="M106.707,415.162q1.446-5.541,2.89-11.082,1.14.3,2.281.588l-2.826,11.1Q107.879,415.467,106.707,415.162Z" transform="translate(0)" style="fill:#fff;stroke:#525fbd;stroke-miterlimit:10;stroke-width:0.25px"/><path d="M111.311,416.336q1.384-5.558,2.767-11.115,1.112.278,2.224.548,1.416,4.279,2.921,8.552.861-3.726,1.721-7.452,1.065.246,2.131.486-1.26,5.586-2.519,11.173-1.183-.267-2.364-.54-1.51-4.182-2.932-8.372-.883,3.629-1.766,7.257Q112.4,416.608,111.311,416.336Z" transform="translate(0)" style="fill:#fff;stroke:#525fbd;stroke-miterlimit:10;stroke-width:0.25px"/><path d="M125.494,407.893q2.1.461,4.2.9a8.663,8.663,0,0,1,2.126.66,3.949,3.949,0,0,1,1.515,1.38,5.046,5.046,0,0,1,.737,2.036,8.314,8.314,0,0,1-.141,2.731,7.285,7.285,0,0,1-.824,2.323,4.972,4.972,0,0,1-1.641,1.738,4.235,4.235,0,0,1-1.84.563,7.47,7.47,0,0,1-2.141-.193q-2.225-.462-4.444-.949Q124.267,413.487,125.494,407.893Zm1.894,2.392q-.792,3.709-1.583,7.419.877.188,1.756.371a6.664,6.664,0,0,0,1.446.187,2.235,2.235,0,0,0,1.045-.273,2.391,2.391,0,0,0,.834-.959,7.22,7.22,0,0,0,.651-2.008,6.692,6.692,0,0,0,.166-2.047,2.634,2.634,0,0,0-.439-1.221,2.28,2.28,0,0,0-.963-.747,11.172,11.172,0,0,0-1.875-.5Z" transform="translate(0)" style="fill:#fff;stroke:#525fbd;stroke-miterlimit:10;stroke-width:0.25px"/><path d="M145.47,423.374q-1.293-.212-2.586-.432-.3-1.37-.584-2.739-2.337-.4-4.671-.834-.717,1.191-1.441,2.379-1.257-.235-2.514-.477,3.369-5.183,6.62-10.413,1.221.222,2.442.436Q144.038,417.336,145.47,423.374Zm-3.6-5.2q-.436-2.234-.856-4.467-1.152,1.953-2.318,3.9Q140.287,417.893,141.874,418.17Z" transform="translate(0)" style="fill:#fff;stroke:#525fbd;stroke-miterlimit:10;stroke-width:0.25px"/><path d="M146.756,423.583l1.818-11.308q1.126.182,2.253.356,1.763,4.143,3.613,8.273.543-3.786,1.087-7.571,1.077.154,2.155.3-.783,5.673-1.568,11.345-1.2-.165-2.392-.337-1.846-4.039-3.608-8.092-.575,3.69-1.148,7.38Q147.861,423.761,146.756,423.583Z" transform="translate(0)" style="fill:#fff;stroke:#525fbd;stroke-miterlimit:10;stroke-width:0.25px"/><path d="M164.636,421.833l.228-1.916q2.538.3,5.079.573-.243,2.268-.485,4.537a6.466,6.466,0,0,1-2.307.993,8.118,8.118,0,0,1-2.947.2,6.631,6.631,0,0,1-3.142-1.145,4.815,4.815,0,0,1-1.789-2.405,6.747,6.747,0,0,1-.286-3.116,6.52,6.52,0,0,1,1.177-3.051,5.16,5.16,0,0,1,2.485-1.831,6.162,6.162,0,0,1,2.827-.228,5.661,5.661,0,0,1,3.251,1.274,4.066,4.066,0,0,1,1.292,2.628q-1.186.088-2.377.171a2.43,2.43,0,0,0-.771-1.428,2.854,2.854,0,0,0-1.629-.683,3.245,3.245,0,0,0-2.552.657,4.006,4.006,0,0,0-1.265,2.714,4.369,4.369,0,0,0,.543,3.152,3.164,3.164,0,0,0,2.317,1.31,4.2,4.2,0,0,0,1.532-.108,5.159,5.159,0,0,0,1.367-.54l.162-1.444Q165.992,421.995,164.636,421.833Z" transform="translate(0)" style="fill:#fff;stroke:#525fbd;stroke-miterlimit:10;stroke-width:0.25px"/><path d="M171.529,426.829q.579-5.7,1.156-11.395,1.165.118,2.33.23-.243,2.531-.485,5.063,2.624-2.3,5.193-4.639,1.567.132,3.135.252-2.345,2.058-4.736,4.088,2.013,3.684,4.1,7.351-1.551-.119-3.1-.248-1.407-2.814-2.772-5.638-1.046.867-2.1,1.727-.165,1.722-.33,3.445Q172.727,426.95,171.529,426.829Z" transform="translate(0)" style="fill:#fff;stroke:#525fbd;stroke-miterlimit:10;stroke-width:0.25px"/><path d="M194.176,428.521q-1.3-.063-2.61-.133-.448-1.327-.89-2.655-2.361-.135-4.72-.294-.574,1.264-1.156,2.528-1.272-.09-2.543-.186,2.746-5.534,5.37-11.1,1.234.081,2.469.154Q192.072,422.686,194.176,428.521Zm-4.153-4.759q-.685-2.169-1.355-4.339-.918,2.071-1.852,4.139Q188.419,423.669,190.023,423.762Z" transform="translate(0)" style="fill:#fff;stroke:#525fbd;stroke-miterlimit:10;stroke-width:0.25px"/><path d="M195.014,424.83q1.162-.055,2.324-.117a2.709,2.709,0,0,0,.783,1.7,2.621,2.621,0,0,0,1.712.595,2.709,2.709,0,0,0,1.755-.415,1.39,1.39,0,0,0,.618-1.088,1.024,1.024,0,0,0-.225-.7,1.981,1.981,0,0,0-.839-.523q-.414-.153-1.884-.565a6.406,6.406,0,0,1-2.628-1.238,2.961,2.961,0,0,1-.4-3.962,3.157,3.157,0,0,1,1.5-1.1,5.918,5.918,0,0,1,2.293-.311,4.983,4.983,0,0,1,3.252,1.048,3.333,3.333,0,0,1,1.1,2.553q-1.179.021-2.359.036a1.968,1.968,0,0,0-.608-1.289,2.408,2.408,0,0,0-1.474-.436,2.73,2.73,0,0,0-1.617.354.829.829,0,0,0-.4.695.872.872,0,0,0,.323.709,6.159,6.159,0,0,0,2.139.845,11.909,11.909,0,0,1,2.525.9,3.293,3.293,0,0,1,1.266,1.2,3.35,3.35,0,0,1,.425,1.835,3.284,3.284,0,0,1-.61,1.83,3.345,3.345,0,0,1-1.638,1.233,6.876,6.876,0,0,1-2.6.335,5.226,5.226,0,0,1-3.421-1.139A4.28,4.28,0,0,1,195.014,424.83Z" transform="translate(0)" style="fill:#fff;stroke:#525fbd;stroke-miterlimit:10;stroke-width:0.25px"/><path d="M206.456,428.936l.222-11.452q1.17.024,2.338.039-.079,5.727-.158,11.452Q207.657,428.958,206.456,428.936Z" transform="translate(0)" style="fill:#fff;stroke:#525fbd;stroke-miterlimit:10;stroke-width:0.25px"/><path d="M211.154,429q.048-5.727.1-11.453,1.168.01,2.337.013l-.012,4.508q2.315.006,4.63-.012l-.036-4.508q1.169-.009,2.337-.026.079,5.727.158,11.452-1.2.016-2.4.027-.02-2.505-.041-5.008-2.325.019-4.652.013-.007,2.5-.014,5.007Q212.354,429.011,211.154,429Z" transform="translate(0)" style="fill:#fff;stroke:#525fbd;stroke-miterlimit:10;stroke-width:0.25px"/><path d="M227.048,425.112q1.155-.144,2.308-.292a2.709,2.709,0,0,0,.908,1.633,2.625,2.625,0,0,0,1.752.464,2.712,2.712,0,0,0,1.72-.546,1.393,1.393,0,0,0,.534-1.131,1.036,1.036,0,0,0-.277-.68,1.984,1.984,0,0,0-.877-.457c-.283-.082-.924-.221-1.921-.422a6.411,6.411,0,0,1-2.714-1.036,2.964,2.964,0,0,1-.695-3.922,3.155,3.155,0,0,1,1.41-1.207,5.933,5.933,0,0,1,2.262-.483,4.992,4.992,0,0,1,3.323.8,3.334,3.334,0,0,1,1.286,2.463q-1.175.111-2.35.214a1.957,1.957,0,0,0-.7-1.239,2.41,2.41,0,0,0-1.5-.325,2.735,2.735,0,0,0-1.586.475.832.832,0,0,0-.348.724.871.871,0,0,0,.375.682,6.162,6.162,0,0,0,2.2.682,11.976,11.976,0,0,1,2.586.71,3.374,3.374,0,0,1,1.445,4.767,3.355,3.355,0,0,1-1.541,1.354,6.858,6.858,0,0,1-2.568.529,5.217,5.217,0,0,1-3.5-.877A4.27,4.27,0,0,1,227.048,425.112Z" transform="translate(0)" style="fill:#fff;stroke:#525fbd;stroke-miterlimit:10;stroke-width:0.25px"/><path d="M238.181,416.905q1.167-.066,2.335-.138.191,3.094.383,6.191a12.558,12.558,0,0,0,.206,1.9,1.843,1.843,0,0,0,.8,1.081,2.593,2.593,0,0,0,1.6.321,2.447,2.447,0,0,0,1.5-.508,1.565,1.565,0,0,0,.549-1.03,12.268,12.268,0,0,0-.037-1.948q-.229-3.159-.46-6.319,1.166-.084,2.332-.176l.471,6a14.8,14.8,0,0,1,.035,2.92,3.152,3.152,0,0,1-.6,1.488,3.589,3.589,0,0,1-1.325,1.036,6.239,6.239,0,0,1-2.259.507,6.716,6.716,0,0,1-2.6-.211,3.665,3.665,0,0,1-1.446-.9,3.1,3.1,0,0,1-.743-1.229,13.523,13.523,0,0,1-.4-2.889Q238.353,419.955,238.181,416.905Z" transform="translate(0)" style="fill:#fff;stroke:#525fbd;stroke-miterlimit:10;stroke-width:0.25px"/><path d="M255.927,422.8q-.094-.96-.188-1.921,2.543-.248,5.083-.526.248,2.267.5,4.535a6.467,6.467,0,0,1-2.04,1.464,8.114,8.114,0,0,1-2.836.825,6.617,6.617,0,0,1-3.312-.447,4.818,4.818,0,0,1-2.26-1.966,6.756,6.756,0,0,1-.945-2.982,6.519,6.519,0,0,1,.5-3.233,5.155,5.155,0,0,1,2.033-2.32,6.143,6.143,0,0,1,2.71-.828,5.673,5.673,0,0,1,3.448.549,4.074,4.074,0,0,1,1.825,2.291q-1.141.34-2.286.676a2.436,2.436,0,0,0-1.059-1.231,2.853,2.853,0,0,0-1.736-.318,3.241,3.241,0,0,0-2.351,1.188,4.008,4.008,0,0,0-.654,2.922,4.377,4.377,0,0,0,1.2,2.962,3.153,3.153,0,0,0,2.541.784,4.2,4.2,0,0,0,1.473-.432,5.169,5.169,0,0,0,1.219-.82l-.15-1.446Q257.284,422.67,255.927,422.8Z" transform="translate(0)" style="fill:#fff;stroke:#525fbd;stroke-miterlimit:10;stroke-width:0.25px"/><path d="M263.624,426.22q-.654-5.69-1.307-11.378,1.164-.134,2.326-.274.686,5.685,1.37,11.371Q264.819,426.083,263.624,426.22Z" transform="translate(0)" style="fill:#fff;stroke:#525fbd;stroke-miterlimit:10;stroke-width:0.25px"/><path d="M268.3,425.658q-.717-5.682-1.432-11.364,1.162-.145,2.323-.3.294,2.235.589,4.469,2.3-.3,4.6-.631-.318-2.232-.637-4.463,1.159-.165,2.319-.338.842,5.666,1.684,11.329-1.191.177-2.383.347-.354-2.478-.709-4.957-2.307.33-4.618.634l.654,4.965Q269.49,425.507,268.3,425.658Z" transform="translate(0)" style="fill:#fff;stroke:#525fbd;stroke-miterlimit:10;stroke-width:0.25px"/><path d="M284.743,423.261q-.936-5.651-1.871-11.3,1.731-.287,3.461-.588,1.708,3.667,3.456,7.323.356-4.034.672-8.064,1.731-.32,3.46-.654l2.175,11.245q-1.1.213-2.2.42l-1.665-8.86q-.309,4.644-.666,9.292-1.141.207-2.285.41-1.947-4.235-3.847-8.483.761,4.444,1.52,8.887Q285.847,423.078,284.743,423.261Z" transform="translate(0)" style="fill:#fff;stroke:#525fbd;stroke-miterlimit:10;stroke-width:0.25px"/><path d="M296.2,409.532q1.151-.229,2.3-.465.624,3.037,1.246,6.076a12.287,12.287,0,0,0,.472,1.858,1.842,1.842,0,0,0,.946.957,2.612,2.612,0,0,0,1.641.092,2.473,2.473,0,0,0,1.425-.715,1.578,1.578,0,0,0,.4-1.1,12.536,12.536,0,0,0-.309-1.924l-1.341-6.192q1.149-.249,2.3-.5.654,2.935,1.307,5.872a14.873,14.873,0,0,1,.442,2.887,3.151,3.151,0,0,1-.392,1.559,3.615,3.615,0,0,1-1.174,1.212,6.3,6.3,0,0,1-2.177.821,6.781,6.781,0,0,1-2.621.158,3.662,3.662,0,0,1-1.564-.687,3.093,3.093,0,0,1-.911-1.112,13.4,13.4,0,0,1-.8-2.8Q296.791,412.529,296.2,409.532Z" transform="translate(0)" style="fill:#fff;stroke:#525fbd;stroke-miterlimit:10;stroke-width:0.25px"/><path d="M310.28,418.23q-1.276-5.583-2.554-11.165,1.146-.262,2.292-.531.58,2.475,1.162,4.951,1.761-3.025,3.461-6.064,1.537-.379,3.072-.771-1.578,2.7-3.205,5.4,3.1,2.842,6.271,5.641-1.517.389-3.037.764-2.244-2.213-4.452-4.447-.719,1.155-1.446,2.31.4,1.685.791,3.369Q311.458,417.96,310.28,418.23Z" transform="translate(0)" style="fill:#fff;stroke:#525fbd;stroke-miterlimit:10;stroke-width:0.25px"/><path d="M324.6,414.693q-1.221-4.6-2.44-9.2-1.683.447-3.367.878-.242-.937-.482-1.876,4.493-1.152,8.963-2.405.261.933.523,1.865-1.674.469-3.35.924l2.493,9.184Q325.773,414.382,324.6,414.693Z" transform="translate(0)" style="fill:#fff;stroke:#525fbd;stroke-miterlimit:10;stroke-width:0.25px"/><path d="M331.8,412.715q-1.565-5.51-3.13-11.017,1.135-.322,2.27-.652,1.594,5.5,3.191,11Q332.97,412.384,331.8,412.715Z" transform="translate(0)" style="fill:#fff;stroke:#525fbd;stroke-miterlimit:10;stroke-width:0.25px"/><path d="M315.267,23.211A18.422,18.422,0,0,0,304.891,20H125.109a18.422,18.422,0,0,0-10.376,3.211L28.374,82.029A19.353,19.353,0,0,0,20,98.038v300.3a19.345,19.345,0,0,0,8.531,16.115L204.781,531.9a18.369,18.369,0,0,0,20.438,0l176.25-117.442A19.345,19.345,0,0,0,410,398.338V98.038a19.353,19.353,0,0,0-8.374-16.009Z" transform="translate(0)" style="fill:none;stroke:#fff;stroke-miterlimit:10;stroke-width:5px"/><path d="M317.838,18.274A18.973,18.973,0,0,0,307.2,15H122.8a18.975,18.975,0,0,0-10.642,3.274L23.589,78.245A19.7,19.7,0,0,0,15,94.568v296.09a19.7,19.7,0,0,0,8.75,16.432L204.519,526.834a18.933,18.933,0,0,0,20.962,0L406.25,407.09A19.7,19.7,0,0,0,415,390.658V94.568a19.7,19.7,0,0,0-8.589-16.323Z" transform="translate(0)" style="fill:none;stroke:red;stroke-miterlimit:10;stroke-width:5px"/><polyline points="215 135 217.818 128.198 215 105 215 135" style="fill:#f4ea26;stroke:#c6c22e;stroke-miterlimit:10;stroke-width:0.25px;fill-rule:evenodd"/><polyline points="215 135 212.182 128.198 193.787 113.787 215 135" style="fill:#f4ea26;stroke:#c6c22e;stroke-miterlimit:10;stroke-width:0.25px;fill-rule:evenodd"/><polyline points="215 135 208.198 132.182 185 135 215 135" style="fill:#f4ea26;stroke:#c6c22e;stroke-miterlimit:10;stroke-width:0.25px;fill-rule:evenodd"/><polyline points="215 135 208.198 137.818 193.787 156.213 215 135" style="fill:#f4ea26;stroke:#c6c22e;stroke-miterlimit:10;stroke-width:0.25px;fill-rule:evenodd"/><polyline points="215 135 212.182 141.802 215 165 215 135" style="fill:#f4ea26;stroke:#c6c22e;stroke-miterlimit:10;stroke-width:0.25px;fill-rule:evenodd"/><polyline points="215 135 217.818 141.802 236.213 156.213 215 135" style="fill:#f4ea26;stroke:#c6c22e;stroke-miterlimit:10;stroke-width:0.25px;fill-rule:evenodd"/><polyline points="215 135 221.802 137.818 245 135 215 135" style="fill:#f4ea26;stroke:#c6c22e;stroke-miterlimit:10;stroke-width:0.25px;fill-rule:evenodd"/><polyline points="215 135 221.802 132.182 236.213 113.787 215 135" style="fill:#f4ea26;stroke:#c6c22e;stroke-miterlimit:10;stroke-width:0.25px;fill-rule:evenodd"/><polyline points="215 135 212.182 128.198 215 105 215 135" style="fill-rule:evenodd"/><polyline points="215 135 208.198 132.182 193.787 113.787 215 135" style="fill-rule:evenodd"/><polyline points="215 135 208.198 137.818 185 135 215 135" style="fill-rule:evenodd"/><polyline points="215 135 212.182 141.802 193.787 156.213 215 135" style="fill-rule:evenodd"/><polyline points="215 135 217.818 141.802 215 165 215 135" style="fill-rule:evenodd"/><polyline points="215 135 221.802 137.818 236.213 156.213 215 135" style="fill-rule:evenodd"/><polyline points="215 135 221.802 132.182 245 135 215 135" style="fill-rule:evenodd"/><polyline points="215 135 217.818 128.198 236.213 113.787 215 135" style="fill-rule:evenodd"/></svg>