<svg width="85" height="88" viewBox="0 0 85 88" fill="none" xmlns="http://www.w3.org/2000/svg">
<g filter="url(#filter0_ddd_4267_39051)">
<g clip-path="url(#clip0_4267_39051)">
<circle cx="42.5" cy="40" r="18" fill="#FF8D0A"/>
<g clip-path="url(#clip1_4267_39051)">
<path d="M50.75 34.1667H47.5V31.6667C47.5 31.2083 47.125 30.8333 46.6667 30.8333C46.2084 30.8333 45.8334 31.2083 45.8334 31.6667V34.1667H42.5834C42.0917 34.1667 41.7084 34.5917 41.75 35.0833L41.85 36.0917C44.9167 36.8 47.5 38.975 47.5 42.5L47.5167 49.1667H48.9334C49.6334 49.1667 50.2084 48.625 50.2917 47.9417L51.575 35.0833C51.625 34.5917 51.2417 34.1667 50.75 34.1667ZM45 47.5H34.1667C33.7084 47.5 33.3334 47.875 33.3334 48.3333C33.3334 48.7917 33.7084 49.1667 34.1667 49.1667H45C45.4584 49.1667 45.8334 48.7917 45.8334 48.3333C45.8334 47.875 45.4584 47.5 45 47.5ZM34.25 42.5H44.9167C45.4334 42.5 45.8417 42.0333 45.7417 41.5333C45.2 38.8417 42.3917 37.4917 39.5834 37.4917C36.775 37.4917 33.975 38.8417 33.425 41.5333C33.325 42.0333 33.7417 42.5 34.25 42.5ZM45 44.1667H34.1667C33.7084 44.1667 33.3334 44.5417 33.3334 45C33.3334 45.4583 33.7084 45.8333 34.1667 45.8333H45C45.4584 45.8333 45.8334 45.4583 45.8334 45C45.8334 44.5417 45.4584 44.1667 45 44.1667Z" fill="white"/>
</g>
</g>
<path d="M44.6617 59.7535C43.6461 60.8089 43.1383 61.3367 42.5 61.3367C41.8617 61.3367 41.3539 60.8089 40.3383 59.7535L38.7281 58.0801C36.6402 55.9103 35.5962 54.8253 35.9846 53.9127C36.3729 53 37.8786 53 40.8898 53L44.1102 53C47.1214 53 48.6271 53 49.0154 53.9127C49.4038 54.8253 48.3598 55.9103 46.2719 58.0801L44.6617 59.7535Z" fill="#FF8D0A"/>
</g>
<defs>
<filter id="filter0_ddd_4267_39051" x="0.5" y="0" width="84" height="88" filterUnits="userSpaceOnUse" color-interpolation-filters="sRGB">
<feFlood flood-opacity="0" result="BackgroundImageFix"/>
<feColorMatrix in="SourceAlpha" type="matrix" values="0 0 0 0 0 0 0 0 0 0 0 0 0 0 0 0 0 0 127 0" result="hardAlpha"/>
<feMorphology radius="4" operator="erode" in="SourceAlpha" result="effect1_dropShadow_4267_39051"/>
<feOffset dy="12"/>
<feGaussianBlur stdDeviation="8"/>
<feColorMatrix type="matrix" values="0 0 0 0 0.000292969 0 0 0 0 0.000292969 0 0 0 0 0.000292969 0 0 0 0.08 0"/>
<feBlend mode="normal" in2="BackgroundImageFix" result="effect1_dropShadow_4267_39051"/>
<feColorMatrix in="SourceAlpha" type="matrix" values="0 0 0 0 0 0 0 0 0 0 0 0 0 0 0 0 0 0 127 0" result="hardAlpha"/>
<feMorphology radius="2" operator="erode" in="SourceAlpha" result="effect2_dropShadow_4267_39051"/>
<feOffset dy="4"/>
<feGaussianBlur stdDeviation="8"/>
<feColorMatrix type="matrix" values="0 0 0 0 0 0 0 0 0 0 0 0 0 0 0 0 0 0 0.03 0"/>
<feBlend mode="normal" in2="effect1_dropShadow_4267_39051" result="effect2_dropShadow_4267_39051"/>
<feColorMatrix in="SourceAlpha" type="matrix" values="0 0 0 0 0 0 0 0 0 0 0 0 0 0 0 0 0 0 127 0" result="hardAlpha"/>
<feOffset dy="2"/>
<feGaussianBlur stdDeviation="12"/>
<feComposite in2="hardAlpha" operator="out"/>
<feColorMatrix type="matrix" values="0 0 0 0 0 0 0 0 0 0 0 0 0 0 0 0 0 0 0.8 0"/>
<feBlend mode="normal" in2="effect2_dropShadow_4267_39051" result="effect3_dropShadow_4267_39051"/>
<feBlend mode="normal" in="SourceGraphic" in2="effect3_dropShadow_4267_39051" result="shape"/>
</filter>
<clipPath id="clip0_4267_39051">
<rect x="24.5" y="22" width="36" height="36" rx="18" fill="white"/>
</clipPath>
<clipPath id="clip1_4267_39051">
<rect width="20" height="20" fill="white" transform="translate(32.5 30)"/>
</clipPath>
</defs>
</svg>
