<svg width="85" height="88" viewBox="0 0 85 88" fill="none" xmlns="http://www.w3.org/2000/svg">
<g filter="url(#filter0_ddd_4267_39034)">
<g clip-path="url(#clip0_4267_39034)">
<circle cx="42.5" cy="40" r="18" fill="#FFAD0A"/>
<path d="M49.7917 48.75V48.0208V40.7292H50.5208C50.9583 40.7292 51.25 41.0208 51.25 41.4583V48.0208C51.25 48.4583 50.9583 48.75 50.5208 48.75H49.7917ZM35.2083 48.0208V48.75H34.4792C34.0417 48.75 33.75 48.4583 33.75 48.0208V41.4583C33.75 41.0208 34.0417 40.7292 34.4792 40.7292H35.2083V48.0208ZM47.6042 31.25C48.0417 31.25 48.3333 31.5417 48.3333 31.9792V48.0208C48.3333 48.4583 48.0417 48.75 47.6042 48.75H43.2292V45.8333H41.7708V48.75H37.3958C36.9583 48.75 36.6667 48.4583 36.6667 48.0208V31.9792C36.6667 31.5417 36.9583 31.25 37.3958 31.25H47.6042ZM41.0417 43.6458V42.1875H38.8542V43.6458H41.0417ZM41.0417 40.7292V39.2708H38.8542V40.7292H41.0417ZM41.0417 37.8125V36.3542H38.8542V37.8125H41.0417ZM41.0417 34.8958V33.4375H38.8542V34.8958H41.0417ZM46.1458 43.6458V42.1875H43.9583V43.6458H46.1458ZM46.1458 40.7292V39.2708H43.9583V40.7292H46.1458ZM46.1458 37.8125V36.3542H43.9583V37.8125H46.1458ZM46.1458 34.8958V33.4375H43.9583V34.8958H46.1458Z" fill="white"/>
</g>
<path d="M44.6617 59.7535C43.6461 60.8089 43.1383 61.3367 42.5 61.3367C41.8617 61.3367 41.3539 60.8089 40.3383 59.7535L38.7281 58.0801C36.6402 55.9103 35.5962 54.8253 35.9846 53.9127C36.3729 53 37.8786 53 40.8898 53L44.1102 53C47.1214 53 48.6271 53 49.0154 53.9127C49.4038 54.8253 48.3598 55.9103 46.2719 58.0801L44.6617 59.7535Z" fill="#FFAD0A"/>
</g>
<defs>
<filter id="filter0_ddd_4267_39034" x="0.5" y="0" width="84" height="88" filterUnits="userSpaceOnUse" color-interpolation-filters="sRGB">
<feFlood flood-opacity="0" result="BackgroundImageFix"/>
<feColorMatrix in="SourceAlpha" type="matrix" values="0 0 0 0 0 0 0 0 0 0 0 0 0 0 0 0 0 0 127 0" result="hardAlpha"/>
<feMorphology radius="4" operator="erode" in="SourceAlpha" result="effect1_dropShadow_4267_39034"/>
<feOffset dy="12"/>
<feGaussianBlur stdDeviation="8"/>
<feColorMatrix type="matrix" values="0 0 0 0 0.000292969 0 0 0 0 0.000292969 0 0 0 0 0.000292969 0 0 0 0.08 0"/>
<feBlend mode="normal" in2="BackgroundImageFix" result="effect1_dropShadow_4267_39034"/>
<feColorMatrix in="SourceAlpha" type="matrix" values="0 0 0 0 0 0 0 0 0 0 0 0 0 0 0 0 0 0 127 0" result="hardAlpha"/>
<feMorphology radius="2" operator="erode" in="SourceAlpha" result="effect2_dropShadow_4267_39034"/>
<feOffset dy="4"/>
<feGaussianBlur stdDeviation="8"/>
<feColorMatrix type="matrix" values="0 0 0 0 0 0 0 0 0 0 0 0 0 0 0 0 0 0 0.03 0"/>
<feBlend mode="normal" in2="effect1_dropShadow_4267_39034" result="effect2_dropShadow_4267_39034"/>
<feColorMatrix in="SourceAlpha" type="matrix" values="0 0 0 0 0 0 0 0 0 0 0 0 0 0 0 0 0 0 127 0" result="hardAlpha"/>
<feOffset dy="2"/>
<feGaussianBlur stdDeviation="12"/>
<feComposite in2="hardAlpha" operator="out"/>
<feColorMatrix type="matrix" values="0 0 0 0 0 0 0 0 0 0 0 0 0 0 0 0 0 0 0.8 0"/>
<feBlend mode="normal" in2="effect2_dropShadow_4267_39034" result="effect3_dropShadow_4267_39034"/>
<feBlend mode="normal" in="SourceGraphic" in2="effect3_dropShadow_4267_39034" result="shape"/>
</filter>
<clipPath id="clip0_4267_39034">
<rect x="24.5" y="22" width="36" height="36" rx="18" fill="white"/>
</clipPath>
</defs>
</svg>
