<svg width="40" height="64" viewBox="0 0 40 64" fill="none" xmlns="http://www.w3.org/2000/svg">
<path d="M20 62C23.3137 62 26 59.3137 26 55.9999C26 52.6863 23.3137 50 20 50C16.6863 50 14 52.6863 14 55.9999C14 59.3137 16.6863 62 20 62Z" fill="#1D2939"/>
<path fill-rule="evenodd" clip-rule="evenodd" d="M20 51.1584C17.326 51.1584 15.1584 53.3261 15.1584 56C15.1584 58.6739 17.326 60.8416 20 60.8416C22.6739 60.8416 24.8416 58.6739 24.8416 56C24.8416 53.3261 22.6739 51.1584 20 51.1584ZM12 56C12 51.5817 15.5817 48 20 48C24.4183 48 28 51.5817 28 56C28 60.4183 24.4183 64 20 64C15.5817 64 12 60.4183 12 56Z" fill="white"/>
<path fill-rule="evenodd" clip-rule="evenodd" d="M18 32H22V52H18V32Z" fill="#1D2939"/>
<g clip-path="url(#clip0_4326_40809)">
<circle cx="20" cy="20" r="20" fill="#C03060"/>
<g clip-path="url(#clip1_4326_40809)">
<path d="M22.17 21.71L23.57 19.29C23.66 19.14 23.62 18.95 23.49 18.84L22.01 17.68C22.04 17.46 22.06 17.23 22.06 17C22.06 16.77 22.04 16.54 22.01 16.31L23.49 15.15C23.62 15.04 23.66 14.85 23.57 14.7L22.17 12.28C22.08 12.13 21.9 12.07 21.74 12.13L20 12.83C19.64 12.55 19.25 12.32 18.82 12.14L18.56 10.29C18.53 10.13 18.38 10 18.21 10H15.41C15.24 10 15.09 10.13 15.06 10.3L14.8 12.15C14.38 12.33 13.98 12.56 13.62 12.84L11.88 12.14C11.72 12.08 11.54 12.14 11.45 12.29L10.05 14.71C9.96 14.86 10 15.05 10.13 15.16L11.61 16.32C11.58 16.54 11.56 16.77 11.56 17C11.56 17.23 11.58 17.46 11.61 17.69L10.13 18.85C10 18.96 9.96 19.15 10.05 19.3L11.45 21.72C11.54 21.87 11.72 21.93 11.88 21.87L13.62 21.17C13.98 21.45 14.37 21.68 14.8 21.86L15.06 23.71C15.09 23.87 15.24 24 15.41 24H18.21C18.38 24 18.53 23.87 18.56 23.7L18.82 21.85C19.24 21.67 19.64 21.44 20 21.16L21.74 21.86C21.9 21.92 22.08 21.86 22.17 21.71ZM16.81 19C15.71 19 14.81 18.1 14.81 17C14.81 15.9 15.71 15 16.81 15C17.91 15 18.81 15.9 18.81 17C18.81 18.1 17.91 19 16.81 19Z" fill="white"/>
<path d="M29.92 26.67L28.96 25.93C28.98 25.79 29 25.64 29 25.49C29 25.34 28.99 25.19 28.96 25.05L29.91 24.31C29.99 24.24 30.02 24.12 29.96 24.02L29.06 22.47C29.01 22.37 28.89 22.34 28.78 22.37L27.67 22.82C27.44 22.64 27.19 22.49 26.91 22.38L26.74 21.2C26.73 21.08 26.63 21 26.53 21H24.74C24.63 21 24.53 21.08 24.52 21.19L24.35 22.37C24.08 22.49 23.82 22.63 23.59 22.81L22.48 22.36C22.38 22.32 22.26 22.36 22.2 22.46L21.3 24.01C21.25 24.11 21.26 24.23 21.35 24.3L22.3 25.04C22.28 25.18 22.27 25.33 22.27 25.48C22.27 25.63 22.28 25.78 22.3 25.92L21.35 26.66C21.27 26.73 21.24 26.85 21.3 26.95L22.2 28.5C22.25 28.6 22.37 28.63 22.48 28.6L23.59 28.15C23.82 28.33 24.07 28.48 24.35 28.59L24.52 29.77C24.54 29.88 24.63 29.96 24.74 29.96H26.53C26.64 29.96 26.74 29.88 26.75 29.77L26.92 28.59C27.19 28.47 27.45 28.33 27.67 28.15L28.79 28.6C28.89 28.64 29.01 28.6 29.07 28.5L29.97 26.95C30.03 26.86 30 26.74 29.92 26.67ZM25.63 26.83C24.89 26.83 24.28 26.23 24.28 25.48C24.28 24.73 24.88 24.13 25.63 24.13C26.38 24.13 26.98 24.73 26.98 25.48C26.98 26.23 26.37 26.83 25.63 26.83Z" fill="white"/>
</g>
</g>
<defs>
<clipPath id="clip0_4326_40809">
<rect width="40" height="40" rx="20" fill="white"/>
</clipPath>
<clipPath id="clip1_4326_40809">
<rect width="24" height="24" fill="white" transform="translate(8 8)"/>
</clipPath>
</defs>
</svg>
