<svg width="40" height="64" viewBox="0 0 40 64" fill="none" xmlns="http://www.w3.org/2000/svg">
<path d="M20 62C23.3137 62 26 59.3137 26 55.9999C26 52.6863 23.3137 50 20 50C16.6863 50 14 52.6863 14 55.9999C14 59.3137 16.6863 62 20 62Z" fill="#1D2939"/>
<path fill-rule="evenodd" clip-rule="evenodd" d="M20 51.1584C17.326 51.1584 15.1584 53.3261 15.1584 56C15.1584 58.6739 17.326 60.8416 20 60.8416C22.6739 60.8416 24.8416 58.6739 24.8416 56C24.8416 53.3261 22.6739 51.1584 20 51.1584ZM12 56C12 51.5817 15.5817 48 20 48C24.4183 48 28 51.5817 28 56C28 60.4183 24.4183 64 20 64C15.5817 64 12 60.4183 12 56Z" fill="white"/>
<path fill-rule="evenodd" clip-rule="evenodd" d="M18 32H22V52H18V32Z" fill="#1D2939"/>
<g clip-path="url(#clip0_4283_38911)">
<circle cx="20" cy="20" r="20" fill="#FFAD0A"/>
<path d="M28.1019 29.7222V28.912V20.8102H28.9121C29.3982 20.8102 29.7223 21.1343 29.7223 21.6204V28.912C29.7223 29.3981 29.3982 29.7222 28.9121 29.7222H28.1019ZM11.8982 28.912V29.7222H11.088C10.6019 29.7222 10.2778 29.3981 10.2778 28.912V21.6204C10.2778 21.1343 10.6019 20.8102 11.088 20.8102H11.8982V28.912ZM25.6713 10.2778C26.1575 10.2778 26.4815 10.6018 26.4815 11.088V28.912C26.4815 29.3981 26.1575 29.7222 25.6713 29.7222H20.8102V26.4815H19.1899V29.7222H14.3288C13.8426 29.7222 13.5186 29.3981 13.5186 28.912V11.088C13.5186 10.6018 13.8426 10.2778 14.3288 10.2778H25.6713ZM18.3797 24.0509V22.4305H15.9491V24.0509H18.3797ZM18.3797 20.8102V19.1898H15.9491V20.8102H18.3797ZM18.3797 17.5694V15.9491H15.9491V17.5694H18.3797ZM18.3797 14.3287V12.7083H15.9491V14.3287H18.3797ZM24.051 24.0509V22.4305H21.6204V24.0509H24.051ZM24.051 20.8102V19.1898H21.6204V20.8102H24.051ZM24.051 17.5694V15.9491H21.6204V17.5694H24.051ZM24.051 14.3287V12.7083H21.6204V14.3287H24.051Z" fill="white"/>
</g>
<defs>
<clipPath id="clip0_4283_38911">
<rect width="40" height="40" rx="20" fill="white"/>
</clipPath>
</defs>
</svg>
