<svg width="40" height="64" viewBox="0 0 40 64" fill="none" xmlns="http://www.w3.org/2000/svg">
<path d="M20 62C23.3137 62 26 59.3137 26 55.9999C26 52.6863 23.3137 50 20 50C16.6863 50 14 52.6863 14 55.9999C14 59.3137 16.6863 62 20 62Z" fill="#1D2939"/>
<path fill-rule="evenodd" clip-rule="evenodd" d="M20 51.1584C17.326 51.1584 15.1584 53.3261 15.1584 56C15.1584 58.6739 17.326 60.8416 20 60.8416C22.6739 60.8416 24.8416 58.6739 24.8416 56C24.8416 53.3261 22.6739 51.1584 20 51.1584ZM12 56C12 51.5817 15.5817 48 20 48C24.4183 48 28 51.5817 28 56C28 60.4183 24.4183 64 20 64C15.5817 64 12 60.4183 12 56Z" fill="white"/>
<path fill-rule="evenodd" clip-rule="evenodd" d="M18 32H22V52H18V32Z" fill="#1D2939"/>
<g clip-path="url(#clip0_4283_38791)">
<circle cx="20" cy="20" r="20" fill="#AF261D"/>
<path fill-rule="evenodd" clip-rule="evenodd" d="M10.7408 16.9625C10.7408 16.9625 18.8469 13.3493 20 10.7407C21.1533 13.3496 29.2593 16.9625 29.2593 16.9625C29.2593 16.9625 26.5676 26.1959 27.9134 28.103H27.9789C28.2412 28.103 28.4553 28.3599 28.4553 28.6762C28.4553 29.0023 28.2413 29.2592 27.9789 29.2592H23.5237C23.4133 29.2592 23.3098 29.2197 23.22 29.1308C22.5021 28.439 21.812 27.0456 21.2321 25.5338C20.7352 24.2295 20.3037 22.7569 20 21.6204C19.6963 22.7568 19.265 24.2293 18.7611 25.5338C18.1882 27.026 17.5118 28.3996 16.8009 29.1012C16.7181 29.2 16.6007 29.2592 16.4765 29.2592H12.0213C11.7521 29.2592 11.5381 29.0023 11.5381 28.6762C11.5381 28.3599 11.7521 28.103 12.0213 28.103H12.0869C13.4259 26.1958 10.7408 16.9625 10.7408 16.9625Z" fill="white"/>
</g>
<defs>
<clipPath id="clip0_4283_38791">
<rect width="40" height="40" rx="20" fill="white"/>
</clipPath>
</defs>
</svg>
