<svg width="40" height="64" viewBox="0 0 40 64" fill="none" xmlns="http://www.w3.org/2000/svg">
<path d="M20 62C23.3137 62 26 59.3137 26 55.9999C26 52.6863 23.3137 50 20 50C16.6863 50 14 52.6863 14 55.9999C14 59.3137 16.6863 62 20 62Z" fill="#1D2939"/>
<path fill-rule="evenodd" clip-rule="evenodd" d="M20 51.1584C17.326 51.1584 15.1584 53.3261 15.1584 56C15.1584 58.6739 17.326 60.8416 20 60.8416C22.6739 60.8416 24.8416 58.6739 24.8416 56C24.8416 53.3261 22.6739 51.1584 20 51.1584ZM12 56C12 51.5817 15.5817 48 20 48C24.4183 48 28 51.5817 28 56C28 60.4183 24.4183 64 20 64C15.5817 64 12 60.4183 12 56Z" fill="white"/>
<path fill-rule="evenodd" clip-rule="evenodd" d="M18 32H22V52H18V32Z" fill="#1D2939"/>
<g clip-path="url(#clip0_4283_38933)">
<circle cx="20" cy="20" r="20" fill="#28DC34"/>
<path fill-rule="evenodd" clip-rule="evenodd" d="M17.1612 10.7407C16.3404 10.7407 15.6332 10.7406 15.0668 10.8168C14.4599 10.8984 13.8781 11.0824 13.4062 11.5543C12.9343 12.0262 12.7502 12.608 12.6686 13.215C12.5925 13.7813 12.5925 14.4886 12.5926 15.3094V27.4074H11.6666C11.1553 27.4074 10.7407 27.8219 10.7407 28.3333C10.7407 28.8447 11.1553 29.2592 11.6666 29.2592H28.3333C28.8447 29.2592 29.2592 28.8447 29.2592 28.3333C29.2592 27.8219 28.8447 27.4074 28.3333 27.4074H27.4074V15.3094C27.4075 14.4886 27.4075 13.7813 27.3314 13.215C27.2497 12.608 27.0657 12.0262 26.5938 11.5543C26.1219 11.0824 25.5401 10.8984 24.9331 10.8168C24.3667 10.7406 23.6595 10.7407 22.8387 10.7407H17.1612ZM19.0741 16.2963C19.0741 16.8077 18.6595 17.2222 18.1481 17.2222H17.2222C16.7108 17.2222 16.2963 16.8077 16.2963 16.2963C16.2963 15.7849 16.7108 15.3704 17.2222 15.3704H18.1481C18.6595 15.3704 19.0741 15.7849 19.0741 16.2963ZM18.1481 20.9259C18.6595 20.9259 19.0741 20.5114 19.0741 20C19.0741 19.4886 18.6595 19.0741 18.1481 19.0741H17.2222C16.7108 19.0741 16.2963 19.4886 16.2963 20C16.2963 20.5114 16.7108 20.9259 17.2222 20.9259H18.1481ZM19.0741 23.7037C19.0741 24.2151 18.6595 24.6296 18.1481 24.6296H17.2222C16.7108 24.6296 16.2963 24.2151 16.2963 23.7037C16.2963 23.1923 16.7108 22.7778 17.2222 22.7778H18.1481C18.6595 22.7778 19.0741 23.1923 19.0741 23.7037ZM22.7778 17.2222C23.2891 17.2222 23.7037 16.8077 23.7037 16.2963C23.7037 15.7849 23.2891 15.3704 22.7778 15.3704H21.8518C21.3404 15.3704 20.9259 15.7849 20.9259 16.2963C20.9259 16.8077 21.3404 17.2222 21.8518 17.2222H22.7778ZM23.7037 20C23.7037 20.5114 23.2891 20.9259 22.7778 20.9259H21.8518C21.3404 20.9259 20.9259 20.5114 20.9259 20C20.9259 19.4886 21.3404 19.0741 21.8518 19.0741H22.7778C23.2891 19.0741 23.7037 19.4886 23.7037 20ZM22.7778 24.6296C23.2891 24.6296 23.7037 24.2151 23.7037 23.7037C23.7037 23.1923 23.2891 22.7778 22.7778 22.7778H21.8518C21.3404 22.7778 20.9259 23.1923 20.9259 23.7037C20.9259 24.2151 21.3404 24.6296 21.8518 24.6296H22.7778Z" fill="white"/>
</g>
<defs>
<clipPath id="clip0_4283_38933">
<rect width="40" height="40" rx="20" fill="white"/>
</clipPath>
</defs>
</svg>
