<svg width="40" height="64" viewBox="0 0 40 64" fill="none" xmlns="http://www.w3.org/2000/svg">
<path d="M20 62C23.3137 62 26 59.3137 26 55.9999C26 52.6863 23.3137 50 20 50C16.6863 50 14 52.6863 14 55.9999C14 59.3137 16.6863 62 20 62Z" fill="#1D2939"/>
<path fill-rule="evenodd" clip-rule="evenodd" d="M20 51.1584C17.326 51.1584 15.1584 53.3261 15.1584 56C15.1584 58.6739 17.326 60.8416 20 60.8416C22.6739 60.8416 24.8416 58.6739 24.8416 56C24.8416 53.3261 22.6739 51.1584 20 51.1584ZM12 56C12 51.5817 15.5817 48 20 48C24.4183 48 28 51.5817 28 56C28 60.4183 24.4183 64 20 64C15.5817 64 12 60.4183 12 56Z" fill="white"/>
<path fill-rule="evenodd" clip-rule="evenodd" d="M18 32H22V52H18V32Z" fill="#1D2939"/>
<g clip-path="url(#clip0_4283_38968)">
<circle cx="20" cy="20" r="20" fill="#AC32D7"/>
<path d="M25.5686 17.6319C25.6339 17.3467 25.6667 17.0552 25.6667 16.7593C25.6667 14.731 24.1686 13.0466 22.2206 12.7534C21.7273 11.3043 20.3491 10.2778 18.7801 10.2778C16.7697 10.2778 15.1343 11.9132 15.1343 13.9236C15.1343 14.0553 15.143 14.1887 15.1608 14.3255C14.1322 15.0831 13.5139 16.2782 13.5139 17.5694C13.5139 17.6798 13.5191 17.7902 13.5301 17.9025C12.0751 18.5331 11.0834 19.9901 11.0834 21.6204C11.0834 23.8539 12.9007 25.6713 15.1343 25.6713H19.1852V28.1018H15.9445C15.4971 28.1018 15.1343 28.4646 15.1343 28.912C15.1343 29.3595 15.4971 29.7222 15.9445 29.7222H24.0463C24.4938 29.7222 24.8565 29.3595 24.8565 28.912C24.8565 28.4646 24.4938 28.1018 24.0463 28.1018H20.8056V25.6713H24.8565C27.0901 25.6713 28.9074 23.8539 28.9074 21.6204C28.9074 19.6293 27.4639 17.9694 25.5686 17.6319Z" fill="white"/>
</g>
<defs>
<clipPath id="clip0_4283_38968">
<rect width="40" height="40" rx="20" fill="white"/>
</clipPath>
</defs>
</svg>
