<svg width="40" height="64" viewBox="0 0 40 64" fill="none" xmlns="http://www.w3.org/2000/svg">
<path d="M20 62C23.3137 62 26 59.3137 26 55.9999C26 52.6863 23.3137 50 20 50C16.6863 50 14 52.6863 14 55.9999C14 59.3137 16.6863 62 20 62Z" fill="#1D2939"/>
<path fill-rule="evenodd" clip-rule="evenodd" d="M20 51.1584C17.326 51.1584 15.1584 53.3261 15.1584 56C15.1584 58.6739 17.326 60.8416 20 60.8416C22.6739 60.8416 24.8416 58.6739 24.8416 56C24.8416 53.3261 22.6739 51.1584 20 51.1584ZM12 56C12 51.5817 15.5817 48 20 48C24.4183 48 28 51.5817 28 56C28 60.4183 24.4183 64 20 64C15.5817 64 12 60.4183 12 56Z" fill="white"/>
<path fill-rule="evenodd" clip-rule="evenodd" d="M18 32H22V52H18V32Z" fill="#1D2939"/>
<g clip-path="url(#clip0_4326_40845)">
<circle cx="20" cy="20" r="20" fill="#097C69"/>
<path fill-rule="evenodd" clip-rule="evenodd" d="M16.3791 11H24.1376C27.5076 11 29.5167 13.0091 29.5074 16.3791V24.1376C29.5074 27.5076 27.4983 29.5167 24.1283 29.5167H16.3791C13.0091 29.5167 11 27.5076 11 24.1283V16.3791C11 13.0091 13.0091 11 16.3791 11ZM25.6283 22.8867L25.8674 21.8017C25.9841 21.2708 25.6691 20.67 25.1616 20.4658L24.3333 20.1333L21.1191 18.8442C20.8391 18.7333 20.5416 18.675 20.2499 18.675C19.9583 18.675 19.6608 18.7333 19.3808 18.8442L16.1666 20.1333L15.3383 20.4658C14.8308 20.67 14.5158 21.2708 14.6324 21.8017L14.8716 22.8867C15.2858 24.7533 16.7499 26.0833 18.8616 26.0833H21.6383C23.7499 26.0833 25.2141 24.7533 25.6283 22.8867ZM24.3334 17.9167V18.7567C24.3334 18.9608 24.1234 19.1067 23.9309 19.025L21.4401 18.0275C20.6759 17.73 19.8242 17.73 19.0542 18.0333L16.5692 19.0308C16.3767 19.1125 16.1667 18.9667 16.1667 18.7625V17.9167C16.1667 16.9542 16.9542 16.1667 17.9167 16.1667H18.7917V15C18.7917 14.6792 19.0542 14.4167 19.3751 14.4167H21.1251C21.4459 14.4167 21.7084 14.6792 21.7084 15V16.1667H22.5834C23.5459 16.1667 24.3334 16.9542 24.3334 17.9167Z" fill="white"/>
</g>
<defs>
<clipPath id="clip0_4326_40845">
<rect width="40" height="40" rx="20" fill="white"/>
</clipPath>
</defs>
</svg>
