<svg width="40" height="64" viewBox="0 0 40 64" fill="none" xmlns="http://www.w3.org/2000/svg">
<path d="M20 62C23.3137 62 26 59.3137 26 55.9999C26 52.6863 23.3137 50 20 50C16.6863 50 14 52.6863 14 55.9999C14 59.3137 16.6863 62 20 62Z" fill="#1D2939"/>
<path fill-rule="evenodd" clip-rule="evenodd" d="M20 51.1584C17.326 51.1584 15.1584 53.3261 15.1584 56C15.1584 58.6739 17.326 60.8416 20 60.8416C22.6739 60.8416 24.8416 58.6739 24.8416 56C24.8416 53.3261 22.6739 51.1584 20 51.1584ZM12 56C12 51.5817 15.5817 48 20 48C24.4183 48 28 51.5817 28 56C28 60.4183 24.4183 64 20 64C15.5817 64 12 60.4183 12 56Z" fill="white"/>
<path fill-rule="evenodd" clip-rule="evenodd" d="M18 32H22V52H18V32Z" fill="#1D2939"/>
<g clip-path="url(#clip0_4283_38866)">
<circle cx="20" cy="20" r="20" fill="#525DF4"/>
<path d="M24.8155 8.88889H15.9266C12.5933 8.88889 10.3711 11.1111 10.3711 14.4444V25.5556C10.3711 28.8889 12.5933 31.1111 15.9266 31.1111H24.8155C28.1489 31.1111 30.3711 28.8889 30.3711 25.5556V14.4444C30.3711 11.1111 28.1489 8.88889 24.8155 8.88889ZM26.56 16.0889L24.1378 19.9778C24.0711 20.0778 23.96 20.1556 23.8489 20.1667C23.8266 20.1667 23.8044 20.1667 23.7933 20.1667C23.6933 20.1667 23.5933 20.1333 23.5155 20.0667C21.7266 18.4778 19.0378 18.4778 17.2489 20.0667C17.16 20.1444 17.0378 20.1889 16.9155 20.1667C16.7933 20.1444 16.6822 20.0778 16.6266 19.9778L14.2044 16.0889C14.0711 15.9222 14.1044 15.7 14.26 15.5556C17.7378 12.4556 22.9933 12.4556 26.4822 15.5556C26.6378 15.7 26.6711 15.9222 26.56 16.0889Z" fill="white"/>
</g>
<defs>
<clipPath id="clip0_4283_38866">
<rect width="40" height="40" rx="20" fill="white"/>
</clipPath>
</defs>
</svg>
