<svg width="40" height="64" viewBox="0 0 40 64" fill="none" xmlns="http://www.w3.org/2000/svg">
<path d="M20 62C23.3137 62 26 59.3137 26 55.9999C26 52.6863 23.3137 50 20 50C16.6863 50 14 52.6863 14 55.9999C14 59.3137 16.6863 62 20 62Z" fill="#1D2939"/>
<path fill-rule="evenodd" clip-rule="evenodd" d="M20 51.1584C17.326 51.1584 15.1584 53.3261 15.1584 56C15.1584 58.6739 17.326 60.8416 20 60.8416C22.6739 60.8416 24.8416 58.6739 24.8416 56C24.8416 53.3261 22.6739 51.1584 20 51.1584ZM12 56C12 51.5817 15.5817 48 20 48C24.4183 48 28 51.5817 28 56C28 60.4183 24.4183 64 20 64C15.5817 64 12 60.4183 12 56Z" fill="white"/>
<path fill-rule="evenodd" clip-rule="evenodd" d="M18 32H22V52H18V32Z" fill="#1D2939"/>
<g clip-path="url(#clip0_4326_40831)">
<circle cx="20" cy="20" r="20" fill="#1865D9"/>
<path fill-rule="evenodd" clip-rule="evenodd" d="M16.3791 11H24.1376C27.5076 11 29.5167 13.0091 29.5074 16.3791V24.1376C29.5074 27.5076 27.4983 29.5167 24.1283 29.5167H16.3791C13.0091 29.5167 11 27.5076 11 24.1283V16.3791C11 13.0091 13.0091 11 16.3791 11ZM14.3601 16.2074C14.3601 13.6284 17.3075 13.26 20.2548 13.26C23.2022 13.26 26.1496 13.6284 26.1496 16.2074V23.2074C26.1496 24.6295 24.9927 25.7863 23.5706 25.7863L24.4106 26.6337C24.6464 26.8621 24.4843 27.26 24.1527 27.26H23.3496C23.2538 27.26 23.158 27.2158 23.0917 27.1495L21.7285 25.7863H18.7812L17.418 27.1495C17.3517 27.2232 17.2559 27.26 17.1601 27.26H16.3569C16.0254 27.26 15.8633 26.8621 16.0917 26.6337L16.9391 25.7863C15.5169 25.7863 14.3601 24.6295 14.3601 23.2074V16.2074ZM15.8338 23.2074C15.8338 23.819 16.3275 24.3126 16.9391 24.3126C17.5506 24.3126 18.0443 23.819 18.0443 23.2074C18.0443 22.5958 17.5506 22.1021 16.9391 22.1021C16.3275 22.1021 15.8338 22.5958 15.8338 23.2074ZM15.8338 19.1547H19.518V16.2074H15.8338V19.1547ZM22.4654 23.2074C22.4654 23.819 22.9591 24.3126 23.5706 24.3126C24.1822 24.3126 24.6759 23.819 24.6759 23.2074C24.6759 22.5958 24.1822 22.1021 23.5706 22.1021C22.9591 22.1021 22.4654 22.5958 22.4654 23.2074ZM20.9917 19.1547H24.6759V16.2074H20.9917V19.1547Z" fill="white"/>
</g>
<defs>
<clipPath id="clip0_4326_40831">
<rect width="40" height="40" rx="20" fill="white"/>
</clipPath>
</defs>
</svg>
