<svg width="40" height="64" viewBox="0 0 40 64" fill="none" xmlns="http://www.w3.org/2000/svg">
<path d="M20 62C23.3137 62 26 59.3137 26 55.9999C26 52.6863 23.3137 50 20 50C16.6863 50 14 52.6863 14 55.9999C14 59.3137 16.6863 62 20 62Z" fill="#1D2939"/>
<path fill-rule="evenodd" clip-rule="evenodd" d="M20 51.1584C17.326 51.1584 15.1584 53.3261 15.1584 56C15.1584 58.6739 17.326 60.8416 20 60.8416C22.6739 60.8416 24.8416 58.6739 24.8416 56C24.8416 53.3261 22.6739 51.1584 20 51.1584ZM12 56C12 51.5817 15.5817 48 20 48C24.4183 48 28 51.5817 28 56C28 60.4183 24.4183 64 20 64C15.5817 64 12 60.4183 12 56Z" fill="white"/>
<path fill-rule="evenodd" clip-rule="evenodd" d="M18 32H22V52H18V32Z" fill="#1D2939"/>
<g clip-path="url(#clip0_4283_38956)">
<circle cx="20" cy="20" r="20" fill="#FF8D0A"/>
<g clip-path="url(#clip1_4283_38956)">
<path d="M29.1667 13.5185H25.5556V10.7407C25.5556 10.2315 25.1389 9.81482 24.6296 9.81482C24.1204 9.81482 23.7037 10.2315 23.7037 10.7407V13.5185H20.0926C19.5463 13.5185 19.1204 13.9907 19.1667 14.537L19.2778 15.6574C22.6852 16.4444 25.5556 18.8611 25.5556 22.7778L25.5741 30.1852H27.1482C27.9259 30.1852 28.5648 29.5833 28.6574 28.8241L30.0833 14.537C30.1389 13.9907 29.713 13.5185 29.1667 13.5185V13.5185ZM22.7778 28.3333H10.7407C10.2315 28.3333 9.81482 28.75 9.81482 29.2593C9.81482 29.7685 10.2315 30.1852 10.7407 30.1852H22.7778C23.287 30.1852 23.7037 29.7685 23.7037 29.2593C23.7037 28.75 23.287 28.3333 22.7778 28.3333ZM10.8333 22.7778H22.6852C23.2593 22.7778 23.713 22.2593 23.6019 21.7037C23 18.713 19.8796 17.213 16.7593 17.213C13.6389 17.213 10.5278 18.713 9.91667 21.7037C9.80556 22.2593 10.2685 22.7778 10.8333 22.7778V22.7778ZM22.7778 24.6296H10.7407C10.2315 24.6296 9.81482 25.0463 9.81482 25.5556C9.81482 26.0648 10.2315 26.4815 10.7407 26.4815H22.7778C23.287 26.4815 23.7037 26.0648 23.7037 25.5556C23.7037 25.0463 23.287 24.6296 22.7778 24.6296Z" fill="white"/>
</g>
</g>
<defs>
<clipPath id="clip0_4283_38956">
<rect width="40" height="40" rx="20" fill="white"/>
</clipPath>
<clipPath id="clip1_4283_38956">
<rect width="22.2222" height="22.2222" fill="white" transform="translate(8.88892 8.88889)"/>
</clipPath>
</defs>
</svg>
