<svg width="40" height="64" viewBox="0 0 40 64" fill="none" xmlns="http://www.w3.org/2000/svg">
<path d="M20 62C23.3137 62 26 59.3137 26 55.9999C26 52.6863 23.3137 50 20 50C16.6863 50 14 52.6863 14 55.9999C14 59.3137 16.6863 62 20 62Z" fill="#1D2939"/>
<path fill-rule="evenodd" clip-rule="evenodd" d="M20 51.1584C17.326 51.1584 15.1584 53.3261 15.1584 56C15.1584 58.6739 17.326 60.8416 20 60.8416C22.6739 60.8416 24.8416 58.6739 24.8416 56C24.8416 53.3261 22.6739 51.1584 20 51.1584ZM12 56C12 51.5817 15.5817 48 20 48C24.4183 48 28 51.5817 28 56C28 60.4183 24.4183 64 20 64C15.5817 64 12 60.4183 12 56Z" fill="white"/>
<path fill-rule="evenodd" clip-rule="evenodd" d="M18 32H22V52H18V32Z" fill="#1D2939"/>
<g clip-path="url(#clip0_4283_38890)">
<circle cx="20" cy="20" r="20" fill="#43C7DB"/>
<g clip-path="url(#clip1_4283_38890)">
<path d="M27.4075 28.3333C26.213 28.3333 25.0186 27.9537 23.9445 27.2778C23.7964 27.1852 23.6019 27.1852 23.4538 27.2778C21.3149 28.6389 18.676 28.6389 16.5371 27.2778C16.389 27.1852 16.1945 27.1852 16.0464 27.2778C14.9815 27.9537 13.7871 28.3333 12.5927 28.3333H11.6667C11.1575 28.3333 10.7408 28.75 10.7408 29.2593C10.7408 29.7685 11.1575 30.1852 11.6667 30.1852H12.5927C13.8704 30.1852 15.1297 29.8611 16.2964 29.2685C18.6297 30.463 21.3704 30.463 23.7038 29.2685C24.8704 29.8704 26.1297 30.1852 27.4075 30.1852H28.3334C28.8427 30.1852 29.2593 29.7685 29.2593 29.2593C29.2593 28.75 28.8427 28.3333 28.3334 28.3333H27.4075ZM12.5464 26.4815H12.5927C13.9075 26.4815 15.0927 25.8333 15.9815 24.963C16.1575 24.7963 16.4445 24.7963 16.6204 24.963C17.5001 25.8333 18.6852 26.4815 20.0001 26.4815C21.3149 26.4815 22.5001 25.8333 23.389 24.963C23.5649 24.787 23.8427 24.787 24.0278 24.963C24.9075 25.8333 26.0927 26.4815 27.4075 26.4815H27.4538L29.2038 20.2963C29.2778 20.0556 29.2593 19.7963 29.1482 19.5741C29.0371 19.3519 28.8334 19.1852 28.5927 19.1111L27.4075 18.7222V14.4444C27.4075 13.4259 26.5741 12.5926 25.5556 12.5926H22.7778V10.7407C22.7778 10.2315 22.3612 9.81482 21.8519 9.81482H18.1482C17.639 9.81482 17.2223 10.2315 17.2223 10.7407V12.5926H14.4445C13.426 12.5926 12.5927 13.4259 12.5927 14.4444V18.7222L11.3982 19.1111C11.1575 19.1852 10.9538 19.3519 10.8427 19.5741C10.7315 19.7963 10.7038 20.0556 10.7871 20.2963L12.5464 26.4815ZM15.3704 14.4444H24.6297C25.139 14.4444 25.5556 14.8611 25.5556 15.3704V18.1204L20.5741 16.4815C20.1945 16.3611 19.7964 16.3611 19.4167 16.4815L14.4445 18.1204V15.3704C14.4445 14.8611 14.8612 14.4444 15.3704 14.4444Z" fill="white"/>
</g>
</g>
<defs>
<clipPath id="clip0_4283_38890">
<rect width="40" height="40" rx="20" fill="white"/>
</clipPath>
<clipPath id="clip1_4283_38890">
<rect width="22.2222" height="22.2222" fill="white" transform="translate(8.88892 8.88889)"/>
</clipPath>
</defs>
</svg>
