<svg width="40" height="64" viewBox="0 0 40 64" fill="none" xmlns="http://www.w3.org/2000/svg">
<path d="M20 62C23.3137 62 26 59.3137 26 55.9999C26 52.6863 23.3137 50 20 50C16.6863 50 14 52.6863 14 55.9999C14 59.3137 16.6863 62 20 62Z" fill="#1D2939"/>
<path fill-rule="evenodd" clip-rule="evenodd" d="M20 51.1584C17.326 51.1584 15.1584 53.3261 15.1584 56C15.1584 58.6739 17.326 60.8416 20 60.8416C22.6739 60.8416 24.8416 58.6739 24.8416 56C24.8416 53.3261 22.6739 51.1584 20 51.1584ZM12 56C12 51.5817 15.5817 48 20 48C24.4183 48 28 51.5817 28 56C28 60.4183 24.4183 64 20 64C15.5817 64 12 60.4183 12 56Z" fill="white"/>
<path fill-rule="evenodd" clip-rule="evenodd" d="M18 32H22V52H18V32Z" fill="#1D2939"/>
<g clip-path="url(#clip0_4326_40862)">
<circle cx="20" cy="20" r="20" fill="#D2A400"/>
<path d="M23.9891 10.8517H16.2307C12.8606 10.8517 10.8516 12.8607 10.8516 16.2308V23.98C10.8516 27.3593 12.8606 29.3683 16.2307 29.3683H23.9799C27.3499 29.3683 29.359 27.3593 29.359 23.9892V16.2308C29.3682 12.8607 27.3592 10.8517 23.9891 10.8517ZM26.1371 21.2117C26.1371 21.7672 25.7112 22.045 25.202 21.8228L22.1004 20.4896C21.7394 20.3415 21.4524 20.5266 21.4524 20.9155V22.6283C21.4524 22.7764 21.5357 22.9893 21.6468 23.1004L23.1651 24.6281C23.3225 24.7855 23.3966 25.1002 23.3225 25.3132L23.0263 26.202C22.8967 26.5908 22.4523 26.776 22.0912 26.5908L20.545 25.2762C20.3043 25.0817 19.9155 25.0817 19.684 25.2762L18.1286 26.5908C17.7583 26.776 17.3231 26.5908 17.1935 26.1927L16.8973 25.3039C16.8232 25.091 16.8973 24.7762 17.0546 24.6188L18.6008 23.1004C18.7026 22.9986 18.7952 22.7857 18.7952 22.6283V20.9155C18.7952 20.5266 18.4989 20.3322 18.1471 20.4896L15.0456 21.8228C14.5271 22.045 14.1105 21.7672 14.1105 21.2117V20.3507C14.1105 19.9063 14.4531 19.3879 14.8604 19.2119L18.5082 17.638C18.6563 17.5732 18.786 17.3788 18.786 17.2121V15.2957C18.786 14.6661 19.2396 13.9162 19.8044 13.6384C20.0081 13.5366 20.2395 13.5366 20.4432 13.6384C20.9987 13.9254 21.4616 14.6661 21.4616 15.2957V17.2121C21.4616 17.3788 21.582 17.5732 21.7394 17.638L25.3871 19.2119C25.8038 19.3879 26.1371 19.9063 26.1371 20.3507V21.2117Z" fill="white"/>
</g>
<defs>
<clipPath id="clip0_4326_40862">
<rect width="40" height="40" rx="20" fill="white"/>
</clipPath>
</defs>
</svg>
