<svg width="40" height="64" viewBox="0 0 40 64" fill="none" xmlns="http://www.w3.org/2000/svg">
<path d="M20 62C23.3137 62 26 59.3137 26 55.9999C26 52.6863 23.3137 50 20 50C16.6863 50 14 52.6863 14 55.9999C14 59.3137 16.6863 62 20 62Z" fill="#1D2939"/>
<path fill-rule="evenodd" clip-rule="evenodd" d="M20 51.1584C17.326 51.1584 15.1584 53.3261 15.1584 56C15.1584 58.6739 17.326 60.8416 20 60.8416C22.6739 60.8416 24.8416 58.6739 24.8416 56C24.8416 53.3261 22.6739 51.1584 20 51.1584ZM12 56C12 51.5817 15.5817 48 20 48C24.4183 48 28 51.5817 28 56C28 60.4183 24.4183 64 20 64C15.5817 64 12 60.4183 12 56Z" fill="white"/>
<path fill-rule="evenodd" clip-rule="evenodd" d="M18 32H22V52H18V32Z" fill="#1D2939"/>
<g clip-path="url(#clip0_4283_38820)">
<circle cx="20" cy="20" r="20" fill="#819F2D"/>
<path d="M13.6019 12.1667H19.3704C20.2127 12.1667 20.7519 12.3798 21.0848 12.7178C21.4191 13.0571 21.6297 13.6076 21.6297 14.463V28.7592H17.7223V25.787C17.7223 25.1177 17.1792 24.5926 16.5278 24.5926C15.872 24.5926 15.3334 25.1313 15.3334 25.787V28.7592H11.3334V14.463C11.3334 13.6088 11.5456 13.0584 11.882 12.7187C12.2174 12.3798 12.7596 12.1667 13.6019 12.1667ZM14.2593 21.1944H18.8426C19.4984 21.1944 20.0371 20.6558 20.0371 20C20.0371 19.3442 19.4984 18.8055 18.8426 18.8055H14.2593C13.6035 18.8055 13.0649 19.3442 13.0649 20C13.0649 20.6558 13.6035 21.1944 14.2593 21.1944ZM14.2593 17.7222H18.8426C19.4984 17.7222 20.0371 17.1835 20.0371 16.5278C20.0371 15.872 19.4984 15.3333 18.8426 15.3333H14.2593C13.6035 15.3333 13.0649 15.872 13.0649 16.5278C13.0649 17.1835 13.6035 17.7222 14.2593 17.7222Z" fill="white" stroke="white"/>
<path d="M30.1852 28.5648H28.0834V25.787C28.963 25.5 29.6019 24.6759 29.6019 23.7037V21.8518C29.6019 20.6389 28.6112 19.6481 27.3982 19.6481C26.1852 19.6481 25.1945 20.6389 25.1945 21.8518V23.7037C25.1945 24.6667 25.8241 25.4815 26.6852 25.7778V28.5648H9.81487C9.43524 28.5648 9.12042 28.8796 9.12042 29.2592C9.12042 29.6389 9.43524 29.9537 9.81487 29.9537H27.3426C27.3612 29.9537 27.3704 29.9629 27.3889 29.9629C27.4075 29.9629 27.4167 29.9537 27.4352 29.9537H30.1852C30.5649 29.9537 30.8797 29.6389 30.8797 29.2592C30.8797 28.8796 30.5649 28.5648 30.1852 28.5648Z" fill="white"/>
</g>
<defs>
<clipPath id="clip0_4283_38820">
<rect width="40" height="40" rx="20" fill="white"/>
</clipPath>
</defs>
</svg>
