<?xml version="1.0" encoding="iso-8859-1"?>
<!-- Generator: Adobe Illustrator 19.0.0, SVG Export Plug-In . SVG Version: 6.00 Build 0)  -->
<svg version="1.1" id="Layer_1" xmlns="http://www.w3.org/2000/svg" xmlns:xlink="http://www.w3.org/1999/xlink" x="0px" y="0px"
	 viewBox="0 0 512 512" style="enable-background:new 0 0 512 512;" xml:space="preserve">
<rect x="11.584" y="21.232" style="fill:#FFB14E;" width="488.833" height="231.848"/>
<g>
	<path style="fill:#FFCE47;" d="M11.584,278.787C5.186,278.787,0,283.974,0,290.371v20.627h23.167v-20.627
		C23.167,283.974,17.981,278.787,11.584,278.787z"/>
	<path style="fill:#FFCE47;" d="M109.35,278.787c-6.398,0-11.584,5.187-11.584,11.584v20.627h23.167v-20.627
		C120.934,283.974,115.748,278.787,109.35,278.787z"/>
	<path style="fill:#FFCE47;" d="M207.117,278.787c-6.398,0-11.584,5.187-11.584,11.584v20.627H218.7v-20.627
		C218.7,283.974,213.514,278.787,207.117,278.787z"/>
	<path style="fill:#FFCE47;" d="M304.883,278.787c-6.398,0-11.584,5.187-11.584,11.584v20.627h23.167v-20.627
		C316.467,283.974,311.281,278.787,304.883,278.787z"/>
	<path style="fill:#FFCE47;" d="M402.65,278.787c-6.398,0-11.584,5.187-11.584,11.584v20.627h23.167v-20.627
		C414.234,283.974,409.047,278.787,402.65,278.787z"/>
	<path style="fill:#FFCE47;" d="M500.416,278.787c-6.398,0-11.584,5.187-11.584,11.584v20.627H512v-20.627
		C512,283.974,506.814,278.787,500.416,278.787z"/>
</g>
<rect x="227.041" y="311" style="fill:#174461;" width="57.919" height="179.768"/>
<path style="fill:#3B8BC0;" d="M500.416,322.581H11.584C5.186,322.581,0,317.394,0,310.998c0-6.397,5.186-11.584,11.584-11.584
	h488.833c6.398,0,11.584,5.187,11.584,11.584C512,317.394,506.814,322.581,500.416,322.581z"/>
<g>
</g>
<g>
</g>
<g>
</g>
<g>
</g>
<g>
</g>
<g>
</g>
<g>
</g>
<g>
</g>
<g>
</g>
<g>
</g>
<g>
</g>
<g>
</g>
<g>
</g>
<g>
</g>
<g>
</g>
</svg>
